999
dxfrw 0.6.3
  0
SECTION
  2
HEADER
  9
$ACADVER
  1
AC1021
  9
$DWGCODEPAGE
  3
ANSI_1252
  9
$INSBASE
 10
0
 20
0
 30
0
  9
$EXTMIN
 10
3.277000000000001
 20
1.213340000000001
 30
0
  9
$EXTMAX
 10
117.9872
 20
110.752
 30
0
  9
$LIMMIN
 10
0
 20
0
  9
$LIMMAX
 10
420
 20
297
  9
$ORTHOMODE
 70
    0
  9
$REGENMODE
 70
    1
  9
$FILLMODE
 70
    0
  9
$QTEXTMODE
 70
    0
  9
$MIRRTEXT
 70
    0
  9
$LTSCALE
 40
1
  9
$ATTMODE
 70
    0
  9
$TEXTSIZE
 40
2.5
  9
$TRACEWID
 40
15.68
  9
$TEXTSTYLE
  7
STANDARD
  9
$CLAYER
  8
0
  9
$CELTYPE
  6
BYLAYER
  9
$CECOLOR
 62
  256
  9
$CELTSCALE
 40
1
  9
$DISPSILH
 70
    0
  9
$DIMSCALE
 40
2.5
  9
$DIMASZ
 40
2.5
  9
$DIMEXO
 40
0.625
  9
$DIMDLI
 40
3.75
  9
$DIMRND
 40
0
  9
$DIMDLE
 40
0
  9
$DIMEXE
 40
1.25
  9
$DIMTP
 40
0
  9
$DIMTM
 40
0
  9
$DIMTXT
 40
2.5
  9
$DIMCEN
 40
2.5
  9
$DIMTSZ
 40
0
  9
$DIMTOL
 70
    0
  9
$DIMLIM
 70
    0
  9
$DIMTIH
 70
    0
  9
$DIMTOH
 70
    0
  9
$DIMSE1
 70
    0
  9
$DIMSE2
 70
    0
  9
$DIMTAD
 70
    1
  9
$DIMZIN
 70
    8
  9
$DIMBLK
  1

  9
$DIMASO
 70
    1
  9
$DIMSHO
 70
    1
  9
$DIMPOST
  1

  9
$DIMAPOST
  1

  9
$DIMALT
 70
    0
  9
$DIMALTD
 70
    3
  9
$DIMALTF
 40
0.03937
  9
$DIMLFAC
 40
1
  9
$DIMTOFL
 70
    1
  9
$DIMTVP
 40
0
  9
$DIMTIX
 70
    0
  9
$DIMSOXD
 70
    0
  9
$DIMSAH
 70
    0
  9
$DIMBLK1
  1

  9
$DIMBLK2
  1

  9
$DIMSTYLE
  2
Standard
  9
$DIMCLRD
 70
    0
  9
$DIMCLRE
 70
    0
  9
$DIMCLRT
 70
    0
  9
$DIMTFAC
 40
1
  9
$DIMGAP
 40
0.625
  9
$DIMJUST
 70
    0
  9
$DIMSD1
 70
    0
  9
$DIMSD2
 70
    0
  9
$DIMTOLJ
 70
    0
  9
$DIMTZIN
 70
    8
  9
$DIMALTZ
 70
    0
  9
$DIMALTTZ
 70
    0
  9
$DIMUPT
 70
    0
  9
$DIMDEC
 70
    2
  9
$DIMTDEC
 70
    2
  9
$DIMALTU
 70
    2
  9
$DIMALTTD
 70
    3
  9
$DIMTXSTY
  7
STANDARD
  9
$DIMAUNIT
 70
    0
  9
$DIMADEC
 70
    0
  9
$DIMALTRND
 40
0
  9
$DIMAZIN
 70
    0
  9
$DIMDSEP
 70
   44
  9
$DIMATFIT
 70
    3
  9
$DIMFRAC
 70
    0
  9
$DIMLDRBLK
  1
STANDARD
  9
$DIMLUNIT
 70
    2
  9
$DIMLWD
 70
   -2
  9
$DIMLWE
 70
   -2
  9
$DIMTMOVE
 70
    0
  9
$DIMFXL
 40
1
  9
$DIMFXLON
 70
    0
  9
$DIMJOGANG
 40
0.7854
  9
$DIMTFILL
 70
    0
  9
$DIMTFILLCLR
 70
    0
  9
$DIMARCSYM
 70
    0
  9
$DIMLTYPE
  6

  9
$DIMLTEX1
  6

  9
$DIMLTEX2
  6

  9
$LUNITS
 70
    2
  9
$LUPREC
 70
    4
  9
$SKETCHINC
 40
1
  9
$FILLETRAD
 40
0
  9
$AUNITS
 70
    0
  9
$AUPREC
 70
    2
  9
$MENU
  1
.
  9
$ELEVATION
 40
0
  9
$PELEVATION
 40
0
  9
$THICKNESS
 40
0
  9
$LIMCHECK
 70
    0
  9
$CHAMFERA
 40
0
  9
$CHAMFERB
 40
0
  9
$CHAMFERC
 40
0
  9
$CHAMFERD
 40
0
  9
$SKPOLY
 70
    0
  9
$USRTIMER
 70
    1
  9
$ANGBASE
 50
0
  9
$ANGDIR
 70
    0
  9
$PDMODE
 70
   34
  9
$PDSIZE
 40
0
  9
$PLINEWID
 40
0
  9
$SPLFRAME
 70
    1
  9
$SPLINETYPE
 70
    2
  9
$SPLINESEGS
 70
    8
  9
$HANDSEED
  5
20000
  9
$SURFTAB1
 70
    6
  9
$SURFTAB2
 70
    6
  9
$SURFTYPE
 70
    6
  9
$SURFU
 70
    6
  9
$SURFV
 70
    6
  9
$UCSBASE
  2

  9
$UCSNAME
  2

  9
$UCSORG
 10
0
 20
0
 30
0
  9
$UCSXDIR
 10
1
 20
0
 30
0
  9
$UCSYDIR
 10
0
 20
1
 30
0
  9
$UCSORTHOREF
  2

  9
$UCSORTHOVIEW
 70
    0
  9
$UCSORGTOP
 10
0
 20
0
 30
0
  9
$UCSORGBOTTOM
 10
0
 20
0
 30
0
  9
$UCSORGLEFT
 10
0
 20
0
 30
0
  9
$UCSORGRIGHT
 10
0
 20
0
 30
0
  9
$UCSORGFRONT
 10
0
 20
0
 30
0
  9
$UCSORGBACK
 10
0
 20
0
 30
0
  9
$PUCSBASE
  2

  9
$PUCSNAME
  2

  9
$PUCSORG
 10
0
 20
0
 30
0
  9
$PUCSXDIR
 10
1
 20
0
 30
0
  9
$PUCSYDIR
 10
0
 20
1
 30
0
  9
$PUCSORTHOREF
  2

  9
$PUCSORTHOVIEW
 70
    0
  9
$PUCSORGTOP
 10
0
 20
0
 30
0
  9
$PUCSORGBOTTOM
 10
0
 20
0
 30
0
  9
$PUCSORGLEFT
 10
0
 20
0
 30
0
  9
$PUCSORGRIGHT
 10
0
 20
0
 30
0
  9
$PUCSORGFRONT
 10
0
 20
0
 30
0
  9
$PUCSORGBACK
 10
0
 20
0
 30
0
  9
$USERI1
 70
    0
  9
$USERI2
 70
    0
  9
$USERI3
 70
    0
  9
$USERI4
 70
    0
  9
$USERI5
 70
    0
  9
$USERR1
 40
0
  9
$USERR2
 40
0
  9
$USERR3
 40
0
  9
$USERR4
 40
0
  9
$USERR5
 40
0
  9
$WORLDVIEW
 70
    1
  9
$SHADEDGE
 70
    3
  9
$SHADEDIF
 70
   70
  9
$TILEMODE
 70
    1
  9
$MAXACTVP
 70
   64
  9
$PINSBASE
 10
0
 20
0
 30
0
  9
$PLIMCHECK
 70
    0
  9
$PEXTMIN
 10
0
 20
0
 30
0
  9
$PEXTMAX
 10
0
 20
0
 30
0
  9
$SNAPSTYLE
 70
    0
  9
$PLIMMIN
 10
0
 20
0
  9
$PLIMMAX
 10
120
 20
90
  9
$UNITMODE
 70
    0
  9
$VISRETAIN
 70
    1
  9
$PLINEGEN
 70
    0
  9
$PSLTSCALE
 70
    1
  9
$TREEDEPTH
 70
 3020
  9
$CMLSTYLE
  2
Standard
  9
$CMLJUST
 70
    0
  9
$CMLSCALE
 40
20
  9
$PROXYGRAPHICS
 70
    1
  9
$MEASUREMENT
 70
    1
  9
$CELWEIGHT
370
   -1
  9
$ENDCAPS
280
    0
  9
$JOINSTYLE
280
    0
  9
$LWDISPLAY
290
    0
  9
$INSUNITS
 70
    4
  9
$HYPERLINKBASE
  1

  9
$STYLESHEET
  1

  9
$XEDIT
290
    1
  9
$CEPSNTYPE
380
    0
  9
$PSTYLEMODE
290
    1
  9
$EXTNAMES
290
    1
  9
$PSVPSCALE
 40
1
  9
$OLESTARTUP
290
    0
  9
$SORTENTS
280
  127
  9
$INDEXCTL
280
    0
  9
$HIDETEXT
280
    1
  9
$XCLIPFRAME
290
    0
  9
$HALOGAP
280
    0
  9
$OBSCOLOR
 70
  257
  9
$OBSLTYPE
280
    0
  9
$INTERSECTIONDISPLAY
280
    0
  9
$INTERSECTIONCOLOR
 70
  257
  9
$DIMASSOC
280
    1
  9
$PROJECTNAME
  1

  9
$CAMERADISPLAY
290
    0
  9
$LENSLENGTH
 40
50
  9
$CAMERAHEIGHT
 40
0
  9
$STEPSPERSEC
 40
2
  9
$STEPSIZE
 40
50
  9
$3DDWFPREC
 40
2
  9
$PSOLWIDTH
 40
5
  9
$PSOLHEIGHT
 40
80
  9
$LOFTANG1
 40
1.570796326794897
  9
$LOFTANG2
 40
1.570796326794897
  9
$LOFTMAG1
 40
0
  9
$LOFTMAG2
 40
0
  9
$LOFTPARAM
 70
    7
  9
$LOFTNORMALS
280
    1
  9
$LATITUDE
 40
1
  9
$LONGITUDE
 40
1
  9
$NORTHDIRECTION
 40
0
  9
$TIMEZONE
 70
-8000
  9
$LIGHTGLYPHDISPLAY
280
    1
  9
$TILEMODELIGHTSYNCH
280
    1
  9
$SOLIDHIST
280
    1
  9
$SHOWHIST
280
    1
  9
$DWFFRAME
280
    2
  9
$DGNFRAME
280
    0
  9
$REALWORLDSCALE
290
    1
  9
$INTERFERECOLOR
 62
    1
  9
$CSHADOW
280
    0
  9
$SHADOWPLANELOCATION
 40
0
  0
ENDSEC
  0
SECTION
  2
CLASSES
  0
ENDSEC
  0
SECTION
  2
TABLES
  0
TABLE
  2
VPORT
  5
8
330
0
100
AcDbSymbolTable
 70
    1
  0
VPORT
  5
31
330
2
100
AcDbSymbolTableRecord
100
AcDbViewportTableRecord
  2
*ACTIVE
 70
    0
 10
0
 20
0
 11
1
 21
1
 12
83.99393165110995
 22
58.33950729106479
 13
0
 23
0
 14
10
 24
10
 15
10
 25
10
 16
0
 26
0
 36
1
 17
0
 27
0
 37
0
 40
125.6543233961395
 41
1.792857142857143
 42
50
 43
0
 44
0
 50
0
 51
0
 71
    0
 72
  100
 73
    1
 74
    3
 75
    0
 76
    1
 77
    0
 78
    0
281
    0
 65
    1
110
0
120
0
130
0
111
1
121
0
131
0
112
0
122
1
132
0
 79
    0
146
0
348
10020
 60
    7
 61
    5
292
1
282
    1
141
0
142
0
 63
  250
421
3358443
  0
ENDTAB
  0
TABLE
  2
LTYPE
  5
5
330
0
100
AcDbSymbolTable
 70
    4
  0
LTYPE
  5
14
330
5
100
AcDbSymbolTableRecord
100
AcDbLinetypeTableRecord
  2
ByBlock
 70
    0
  3

 72
   65
 73
    0
 40
0
  0
LTYPE
  5
15
330
5
100
AcDbSymbolTableRecord
100
AcDbLinetypeTableRecord
  2
ByLayer
 70
    0
  3

 72
   65
 73
    0
 40
0
  0
LTYPE
  5
16
330
5
100
AcDbSymbolTableRecord
100
AcDbLinetypeTableRecord
  2
Continuous
 70
    0
  3
Solid line
 72
   65
 73
    0
 40
0
  0
LTYPE
  5
32
330
5
100
AcDbSymbolTableRecord
100
AcDbLinetypeTableRecord
  2
DOT
 70
    0
  3
Dot . . . . . . . . . . . . . . . . . . . . . .
 72
   65
 73
    2
 40
6.35
 49
0
 74
    0
 49
-6.35
 74
    0
  0
LTYPE
  5
33
330
5
100
AcDbSymbolTableRecord
100
AcDbLinetypeTableRecord
  2
DOTTINY
 70
    0
  3
Dot (.15x) .....................................
 72
   65
 73
    2
 40
0.9525
 49
0
 74
    0
 49
-0.9525
 74
    0
  0
LTYPE
  5
34
330
5
100
AcDbSymbolTableRecord
100
AcDbLinetypeTableRecord
  2
DOT2
 70
    0
  3
Dot (.5x) .....................................
 72
   65
 73
    2
 40
3.175
 49
0
 74
    0
 49
-3.175
 74
    0
  0
LTYPE
  5
35
330
5
100
AcDbSymbolTableRecord
100
AcDbLinetypeTableRecord
  2
DOTX2
 70
    0
  3
Dot (2x) .  .  .  .  .  .  .  .  .  .  .  .  .
 72
   65
 73
    2
 40
12.7
 49
0
 74
    0
 49
-12.7
 74
    0
  0
LTYPE
  5
36
330
5
100
AcDbSymbolTableRecord
100
AcDbLinetypeTableRecord
  2
DASHED
 70
    0
  3
Dashed _ _ _ _ _ _ _ _ _ _ _ _ _ _ _ _ _
 72
   65
 73
    2
 40
19.05
 49
12.7
 74
    0
 49
-6.35
 74
    0
  0
LTYPE
  5
37
330
5
100
AcDbSymbolTableRecord
100
AcDbLinetypeTableRecord
  2
DASHEDTINY
 70
    0
  3
Dashed (.15x) _ _ _ _ _ _ _ _ _ _ _ _ _ _ _ _ _
 72
   65
 73
    2
 40
2.8575
 49
1.905
 74
    0
 49
-0.9525
 74
    0
  0
LTYPE
  5
38
330
5
100
AcDbSymbolTableRecord
100
AcDbLinetypeTableRecord
  2
DASHED2
 70
    0
  3
Dashed (.5x) _ _ _ _ _ _ _ _ _ _ _ _ _ _ _ _ _
 72
   65
 73
    2
 40
9.524999999999999
 49
6.35
 74
    0
 49
-3.175
 74
    0
  0
LTYPE
  5
39
330
5
100
AcDbSymbolTableRecord
100
AcDbLinetypeTableRecord
  2
DASHEDX2
 70
    0
  3
Dashed (2x) ____  ____  ____  ____  ____  ___
 72
   65
 73
    2
 40
38.09999999999999
 49
25.4
 74
    0
 49
-12.7
 74
    0
  0
LTYPE
  5
3A
330
5
100
AcDbSymbolTableRecord
100
AcDbLinetypeTableRecord
  2
DASHDOT
 70
    0
  3
Dash dot __ . __ . __ . __ . __ . __ . __ . __
 72
   65
 73
    4
 40
25.4
 49
12.7
 74
    0
 49
-6.35
 74
    0
 49
0
 74
    0
 49
-6.35
 74
    0
  0
LTYPE
  5
3B
330
5
100
AcDbSymbolTableRecord
100
AcDbLinetypeTableRecord
  2
DASHDOTTINY
 70
    0
  3
Dash dot (.15x) _._._._._._._._._._._._._._._.
 72
   65
 73
    4
 40
3.81
 49
1.905
 74
    0
 49
-0.9525
 74
    0
 49
0
 74
    0
 49
-0.9525
 74
    0
  0
LTYPE
  5
3C
330
5
100
AcDbSymbolTableRecord
100
AcDbLinetypeTableRecord
  2
DASHDOT2
 70
    0
  3
Dash dot (.5x) _._._._._._._._._._._._._._._.
 72
   65
 73
    4
 40
12.7
 49
6.35
 74
    0
 49
-3.175
 74
    0
 49
0
 74
    0
 49
-3.175
 74
    0
  0
LTYPE
  5
3D
330
5
100
AcDbSymbolTableRecord
100
AcDbLinetypeTableRecord
  2
DASHDOTX2
 70
    0
  3
Dash dot (2x) ____  .  ____  .  ____  .  ___
 72
   65
 73
    4
 40
50.8
 49
25.4
 74
    0
 49
-12.7
 74
    0
 49
0
 74
    0
 49
-12.7
 74
    0
  0
LTYPE
  5
3E
330
5
100
AcDbSymbolTableRecord
100
AcDbLinetypeTableRecord
  2
DIVIDE
 70
    0
  3
Divide ____ . . ____ . . ____ . . ____ . . ____
 72
   65
 73
    6
 40
31.75
 49
12.7
 74
    0
 49
-6.35
 74
    0
 49
0
 74
    0
 49
-6.35
 74
    0
 49
0
 74
    0
 49
-6.35
 74
    0
  0
LTYPE
  5
3F
330
5
100
AcDbSymbolTableRecord
100
AcDbLinetypeTableRecord
  2
DIVIDETINY
 70
    0
  3
Divide (.15x) __..__..__..__..__..__..__..__.._
 72
   65
 73
    6
 40
4.7625
 49
1.905
 74
    0
 49
-0.9525
 74
    0
 49
0
 74
    0
 49
-0.9525
 74
    0
 49
0
 74
    0
 49
-0.9525
 74
    0
  0
LTYPE
  5
40
330
5
100
AcDbSymbolTableRecord
100
AcDbLinetypeTableRecord
  2
DIVIDE2
 70
    0
  3
Divide (.5x) __..__..__..__..__..__..__..__.._
 72
   65
 73
    6
 40
15.875
 49
6.35
 74
    0
 49
-3.175
 74
    0
 49
0
 74
    0
 49
-3.175
 74
    0
 49
0
 74
    0
 49
-3.175
 74
    0
  0
LTYPE
  5
41
330
5
100
AcDbSymbolTableRecord
100
AcDbLinetypeTableRecord
  2
DIVIDEX2
 70
    0
  3
Divide (2x) ________  .  .  ________  .  .  _
 72
   65
 73
    6
 40
63.5
 49
25.4
 74
    0
 49
-12.7
 74
    0
 49
0
 74
    0
 49
-12.7
 74
    0
 49
0
 74
    0
 49
-12.7
 74
    0
  0
LTYPE
  5
42
330
5
100
AcDbSymbolTableRecord
100
AcDbLinetypeTableRecord
  2
BORDER
 70
    0
  3
Border __ __ . __ __ . __ __ . __ __ . __ __ .
 72
   65
 73
    6
 40
44.45
 49
12.7
 74
    0
 49
-6.35
 74
    0
 49
12.7
 74
    0
 49
-6.35
 74
    0
 49
0
 74
    0
 49
-6.35
 74
    0
  0
LTYPE
  5
43
330
5
100
AcDbSymbolTableRecord
100
AcDbLinetypeTableRecord
  2
BORDERTINY
 70
    0
  3
Border (.15x) __.__.__.__.__.__.__.__.__.__.__.
 72
   65
 73
    6
 40
6.6675
 49
1.905
 74
    0
 49
-0.9525
 74
    0
 49
1.905
 74
    0
 49
-0.9525
 74
    0
 49
0
 74
    0
 49
-0.9525
 74
    0
  0
LTYPE
  5
44
330
5
100
AcDbSymbolTableRecord
100
AcDbLinetypeTableRecord
  2
BORDER2
 70
    0
  3
Border (.5x) __.__.__.__.__.__.__.__.__.__.__.
 72
   65
 73
    6
 40
22.225
 49
6.35
 74
    0
 49
-3.175
 74
    0
 49
6.35
 74
    0
 49
-3.175
 74
    0
 49
0
 74
    0
 49
-3.175
 74
    0
  0
LTYPE
  5
45
330
5
100
AcDbSymbolTableRecord
100
AcDbLinetypeTableRecord
  2
BORDERX2
 70
    0
  3
Border (2x) ____  ____  .  ____  ____  .  ___
 72
   65
 73
    6
 40
88.89999999999999
 49
25.4
 74
    0
 49
-12.7
 74
    0
 49
25.4
 74
    0
 49
-12.7
 74
    0
 49
0
 74
    0
 49
-12.7
 74
    0
  0
LTYPE
  5
46
330
5
100
AcDbSymbolTableRecord
100
AcDbLinetypeTableRecord
  2
CENTER
 70
    0
  3
Center ____ _ ____ _ ____ _ ____ _ ____ _ ____
 72
   65
 73
    4
 40
50.8
 49
31.75
 74
    0
 49
-6.35
 74
    0
 49
6.35
 74
    0
 49
-6.35
 74
    0
  0
LTYPE
  5
47
330
5
100
AcDbSymbolTableRecord
100
AcDbLinetypeTableRecord
  2
CENTERTINY
 70
    0
  3
Center (.15x) ___ _ ___ _ ___ _ ___ _ ___ _ ___
 72
   65
 73
    4
 40
7.619999999999999
 49
4.7625
 74
    0
 49
-0.9525
 74
    0
 49
0.9525
 74
    0
 49
-0.9525
 74
    0
  0
LTYPE
  5
48
330
5
100
AcDbSymbolTableRecord
100
AcDbLinetypeTableRecord
  2
CENTER2
 70
    0
  3
Center (.5x) ___ _ ___ _ ___ _ ___ _ ___ _ ___
 72
   65
 73
    4
 40
28.575
 49
19.05
 74
    0
 49
-3.175
 74
    0
 49
3.175
 74
    0
 49
-3.175
 74
    0
  0
LTYPE
  5
49
330
5
100
AcDbSymbolTableRecord
100
AcDbLinetypeTableRecord
  2
CENTERX2
 70
    0
  3
Center (2x) ________  __  ________  __  _____
 72
   65
 73
    4
 40
101.6
 49
63.5
 74
    0
 49
-12.7
 74
    0
 49
12.7
 74
    0
 49
-12.7
 74
    0
  0
ENDTAB
  0
TABLE
  2
LAYER
  5
2
330
0
100
AcDbSymbolTable
 70
    1
  0
LAYER
  5
10
330
2
100
AcDbSymbolTableRecord
100
AcDbLayerTableRecord
  2
0
 70
    0
 62
    7
  6
CONTINUOUS
370
   -3
390
F
  0
ENDTAB
  0
TABLE
  2
STYLE
  5
3
330
0
100
AcDbSymbolTable
 70
    3
  0
STYLE
  5
4A
330
2
100
AcDbSymbolTableRecord
100
AcDbTextStyleTableRecord
  2
Standard
 70
    0
 40
0
 41
1
 50
0
 71
    0
 42
1
  3
txt
  4

  0
ENDTAB
  0
TABLE
  2
VIEW
  5
6
330
0
100
AcDbSymbolTable
 70
    0
  0
ENDTAB
  0
TABLE
  2
UCS
  5
7
330
0
100
AcDbSymbolTable
 70
    0
  0
ENDTAB
  0
TABLE
  2
APPID
  5
9
330
0
100
AcDbSymbolTable
 70
    1
  0
APPID
  5
12
330
9
100
AcDbSymbolTableRecord
100
AcDbRegAppTableRecord
  2
ACAD
 70
    0
  0
APPID
  5
4B
330
9
100
AcDbSymbolTableRecord
100
AcDbRegAppTableRecord
  2
LibreCad
 70
    0
  0
ENDTAB
  0
TABLE
  2
DIMSTYLE
  5
A
330
0
100
AcDbSymbolTable
 70
    1
100
AcDbDimStyleTable
 71
    1
  0
DIMSTYLE
105
4C
330
A
100
AcDbSymbolTableRecord
100
AcDbDimStyleTableRecord
  2
Standard
 70
    0
 40
1
 41
2.5
 42
0.625
 43
0.38
 44
1.25
 45
0
 46
0
 47
0
 48
0
 49
1
140
2.5
141
0.09
142
2.5
143
25.4
144
1
145
0
146
1
147
0.625
148
0
 71
    0
 72
    0
 73
    0
 74
    1
 75
    0
 76
    0
 77
    0
 78
    1
 79
    0
170
    0
171
    2
172
    0
173
    0
174
    0
175
    0
176
    0
177
    0
178
    0
179
    0
271
    2
272
    4
273
    2
274
    2
275
    0
276
    0
277
    2
278
    0
279
    0
280
    0
281
    0
282
    0
283
    1
284
    0
285
    0
286
    0
288
    0
289
    3
340
standard
341

371
   -2
372
   -2
  0
ENDTAB
  0
TABLE
  2
BLOCK_RECORD
  5
1
330
0
100
AcDbSymbolTable
 70
    2
  0
BLOCK_RECORD
  5
1F
330
1
100
AcDbSymbolTableRecord
100
AcDbBlockTableRecord
  2
*Model_Space
 70
    0
280
    1
281
    0
  0
BLOCK_RECORD
  5
1E
330
1
100
AcDbSymbolTableRecord
100
AcDbBlockTableRecord
  2
*Paper_Space
 70
    0
280
    1
281
    0
  0
ENDTAB
  0
ENDSEC
  0
SECTION
  2
BLOCKS
  0
BLOCK
  5
20
330
1F
100
AcDbEntity
  8
0
100
AcDbBlockBegin
  2
*Model_Space
 70
    0
 10
0
 20
0
 30
0
  3
*Model_Space
  1

  0
ENDBLK
  5
21
330
1F
100
AcDbEntity
  8
0
100
AcDbBlockEnd
  0
BLOCK
  5
1C
330
1B
100
AcDbEntity
  8
0
100
AcDbBlockBegin
  2
*Paper_Space
 70
    0
 10
0
 20
0
 30
0
  3
*Paper_Space
  1

  0
ENDBLK
  5
1D
330
1F
100
AcDbEntity
  8
0
100
AcDbBlockEnd
  0
ENDSEC
  0
SECTION
  2
ENTITIES
  0
LWPOLYLINE
  5
4D
100
AcDbEntity
  8
0
  6
ByLayer
 62
    7
370
   -1
100
AcDbPolyline
 90
  101
 70
    1
 43
0
 10
47.63339999999999
 20
92.0412
 10
47.63339999999999
 20
98.035
 10
62.94580000000002
 20
98.035
 10
62.94580000000002
 20
97.87440000000001
 10
62.97860000000001
 20
97.4316
 10
62.98500000000001
 20
97.3926
 10
62.98500000000001
 20
96.3552
 10
62.98500000000001
 20
95.4828
 10
62.74300000000001
 20
92.8656
 10
62.01840000000001
 20
89.79380000000002
 10
60.80940000000001
 20
87.143
 10
59.59860000000002
 20
85.41340000000001
 10
59.1178
 20
84.91
 10
58.63720000000001
 20
84.40860000000001
 10
56.96500000000002
 20
83.1228
 10
54.41520000000001
 20
81.8466
 10
51.46800000000002
 20
81.08200000000001
 10
48.9594
 20
80.82580000000002
 10
48.1238
 20
80.82580000000002
 10
47.31439999999999
 20
80.82580000000002
 10
44.88940000000001
 20
81.08620000000001
 10
42.41640000000001
 20
81.6906
 10
41.952
 20
81.863
 10
41.50280000000001
 20
82.03660000000001
 10
39.3934
 20
83.18260000000001
 10
37.46640000000001
 20
84.70580000000001
 10
37.10840000000002
 20
85.06620000000001
 10
36.76520000000001
 20
85.41560000000001
 10
35.2942
 20
87.32300000000001
 10
34.1438
 20
89.452
 10
33.9616
 20
89.91
 10
33.86380000000001
 20
90.15520000000001
 10
33.1478
 20
92.60300000000001
 10
33.10220000000001
 20
92.84840000000001
 10
33.05659999999999
 20
93.09480000000002
 10
32.8288
 20
95.11720000000001
 10
32.8288
 20
95.7912
 10
32.8288
 20
96.5538
 10
33.10220000000001
 20
98.84219999999999
 10
33.7402
 20
101.2164
 10
33.9226
 20
101.6678
 10
34.1048
 20
102.1084
 10
35.2842
 20
104.198
 10
36.82380000000001
 20
106.1448
 10
37.18639999999999
 20
106.5114
 10
37.5314
 20
106.8566
 10
39.452
 20
108.3378
 10
41.633
 20
109.4934
 10
42.1084
 20
109.6756
 10
42.577
 20
109.8556
 10
45.0184
 20
110.4828
 10
47.34700000000001
 20
110.752
 10
48.1238
 20
110.752
 10
49.11020000000002
 20
110.752
 10
52.06920000000001
 20
110.332
 10
55.00560000000002
 20
109.3522
 10
55.5458
 20
109.0722
 10
55.71719999999999
 20
108.9876
 10
57.41759999999999
 20
107.935
 10
57.58580000000001
 20
107.8092
 10
57.75280000000001
 20
107.6844
 10
59.298
 20
106.2922
 10
59.43880000000001
 20
106.1384
 10
59.58000000000001
 20
105.9864
 10
60.87560000000001
 20
104.3294
 10
60.9928
 20
104.1502
 10
54.23500000000001
 20
100.9084
 10
54.03340000000001
 20
101.185
 10
52.9502
 20
102.3566
 10
51.77199999999999
 20
103.2498
 10
51.5222
 20
103.3864
 10
51.2642
 20
103.5212
 10
49.89920000000001
 20
103.9886
 10
48.56780000000002
 20
104.1894
 10
48.1238
 20
104.1894
 10
47.34059999999999
 20
104.1894
 10
44.9924
 20
103.6078
 10
42.9622
 20
102.2514
 10
42.63339999999999
 20
101.863
 10
42.3014
 20
101.4788
 10
41.13940000000001
 20
99.1148
 10
40.6414
 20
96.38780000000001
 10
40.6414
 20
95.47860000000001
 10
40.6414
 20
94.5638
 10
41.13940000000001
 20
91.8164
 10
42.3014
 20
89.42380000000001
 10
42.63339999999999
 20
89.03340000000001
 10
42.9622
 20
88.64580000000001
 10
44.9924
 20
87.28840000000001
 10
47.34059999999999
 20
86.70700000000001
 10
48.1238
 20
86.70700000000001
 10
48.80520000000001
 20
86.70700000000001
 10
50.85079999999999
 20
87.07780000000001
 10
52.7376
 20
87.94380000000001
 10
53.063
 20
88.19120000000001
 10
53.30500000000001
 20
88.36700000000002
 10
53.9692
 20
88.98220000000001
 10
54.65920000000001
 20
89.88720000000001
 10
55.1324
 20
90.90719999999999
 10
55.35360000000001
 20
91.7544
 10
55.38940000000001
 20
92.0412
  0
LWPOLYLINE
  5
4E
100
AcDbEntity
  8
0
  6
ByLayer
 62
    7
370
   -1
100
AcDbPolyline
 90
    6
 70
    1
 43
0
 10
74.31300000000002
 20
81.51140000000001
 10
74.31300000000002
 20
103.3474
 10
68.18020000000001
 20
103.3474
 10
71.53980000000001
 20
109.832
 10
81.42260000000002
 20
109.832
 10
81.42260000000002
 20
81.51140000000001
  0
LWPOLYLINE
  5
4F
100
AcDbEntity
  8
0
  6
ByLayer
 62
    7
370
   -1
100
AcDbPolyline
 90
    4
 70
    1
 43
0
 10
35.9126
 20
65.94839999999999
 10
39.4152
 20
74.1862
 10
40.49160000000001
 20
74.1862
 10
37.00200000000001
 20
65.94839999999999
  0
LWPOLYLINE
  5
50
100
AcDbEntity
  8
0
  6
ByLayer
 62
    7
370
   -1
100
AcDbPolyline
 90
   32
 70
    1
 43
0
 10
43.8998
 20
68.0056
 10
44.02340000000001
 20
68.0056
 10
44.3956
 20
68.1078
 10
44.70920000000001
 20
68.3464
 10
44.75920000000001
 20
68.4136
 10
44.80800000000001
 20
68.483
 10
44.9794
 20
68.91799999999999
 10
45.05420000000002
 20
69.4358
 10
45.05420000000002
 20
69.60720000000001
 10
45.05420000000002
 20
69.77980000000001
 10
44.9794
 20
70.29520000000001
 10
44.80800000000001
 20
70.72920000000001
 10
44.75920000000001
 20
70.79640000000001
 10
44.70920000000001
 20
70.86580000000001
 10
44.3956
 20
71.10560000000001
 10
44.02340000000001
 20
71.2088
 10
43.8998
 20
71.2088
 10
43.77720000000001
 20
71.2088
 10
43.40920000000001
 20
71.10560000000001
 10
43.10120000000001
 20
70.86580000000001
 10
43.0534
 20
70.79640000000001
 10
43.00360000000001
 20
70.72920000000001
 10
42.8288
 20
70.29520000000001
 10
42.75380000000001
 20
69.77980000000001
 10
42.75380000000001
 20
69.60720000000001
 10
42.75380000000001
 20
69.4358
 10
42.8288
 20
68.91799999999999
 10
43.00360000000001
 20
68.483
 10
43.0534
 20
68.4136
 10
43.10120000000001
 20
68.3464
 10
43.40920000000001
 20
68.1078
 10
43.77720000000001
 20
68.0056
  0
LWPOLYLINE
  5
51
100
AcDbEntity
  8
0
  6
ByLayer
 62
    7
370
   -1
100
AcDbPolyline
 90
   89
 70
    1
 43
0
 10
45.05420000000002
 20
71.5472
 10
45.05420000000002
 20
74.477
 10
46.81200000000001
 20
74.477
 10
46.81200000000001
 20
72.3458
 10
51.57339999999999
 20
72.3458
 10
51.57339999999999
 20
71.1264
 10
49.5292
 20
69.00839999999999
 10
49.6614
 20
69.00060000000001
 10
50.67060000000001
 20
68.87060000000001
 10
50.74000000000001
 20
68.852
 10
50.842
 20
68.825
 10
51.303
 20
68.59060000000001
 10
51.70260000000002
 20
68.22799999999999
 10
51.77300000000001
 20
68.1358
 10
51.837
 20
68.0534
 10
52.06160000000001
 20
67.59000000000002
 10
52.15920000000001
 20
67.105
 10
52.15920000000001
 20
66.9422
 10
52.15920000000001
 20
66.70480000000001
 10
51.95080000000002
 20
65.98860000000001
 10
51.46480000000001
 20
65.38760000000001
 10
51.32580000000002
 20
65.29300000000001
 10
51.18700000000001
 20
65.19980000000001
 10
50.30500000000001
 20
64.8708
 10
49.25360000000001
 20
64.7286
 10
48.9042
 20
64.7286
 10
48.62299999999999
 20
64.7286
 10
47.8734
 20
64.8014
 10
47.78000000000002
 20
64.8156
 10
47.68560000000002
 20
64.83200000000001
 10
46.75560000000002
 20
65.0598
 10
46.6644
 20
65.08880000000001
 10
46.6644
 20
66.5386
 10
46.75240000000001
 20
66.4952
 10
47.6236
 20
66.1664
 10
47.7106
 20
66.14359999999999
 10
47.7972
 20
66.122
 10
48.50059999999999
 20
66.00920000000001
 10
48.73480000000001
 20
66.00920000000001
 10
48.89860000000002
 20
66.00920000000001
 10
49.39240000000001
 20
66.0742
 10
49.81
 20
66.22279999999999
 10
49.87640000000002
 20
66.26520000000001
 10
49.9436
 20
66.3086
 10
50.17920000000001
 20
66.5808
 10
50.28000000000002
 20
66.9012
 10
50.28000000000002
 20
67.00760000000001
 10
50.28000000000002
 20
67.11800000000001
 10
50.17580000000001
 20
67.447
 10
49.9362
 20
67.7236
 10
49.86760000000001
 20
67.767
 10
49.8002
 20
67.8092
 10
49.36420000000001
 20
67.9558
 10
48.84000000000002
 20
68.01859999999999
 10
48.6652
 20
68.01859999999999
 10
47.75380000000001
 20
68.01859999999999
 10
47.75380000000001
 20
69.21660000000001
 10
49.55940000000001
 20
71.0958
 10
46.81200000000001
 20
71.0958
 10
46.81200000000001
 20
66.8772
 10
45.05420000000002
 20
66.8772
 10
45.05420000000002
 20
67.66720000000001
 10
44.9936
 20
67.587
 10
44.32840000000002
 20
66.99740000000001
 10
44.25560000000002
 20
66.9598
 10
44.18300000000001
 20
66.92280000000001
 10
43.48520000000002
 20
66.7338
 10
43.25300000000001
 20
66.7338
 10
43.02199999999999
 20
66.7338
 10
42.3308
 20
66.9358
 10
41.6992
 20
67.40660000000001
 10
41.5908
 20
67.5412
 10
41.48220000000001
 20
67.6758
 10
41.10480000000001
 20
68.4592
 10
40.9438
 20
69.32080000000001
 10
40.9438
 20
69.60720000000001
 10
40.9438
 20
69.89480000000002
 10
41.10480000000001
 20
70.7552
 10
41.48220000000001
 20
71.5398
 10
41.5908
 20
71.673
 10
41.6992
 20
71.80780000000001
 10
42.3308
 20
72.27520000000001
 10
43.02199999999999
 20
72.47620000000001
 10
43.25300000000001
 20
72.47620000000001
 10
43.50260000000002
 20
72.47620000000001
 10
44.1786
 20
72.28840000000001
 10
44.25140000000002
 20
72.25060000000001
 10
44.32499999999999
 20
72.2136
 10
44.9936
 20
71.6276
  0
LWPOLYLINE
  5
52
100
AcDbEntity
  8
0
  6
ByLayer
 62
    7
370
   -1
100
AcDbPolyline
 90
    4
 70
    1
 43
0
 10
53.23480000000001
 20
66.8772
 10
53.23480000000001
 20
71.80780000000001
 10
54.97500000000001
 20
71.80780000000001
 10
54.97500000000001
 20
66.8772
  0
LWPOLYLINE
  5
53
100
AcDbEntity
  8
0
  6
ByLayer
 62
    7
370
   -1
100
AcDbPolyline
 90
   25
 70
    1
 43
0
 10
53.45580000000001
 20
73.07940000000001
 10
53.4648
 20
73.07940000000001
 10
53.4648
 20
73.19120000000001
 10
53.62299999999999
 20
73.4984
 10
53.65560000000001
 20
73.52640000000001
 10
53.68700000000001
 20
73.5592
 10
54.00840000000001
 20
73.7174
 10
54.1156
 20
73.7174
 10
54.2316
 20
73.7174
 10
54.5498
 20
73.5656
 10
54.58000000000001
 20
73.5352
 10
54.61060000000001
 20
73.50580000000001
 10
54.76660000000001
 20
73.187
 10
54.76660000000001
 20
73.07940000000001
 10
54.76660000000001
 20
72.9622
 10
54.60720000000001
 20
72.6422
 10
54.57580000000002
 20
72.61060000000001
 10
54.54420000000002
 20
72.5792
 10
54.22200000000001
 20
72.4198
 10
54.1156
 20
72.4198
 10
53.99860000000001
 20
72.4198
 10
53.6784
 20
72.587
 10
53.64699999999999
 20
72.6194
 10
53.6144
 20
72.6508
 10
53.45580000000001
 20
72.973
  0
LWPOLYLINE
  5
54
100
AcDbEntity
  8
0
  6
ByLayer
 62
    7
370
   -1
100
AcDbPolyline
 90
    3
 70
    1
 43
0
 10
57.2102
 20
70.4924
 10
56.212
 20
72.3458
 10
58.2128
 20
72.3458
  0
LWPOLYLINE
  5
55
100
AcDbEntity
  8
0
  6
ByLayer
 62
    7
370
   -1
100
AcDbPolyline
 90
    3
 70
    1
 43
0
 10
57.2102
 20
68.73479999999999
 10
58.2128
 20
66.8772
 10
56.212
 20
66.8772
  0
LWPOLYLINE
  5
56
100
AcDbEntity
  8
0
  6
ByLayer
 62
    7
370
   -1
100
AcDbPolyline
 90
   53
 70
    1
 43
0
 10
63.66520000000001
 20
71.80780000000001
 10
64.3944
 20
69.62440000000001
 10
64.3944
 20
69.6148
 10
64.4012
 20
69.58980000000001
 10
64.40340000000002
 20
69.5856
 10
64.43020000000001
 20
69.5138
 10
64.60720000000002
 20
68.90939999999999
 10
64.61579999999999
 20
68.86060000000001
 10
64.61800000000001
 20
68.87240000000001
 10
64.68640000000001
 20
69.1438
 10
64.69839999999999
 20
69.1862
 10
64.70800000000003
 20
69.2274
 10
64.8134
 20
69.592
 10
64.8242
 20
69.62440000000001
 10
65.5664
 20
71.80780000000001
 10
67.3676
 20
71.80780000000001
 10
65.2972
 20
66.8772
 10
64.0688
 20
66.8772
 10
63.3356
 20
69.108
 10
63.3288
 20
69.1298
 10
63.2456
 20
69.4552
 10
63.23560000000001
 20
69.4986
 10
63.23140000000001
 20
69.5202
 10
63.19120000000001
 20
69.68980000000001
 10
63.18799999999999
 20
69.70280000000001
 10
63.1848
 20
69.7158
 10
63.14880000000001
 20
69.8612
 10
63.1444
 20
69.8764
 10
63.13140000000001
 20
69.81440000000001
 10
62.97300000000001
 20
69.1992
 10
62.95360000000001
 20
69.1384
 10
62.94499999999999
 20
69.108
 10
62.2158
 20
66.8772
 10
60.98739999999999
 20
66.8772
 10
58.92580000000001
 20
71.80780000000001
 10
60.7184
 20
71.80780000000001
 10
61.4562
 20
69.62440000000001
 10
61.46380000000001
 20
69.5986
 10
61.5288
 20
69.39660000000001
 10
61.53420000000001
 20
69.3814
 10
61.53980000000001
 20
69.3676
 10
61.58300000000001
 20
69.223
 10
61.58640000000001
 20
69.20780000000001
 10
61.595
 20
69.1712
 10
61.6602
 20
68.88260000000001
 10
61.6644
 20
68.86060000000001
 10
61.67120000000001
 20
68.89980000000001
 10
61.82940000000001
 20
69.46380000000001
 10
61.85560000000001
 20
69.5378
 10
61.8578
 20
69.54860000000001
 10
61.88260000000001
 20
69.6202
 10
61.8858
 20
69.62440000000001
 10
62.61500000000001
 20
71.80780000000001
  0
LWPOLYLINE
  5
57
100
AcDbEntity
  8
0
  6
ByLayer
 62
    7
370
   -1
100
AcDbPolyline
 90
    7
 70
    1
 43
0
 10
73.52860000000001
 20
66.8772
 10
71.7794
 20
66.8772
 10
70.4212
 20
70.6576
 10
69.0626
 20
66.8772
 10
67.30919999999999
 20
66.8772
 10
69.46199999999999
 20
72.3458
 10
71.3802
 20
72.3458
  0
LWPOLYLINE
  5
58
100
AcDbEntity
  8
0
  6
ByLayer
 62
    7
370
   -1
100
AcDbPolyline
 90
   40
 70
    1
 43
0
 10
74.31419999999999
 20
66.8772
 10
74.31419999999999
 20
71.80780000000001
 10
75.90719999999999
 20
71.80780000000001
 10
75.90719999999999
 20
70.80940000000001
 10
75.9636
 20
70.9072
 10
76.63200000000001
 20
71.6384
 10
76.70999999999999
 20
71.6862
 10
76.7838
 20
71.7328
 10
77.54559999999999
 20
71.96380000000001
 10
77.79939999999999
 20
71.96380000000001
 10
78.01440000000001
 20
71.96380000000001
 10
78.5958
 20
71.84480000000001
 10
78.6588
 20
71.82080000000001
 10
78.71980000000002
 20
71.79260000000001
 10
79.21879999999999
 20
71.41720000000001
 10
79.2578
 20
71.3694
 10
79.29259999999999
 20
71.3228
 10
79.52360000000002
 20
70.8236
 10
79.5356
 20
70.7702
 10
79.54860000000002
 20
70.703
 10
79.61800000000001
 20
69.95
 10
79.61800000000001
 20
69.69839999999999
 10
79.61800000000001
 20
66.8772
 10
77.87760000000002
 20
66.8772
 10
77.87760000000002
 20
69.5202
 10
77.87760000000002
 20
69.73520000000001
 10
77.71800000000002
 20
70.33640000000001
 10
77.6866
 20
70.3798
 10
77.65420000000002
 20
70.4252
 10
77.2124
 20
70.64879999999999
 10
77.06619999999998
 20
70.64879999999999
 10
76.94880000000001
 20
70.64879999999999
 10
76.59840000000003
 20
70.548
 10
76.31720000000001
 20
70.3126
 10
76.2762
 20
70.2452
 10
76.23360000000001
 20
70.17920000000001
 10
76.08620000000002
 20
69.7212
 10
76.0244
 20
69.1416
 10
76.0244
 20
68.94760000000001
 10
76.0244
 20
66.8772
  0
LWPOLYLINE
  5
59
100
AcDbEntity
  8
0
  6
ByLayer
 62
    7
370
   -1
100
AcDbPolyline
 90
    4
 70
    1
 43
0
 10
80.2038
 20
65.94839999999999
 10
83.70660000000001
 20
74.1862
 10
84.78300000000002
 20
74.1862
 10
81.29340000000001
 20
65.94839999999999
  0
LWPOLYLINE
  5
5A
100
AcDbEntity
  8
0
  6
ByLayer
 62
    7
370
   -1
100
AcDbPolyline
 90
   28
 70
    1
 43
0
 10
3.277000000000001
 20
50.39380000000001
 10
3.277000000000001
 20
55.1594
 10
4.635600000000004
 20
55.1594
 10
4.801400000000001
 20
55.1594
 10
5.253800000000005
 20
55.1452
 10
5.299399999999999
 20
55.1422
 10
5.345000000000006
 20
55.14
 10
5.717200000000005
 20
55.0966
 10
5.746600000000001
 20
55.09000000000001
 10
5.796400000000006
 20
55.078
 10
6.248800000000003
 20
54.87199999999999
 10
6.289200000000001
 20
54.8428
 10
6.3324
 20
54.81
 10
6.661200000000008
 20
54.3914
 10
6.684200000000004
 20
54.3392
 10
6.707000000000001
 20
54.2914
 10
6.823
 20
53.82920000000001
 10
6.823
 20
53.675
 10
6.823
 20
53.4494
 10
6.595000000000006
 20
52.8308
 10
6.549399999999999
 20
52.7722
 10
6.503800000000005
 20
52.71379999999999
 10
5.84640000000001
 20
52.33380000000001
 10
5.759399999999999
 20
52.31659999999999
 10
7.057200000000009
 20
50.39380000000001
 10
5.59020000000001
 20
50.39380000000001
 10
4.496600000000001
 20
52.2602
 10
4.496600000000001
 20
50.39380000000001
  0
LWPOLYLINE
  5
5B
100
AcDbEntity
  8
0
  6
ByLayer
 62
    7
370
   -1
100
AcDbPolyline
 90
   15
 70
    1
 43
0
 10
4.496600000000001
 20
52.90700000000001
 10
4.735199999999999
 20
52.90700000000001
 10
4.889400000000009
 20
52.90700000000001
 10
5.318800000000003
 20
53.023
 10
5.351600000000005
 20
53.0458
 10
5.382999999999996
 20
53.072
 10
5.542600000000007
 20
53.3942
 10
5.542600000000007
 20
53.5014
 10
5.542600000000007
 20
53.62860000000001
 10
5.393800000000006
 20
53.98439999999999
 10
5.364800000000002
 20
54.00940000000001
 10
5.334200000000003
 20
54.03520000000001
 10
4.901400000000002
 20
54.16120000000001
 10
4.757000000000005
 20
54.16120000000001
 10
4.496600000000001
 20
54.16120000000001
  0
LWPOLYLINE
  5
5C
100
AcDbEntity
  8
0
  6
ByLayer
 62
    7
370
   -1
100
AcDbPolyline
 90
   13
 70
    1
 43
0
 10
9.734200000000001
 20
52.45980000000001
 10
9.729800000000004
 20
52.50560000000001
 10
9.556199999999997
 20
52.87860000000001
 10
9.525800000000004
 20
52.90700000000001
 10
9.495600000000003
 20
52.9362
 10
9.183000000000007
 20
53.0806
 10
9.078800000000001
 20
53.0806
 10
8.965800000000002
 20
53.0806
 10
8.655600000000007
 20
52.95480000000001
 10
8.627600000000001
 20
52.92860000000001
 10
8.597000000000008
 20
52.90020000000001
 10
8.412600000000005
 20
52.50980000000001
 10
8.406200000000005
 20
52.45980000000001
  0
LWPOLYLINE
  5
5D
100
AcDbEntity
  8
0
  6
ByLayer
 62
    7
370
   -1
100
AcDbPolyline
 90
   47
 70
    1
 43
0
 10
10.88
 20
51.8088
 10
8.380000000000003
 20
51.8088
 10
8.381200000000007
 20
51.7448
 10
8.540599999999998
 20
51.2564
 10
8.570799999999998
 20
51.2228
 10
8.601400000000005
 20
51.188
 10
8.988600000000005
 20
51.0144
 10
9.117800000000003
 20
51.0144
 10
9.229800000000004
 20
51.0144
 10
9.5334
 20
51.09800000000001
 10
9.565000000000005
 20
51.1144
 10
9.595200000000006
 20
51.1328
 10
9.823000000000008
 20
51.37480000000001
 10
9.8384
 20
51.40520000000001
 10
10.71080000000001
 20
51.0536
 10
10.6848
 20
50.99160000000001
 10
10.22140000000001
 20
50.5112
 10
10.15520000000001
 20
50.47640000000001
 10
10.08880000000001
 20
50.4416
 10
9.4086
 20
50.268
 10
9.183000000000007
 20
50.268
 10
8.988600000000005
 20
50.268
 10
8.4084
 20
50.3884
 10
7.889400000000002
 20
50.6694
 10
7.802800000000005
 20
50.7498
 10
7.715800000000002
 20
50.8278
 10
7.414200000000001
 20
51.29780000000001
 10
7.286200000000008
 20
51.8284
 10
7.286200000000008
 20
52.0042
 10
7.286200000000008
 20
52.18
 10
7.414200000000001
 20
52.70500000000001
 10
7.715800000000002
 20
53.19560000000001
 10
7.802800000000005
 20
53.28020000000001
 10
7.888400000000004
 20
53.3648
 10
8.388600000000004
 20
53.6612
 10
8.935600000000001
 20
53.788
 10
9.117800000000003
 20
53.788
 10
9.299200000000006
 20
53.788
 10
9.843800000000002
 20
53.66
 10
10.3234
 20
53.3616
 10
10.40260000000001
 20
53.2758
 10
10.4428
 20
53.23240000000001
 10
10.74340000000001
 20
52.718
 10
10.7628
 20
52.6594
 10
10.7822
 20
52.602
 10
10.88
 20
52.04640000000001
 10
10.88
 20
51.8608
  0
LWPOLYLINE
  5
5E
100
AcDbEntity
  8
0
  6
ByLayer
 62
    7
370
   -1
100
AcDbPolyline
 90
   59
 70
    1
 43
0
 10
13.902
 20
52.603
 10
13.8736
 20
52.62800000000001
 10
13.6024
 20
52.8092
 10
13.57640000000001
 20
52.82000000000001
 10
13.55260000000001
 20
52.83199999999999
 10
13.32239999999999
 20
52.8894
 10
13.2466
 20
52.8894
 10
13.1098
 20
52.8894
 10
12.73220000000001
 20
52.6986
 10
12.69980000000001
 20
52.6594
 10
12.665
 20
52.62240000000001
 10
12.4956
 20
52.18860000000001
 10
12.4956
 20
52.043
 10
12.4956
 20
51.8934
 10
12.6726
 20
51.4812
 10
12.7084
 20
51.4442
 10
12.74200000000001
 20
51.40640000000001
 10
13.14260000000001
 20
51.2142
 10
13.277
 20
51.2142
 10
13.36060000000001
 20
51.2142
 10
13.58380000000001
 20
51.27620000000001
 10
13.6112
 20
51.288
 10
13.6394
 20
51.30119999999999
 10
13.8814
 20
51.47880000000001
 10
13.902
 20
51.5006
 10
13.902
 20
50.49360000000001
 10
13.8672
 20
50.47640000000001
 10
13.51560000000001
 20
50.3308
 10
13.4808
 20
50.32
 10
13.4438
 20
50.3114
 10
13.15220000000001
 20
50.268
 10
13.05560000000001
 20
50.268
 10
12.883
 20
50.268
 10
12.3674
 20
50.3894
 10
11.90520000000001
 20
50.6738
 10
11.8272
 20
50.7542
 10
11.80119999999999
 20
50.7822
 10
11.5842
 20
51.082
 10
11.567
 20
51.1144
 10
11.54940000000001
 20
51.14700000000001
 10
11.4192
 20
51.4986
 10
11.4106
 20
51.53520000000001
 10
11.402
 20
51.5744
 10
11.3586
 20
51.9194
 10
11.3586
 20
52.0344
 10
11.3586
 20
52.2114
 10
11.47579999999999
 20
52.7386
 10
11.7526
 20
53.21720000000001
 10
11.83160000000001
 20
53.2976
 10
11.91080000000001
 20
53.38
 10
12.37860000000001
 20
53.66520000000001
 10
12.8962
 20
53.788
 10
13.0686
 20
53.788
 10
13.1814
 20
53.788
 10
13.4842
 20
53.7444
 10
13.52000000000001
 20
53.7358
 10
13.5548
 20
53.72720000000001
 10
13.87240000000001
 20
53.59700000000001
 10
13.902
 20
53.57980000000001
  0
LWPOLYLINE
  5
5F
100
AcDbEntity
  8
0
  6
ByLayer
 62
    7
370
   -1
100
AcDbPolyline
 90
   24
 70
    1
 43
0
 10
16.94880000000001
 20
52.03020000000001
 10
16.94880000000001
 20
52.17440000000001
 10
16.79260000000001
 20
52.5728
 10
16.7622
 20
52.60740000000001
 10
16.7298
 20
52.6434
 10
16.3792
 20
52.82000000000001
 10
16.26300000000001
 20
52.82000000000001
 10
16.1372
 20
52.82000000000001
 10
15.79
 20
52.6434
 10
15.75940000000001
 20
52.60740000000001
 10
15.72920000000001
 20
52.57380000000001
 10
15.5772
 20
52.16700000000001
 10
15.5772
 20
52.03020000000001
 10
15.5772
 20
51.887
 10
15.72479999999999
 20
51.49200000000001
 10
15.7552
 20
51.4572
 10
15.7878
 20
51.42140000000001
 10
16.14359999999999
 20
51.24019999999999
 10
16.26300000000001
 20
51.24019999999999
 10
16.39
 20
51.24019999999999
 10
16.73840000000001
 20
51.42140000000001
 10
16.7708
 20
51.4572
 10
16.8
 20
51.49300000000001
 10
16.94880000000001
 20
51.89660000000001
  0
LWPOLYLINE
  5
60
100
AcDbEntity
  8
0
  6
ByLayer
 62
    7
370
   -1
100
AcDbPolyline
 90
   48
 70
    1
 43
0
 10
18.1034
 20
52.03020000000001
 10
18.1034
 20
51.8608
 10
17.9838
 20
51.40520000000001
 10
17.96000000000001
 20
51.353
 10
17.9362
 20
51.29880000000001
 10
17.603
 20
50.8214
 10
17.5608
 20
50.78020000000001
 10
17.51300000000001
 20
50.73660000000001
 10
17.0202
 20
50.4144
 10
16.97059999999999
 20
50.39380000000001
 10
16.9162
 20
50.3734
 10
16.4258
 20
50.268
 10
16.26300000000001
 20
50.268
 10
16.0862
 20
50.268
 10
15.6078
 20
50.3734
 10
15.55560000000001
 20
50.39380000000001
 10
15.5014
 20
50.4156
 10
15.0064
 20
50.73660000000001
 10
14.96080000000001
 20
50.78020000000001
 10
14.91520000000001
 20
50.82360000000001
 10
14.5898
 20
51.30119999999999
 10
14.5702
 20
51.353
 10
14.54640000000001
 20
51.4042
 10
14.4314
 20
51.87380000000001
 10
14.4314
 20
52.03020000000001
 10
14.4314
 20
52.1994
 10
14.54640000000001
 20
52.65520000000001
 10
14.5702
 20
52.7072
 10
14.592
 20
52.76140000000001
 10
14.9208
 20
53.2388
 10
14.96520000000001
 20
53.28020000000001
 10
15.00740000000001
 20
53.3214
 10
15.4992
 20
53.64020000000001
 10
15.55560000000001
 20
53.66220000000001
 10
15.6086
 20
53.6838
 10
16.0992
 20
53.788
 10
16.26300000000001
 20
53.788
 10
16.44
 20
53.788
 10
16.9162
 20
53.6838
 10
16.97059999999999
 20
53.66220000000001
 10
17.0258
 20
53.64020000000001
 10
17.51760000000001
 20
53.3214
 10
17.5608
 20
53.28020000000001
 10
17.6052
 20
53.24
 10
17.9384
 20
52.7626
 10
17.96000000000001
 20
52.7072
 10
17.9838
 20
52.65520000000001
 10
18.1034
 20
52.18639999999999
  0
LWPOLYLINE
  5
61
100
AcDbEntity
  8
0
  6
ByLayer
 62
    7
370
   -1
100
AcDbPolyline
 90
   67
 70
    1
 43
0
 10
23.1164
 20
50.39380000000001
 10
23.1164
 20
52.18639999999999
 10
23.1164
 20
52.3328
 10
23.0328
 20
52.74639999999999
 10
23.0164
 20
52.7722
 10
22.998
 20
52.8006
 10
22.73439999999999
 20
52.94159999999999
 10
22.6476
 20
52.94159999999999
 10
22.5348
 20
52.94159999999999
 10
22.2166
 20
52.75380000000001
 10
22.1962
 20
52.7158
 10
22.17440000000001
 20
52.67920000000001
 10
22.10079999999999
 20
52.373
 10
22.0702
 20
51.93360000000001
 10
22.0702
 20
51.78720000000001
 10
22.0702
 20
50.39380000000001
 10
20.9506
 20
50.39380000000001
 10
20.9506
 20
52.18639999999999
 10
20.9506
 20
52.33500000000001
 10
20.85939999999999
 20
52.75620000000001
 10
20.842
 20
52.78120000000001
 10
20.82580000000001
 20
52.80800000000001
 10
20.5676
 20
52.94159999999999
 10
20.48160000000001
 20
52.94159999999999
 10
20.36660000000001
 20
52.94159999999999
 10
20.0434
 20
52.7572
 10
20.02160000000001
 20
52.72020000000001
 10
20
 20
52.68340000000001
 10
19.92619999999999
 20
52.3764
 10
19.8958
 20
51.9348
 10
19.8958
 20
51.78720000000001
 10
19.8958
 20
50.39380000000001
 10
18.76760000000001
 20
50.39380000000001
 10
18.76760000000001
 20
53.6838
 10
19.9088
 20
53.6838
 10
19.9088
 20
53.1108
 10
19.9436
 20
53.1684
 10
20.3374
 20
53.59160000000001
 10
20.382
 20
53.61860000000001
 10
20.4252
 20
53.64700000000001
 10
20.86800000000001
 20
53.788
 10
21.01560000000001
 20
53.788
 10
21.18060000000001
 20
53.788
 10
21.632
 20
53.6578
 10
21.6752
 20
53.63159999999999
 10
21.71660000000001
 20
53.60560000000001
 10
22.0162
 20
53.2194
 10
22.0356
 20
53.16720000000001
 10
22.06800000000001
 20
53.2216
 10
22.463
 20
53.6078
 10
22.5086
 20
53.63159999999999
 10
22.553
 20
53.6578
 10
23.0044
 20
53.788
 10
23.15520000000001
 20
53.788
 10
23.2856
 20
53.788
 10
23.6394
 20
53.7056
 10
23.67619999999999
 20
53.688
 10
23.713
 20
53.6708
 10
24.0244
 20
53.4212
 10
24.04940000000001
 20
53.38860000000001
 10
24.0688
 20
53.3636
 10
24.2144
 20
53.063
 10
24.223
 20
53.0284
 10
24.23060000000001
 20
52.99699999999999
 10
24.27079999999999
 20
52.50980000000001
 10
24.27079999999999
 20
52.34700000000001
 10
24.27079999999999
 20
50.39380000000001
  0
LWPOLYLINE
  5
62
100
AcDbEntity
  8
0
  6
ByLayer
 62
    7
370
   -1
100
AcDbPolyline
 90
   67
 70
    1
 43
0
 10
29.438
 20
50.39380000000001
 10
29.438
 20
52.18639999999999
 10
29.438
 20
52.3328
 10
29.3544
 20
52.74639999999999
 10
29.33800000000001
 20
52.7722
 10
29.3198
 20
52.8006
 10
29.0562
 20
52.94159999999999
 10
28.9692
 20
52.94159999999999
 10
28.85640000000001
 20
52.94159999999999
 10
28.53840000000001
 20
52.75380000000001
 10
28.51780000000001
 20
52.7158
 10
28.4962
 20
52.67920000000001
 10
28.4222
 20
52.373
 10
28.392
 20
51.93360000000001
 10
28.392
 20
51.78720000000001
 10
28.392
 20
50.39380000000001
 10
27.2722
 20
50.39380000000001
 10
27.2722
 20
52.18639999999999
 10
27.2722
 20
52.33500000000001
 10
27.1812
 20
52.75620000000001
 10
27.1636
 20
52.78120000000001
 10
27.1472
 20
52.80800000000001
 10
26.8892
 20
52.94159999999999
 10
26.8034
 20
52.94159999999999
 10
26.6884
 20
52.94159999999999
 10
26.36499999999999
 20
52.7572
 10
26.3434
 20
52.72020000000001
 10
26.3216
 20
52.68340000000001
 10
26.24780000000001
 20
52.3764
 10
26.2174
 20
51.9348
 10
26.2174
 20
51.78720000000001
 10
26.2174
 20
50.39380000000001
 10
25.08880000000001
 20
50.39380000000001
 10
25.08880000000001
 20
53.6838
 10
26.2306
 20
53.6838
 10
26.2306
 20
53.1108
 10
26.26520000000001
 20
53.1684
 10
26.6592
 20
53.59160000000001
 10
26.70359999999999
 20
53.61860000000001
 10
26.747
 20
53.64700000000001
 10
27.18980000000001
 20
53.788
 10
27.3372
 20
53.788
 10
27.5022
 20
53.788
 10
27.95359999999999
 20
53.6578
 10
27.997
 20
53.63159999999999
 10
28.03840000000001
 20
53.60560000000001
 10
28.3378
 20
53.2194
 10
28.35720000000001
 20
53.16720000000001
 10
28.38980000000001
 20
53.2216
 10
28.7848
 20
53.6078
 10
28.8302
 20
53.63159999999999
 10
28.87480000000001
 20
53.6578
 10
29.3262
 20
53.788
 10
29.477
 20
53.788
 10
29.60720000000001
 20
53.788
 10
29.96080000000001
 20
53.7056
 10
29.99780000000001
 20
53.688
 10
30.0348
 20
53.6708
 10
30.3462
 20
53.4212
 10
30.3712
 20
53.38860000000001
 10
30.39060000000001
 20
53.3636
 10
30.53619999999999
 20
53.063
 10
30.5448
 20
53.0284
 10
30.55220000000001
 20
52.99699999999999
 10
30.5924
 20
52.50980000000001
 10
30.5924
 20
52.34700000000001
 10
30.5924
 20
50.39380000000001
  0
LWPOLYLINE
  5
63
100
AcDbEntity
  8
0
  6
ByLayer
 62
    7
370
   -1
100
AcDbPolyline
 90
   13
 70
    1
 43
0
 10
33.67619999999999
 20
52.45980000000001
 10
33.67200000000001
 20
52.50560000000001
 10
33.4984
 20
52.87860000000001
 10
33.4678
 20
52.90700000000001
 10
33.4376
 20
52.9362
 10
33.125
 20
53.0806
 10
33.02079999999999
 20
53.0806
 10
32.908
 20
53.0806
 10
32.59780000000001
 20
52.95480000000001
 10
32.5694
 20
52.92860000000001
 10
32.53919999999999
 20
52.90020000000001
 10
32.3548
 20
52.50980000000001
 10
32.348
 20
52.45980000000001
  0
LWPOLYLINE
  5
64
100
AcDbEntity
  8
0
  6
ByLayer
 62
    7
370
   -1
100
AcDbPolyline
 90
   47
 70
    1
 43
0
 10
34.822
 20
51.8088
 10
32.322
 20
51.8088
 10
32.32300000000001
 20
51.7448
 10
32.4828
 20
51.2564
 10
32.51300000000001
 20
51.2228
 10
32.54340000000001
 20
51.188
 10
32.9308
 20
51.0144
 10
33.06
 20
51.0144
 10
33.1716
 20
51.0144
 10
33.4756
 20
51.09800000000001
 10
33.50699999999999
 20
51.1144
 10
33.5372
 20
51.1328
 10
33.76520000000001
 20
51.37480000000001
 10
33.78020000000001
 20
51.40520000000001
 10
34.6528
 20
51.0536
 10
34.6266
 20
50.99160000000001
 10
34.16340000000001
 20
50.5112
 10
34.0972
 20
50.47640000000001
 10
34.0312
 20
50.4416
 10
33.35079999999999
 20
50.268
 10
33.125
 20
50.268
 10
32.9308
 20
50.268
 10
32.3502
 20
50.3884
 10
31.83160000000001
 20
50.6694
 10
31.7448
 20
50.7498
 10
31.658
 20
50.8278
 10
31.35640000000001
 20
51.29780000000001
 10
31.22840000000001
 20
51.8284
 10
31.22840000000001
 20
52.0042
 10
31.22840000000001
 20
52.18
 10
31.35640000000001
 20
52.70500000000001
 10
31.658
 20
53.19560000000001
 10
31.7448
 20
53.28020000000001
 10
31.8306
 20
53.3648
 10
32.3308
 20
53.6612
 10
32.8776
 20
53.788
 10
33.06
 20
53.788
 10
33.24119999999999
 20
53.788
 10
33.78580000000001
 20
53.66
 10
34.26520000000001
 20
53.3616
 10
34.34480000000001
 20
53.2758
 10
34.38480000000001
 20
53.23240000000001
 10
34.68519999999999
 20
52.718
 10
34.70500000000001
 20
52.6594
 10
34.7244
 20
52.602
 10
34.822
 20
52.04640000000001
 10
34.822
 20
51.8608
  0
LWPOLYLINE
  5
65
100
AcDbEntity
  8
0
  6
ByLayer
 62
    7
370
   -1
100
AcDbPolyline
 90
   38
 70
    1
 43
0
 10
35.4828
 20
50.39380000000001
 10
35.4828
 20
53.6838
 10
36.5462
 20
53.6838
 10
36.5462
 20
53.01520000000001
 10
36.583
 20
53.0806
 10
37.02800000000001
 20
53.5688
 10
37.08000000000001
 20
53.60140000000001
 10
37.13
 20
53.6328
 10
37.63560000000001
 20
53.788
 10
37.80500000000001
 20
53.788
 10
37.94800000000001
 20
53.788
 10
38.3356
 20
53.7056
 10
38.37780000000001
 20
53.688
 10
38.4192
 20
53.6708
 10
38.7512
 20
53.4212
 10
38.77720000000001
 20
53.38860000000001
 10
38.80119999999999
 20
53.35840000000001
 10
38.95620000000001
 20
53.02520000000001
 10
38.96379999999999
 20
52.9894
 10
38.97240000000001
 20
52.94500000000001
 10
39.0202
 20
52.4448
 10
39.0202
 20
52.2776
 10
39.0202
 20
50.39380000000001
 10
37.85700000000001
 20
50.39380000000001
 10
37.85700000000001
 20
52.15620000000001
 10
37.85700000000001
 20
52.2992
 10
37.7516
 20
52.70080000000001
 10
37.7312
 20
52.72880000000001
 10
37.70940000000002
 20
52.75940000000001
 10
37.41640000000001
 20
52.90700000000001
 10
37.31880000000001
 20
52.90700000000001
 10
37.18639999999999
 20
52.90700000000001
 10
36.8176
 20
52.6866
 10
36.78919999999999
 20
52.6422
 10
36.7612
 20
52.59780000000001
 10
36.62440000000001
 20
51.9802
 10
36.62440000000001
 20
51.7742
 10
36.62440000000001
 20
50.39380000000001
  0
LWPOLYLINE
  5
66
100
AcDbEntity
  8
0
  6
ByLayer
 62
    7
370
   -1
100
AcDbPolyline
 90
   24
 70
    1
 43
0
 10
42.34800000000001
 20
52.0344
 10
42.34800000000001
 20
52.18639999999999
 10
42.18520000000001
 20
52.6052
 10
42.15280000000001
 20
52.6422
 10
42.11700000000002
 20
52.67920000000001
 10
41.72300000000001
 20
52.8636
 10
41.59280000000001
 20
52.8636
 10
41.4538
 20
52.8636
 10
41.07080000000001
 20
52.67920000000001
 10
41.0372
 20
52.6422
 10
41.00360000000001
 20
52.6052
 10
40.83780000000002
 20
52.1778
 10
40.83780000000002
 20
52.0344
 10
40.83780000000002
 20
51.88240000000001
 10
41.00360000000001
 20
51.46379999999999
 10
41.0372
 20
51.427
 10
41.06999999999999
 20
51.3912
 10
41.4616
 20
51.20980000000001
 10
41.59280000000001
 20
51.20980000000001
 10
41.7328
 20
51.20980000000001
 10
42.11800000000001
 20
51.3912
 10
42.15280000000001
 20
51.427
 10
42.18520000000001
 20
51.46379999999999
 10
42.34800000000001
 20
51.89260000000001
  0
LWPOLYLINE
  5
67
100
AcDbEntity
  8
0
  6
ByLayer
 62
    7
370
   -1
100
AcDbPolyline
 90
   39
 70
    1
 43
0
 10
43.3766
 20
55.44159999999999
 10
43.3766
 20
50.39380000000001
 10
42.3092
 20
50.39380000000001
 10
42.3092
 20
50.9278
 10
42.27220000000001
 20
50.8726
 10
41.85560000000001
 20
50.46000000000001
 10
41.81
 20
50.43300000000001
 10
41.76640000000002
 20
50.40580000000001
 10
41.34000000000002
 20
50.268
 10
41.19800000000001
 20
50.268
 10
41.04160000000002
 20
50.268
 10
40.5762
 20
50.3884
 10
40.16380000000001
 20
50.6694
 10
40.0956
 20
50.7498
 10
40.02620000000002
 20
50.83000000000001
 10
39.7852
 20
51.312
 10
39.68300000000001
 20
51.8544
 10
39.68300000000001
 20
52.0344
 10
39.68300000000001
 20
52.2124
 10
39.7852
 20
52.74300000000001
 10
40.02620000000002
 20
53.22479999999999
 10
40.0956
 20
53.3062
 10
40.16380000000001
 20
53.38640000000001
 10
40.5664
 20
53.66760000000001
 10
41.0102
 20
53.788
 10
41.15880000000001
 20
53.788
 10
41.328
 20
53.788
 10
41.79259999999999
 20
53.6578
 10
41.83580000000001
 20
53.63159999999999
 10
41.87720000000002
 20
53.6088
 10
42.26780000000001
 20
53.1966
 10
42.3048
 20
53.137
 10
42.3026
 20
53.15220000000001
 10
42.2808
 20
53.37260000000001
 10
42.2786
 20
53.4016
 10
42.2764
 20
53.4342
 10
42.26560000000001
 20
53.6514
 10
42.26560000000001
 20
53.7228
 10
42.26560000000001
 20
55.44159999999999
  0
LWPOLYLINE
  5
68
100
AcDbEntity
  8
0
  6
ByLayer
 62
    7
370
   -1
100
AcDbPolyline
 90
   13
 70
    1
 43
0
 10
46.5016
 20
52.45980000000001
 10
46.4974
 20
52.50560000000001
 10
46.32380000000001
 20
52.87860000000001
 10
46.29340000000001
 20
52.90700000000001
 10
46.26300000000002
 20
52.9362
 10
45.95060000000001
 20
53.0806
 10
45.84640000000002
 20
53.0806
 10
45.7336
 20
53.0806
 10
45.423
 20
52.95480000000001
 10
45.39500000000001
 20
52.92860000000001
 10
45.3648
 20
52.90020000000001
 10
45.18000000000001
 20
52.50980000000001
 10
45.17360000000001
 20
52.45980000000001
  0
LWPOLYLINE
  5
69
100
AcDbEntity
  8
0
  6
ByLayer
 62
    7
370
   -1
100
AcDbPolyline
 90
   47
 70
    1
 43
0
 10
47.64760000000001
 20
51.8088
 10
45.14760000000001
 20
51.8088
 10
45.14860000000002
 20
51.7448
 10
45.30799999999999
 20
51.2564
 10
45.33860000000001
 20
51.2228
 10
45.36880000000001
 20
51.188
 10
45.7564
 20
51.0144
 10
45.8856
 20
51.0144
 10
45.99720000000001
 20
51.0144
 10
46.30119999999999
 20
51.09800000000001
 10
46.33240000000001
 20
51.1144
 10
46.36279999999999
 20
51.1328
 10
46.5908
 20
51.37480000000001
 10
46.6058
 20
51.40520000000001
 10
47.47840000000001
 20
51.0536
 10
47.4522
 20
50.99160000000001
 10
46.98880000000001
 20
50.5112
 10
46.92280000000001
 20
50.47640000000001
 10
46.85660000000001
 20
50.4416
 10
46.17620000000001
 20
50.268
 10
45.95060000000001
 20
50.268
 10
45.7564
 20
50.268
 10
45.17580000000001
 20
50.3884
 10
44.65719999999999
 20
50.6694
 10
44.5702
 20
50.7498
 10
44.4836
 20
50.8278
 10
44.18200000000002
 20
51.29780000000001
 10
44.0538
 20
51.8284
 10
44.0538
 20
52.0042
 10
44.0538
 20
52.18
 10
44.18200000000002
 20
52.70500000000001
 10
44.4836
 20
53.19560000000001
 10
44.5702
 20
53.28020000000001
 10
44.6562
 20
53.3648
 10
45.1564
 20
53.6612
 10
45.703
 20
53.788
 10
45.8856
 20
53.788
 10
46.06659999999999
 20
53.788
 10
46.6114
 20
53.66
 10
47.0908
 20
53.3616
 10
47.17020000000001
 20
53.2758
 10
47.2102
 20
53.23240000000001
 10
47.5108
 20
52.718
 10
47.53019999999999
 20
52.6594
 10
47.55000000000001
 20
52.602
 10
47.64760000000001
 20
52.04640000000001
 10
47.64760000000001
 20
51.8608
  0
LWPOLYLINE
  5
6A
100
AcDbEntity
  8
0
  6
ByLayer
 62
    7
370
   -1
100
AcDbPolyline
 90
   24
 70
    1
 43
0
 10
50.82140000000001
 20
52.0344
 10
50.82140000000001
 20
52.18639999999999
 10
50.65860000000001
 20
52.6052
 10
50.62620000000001
 20
52.6422
 10
50.59020000000001
 20
52.67920000000001
 10
50.19640000000001
 20
52.8636
 10
50.06620000000001
 20
52.8636
 10
49.92720000000001
 20
52.8636
 10
49.54420000000002
 20
52.67920000000001
 10
49.51060000000001
 20
52.6422
 10
49.477
 20
52.6052
 10
49.3112
 20
52.1778
 10
49.3112
 20
52.0344
 10
49.3112
 20
51.88240000000001
 10
49.477
 20
51.46379999999999
 10
49.51060000000001
 20
51.427
 10
49.54300000000001
 20
51.3912
 10
49.935
 20
51.20980000000001
 10
50.06620000000001
 20
51.20980000000001
 10
50.2062
 20
51.20980000000001
 10
50.59140000000001
 20
51.3912
 10
50.62620000000001
 20
51.427
 10
50.65860000000001
 20
51.46379999999999
 10
50.82140000000001
 20
51.89260000000001
  0
LWPOLYLINE
  5
6B
100
AcDbEntity
  8
0
  6
ByLayer
 62
    7
370
   -1
100
AcDbPolyline
 90
   39
 70
    1
 43
0
 10
51.85000000000001
 20
55.44159999999999
 10
51.85000000000001
 20
50.39380000000001
 10
50.7822
 20
50.39380000000001
 10
50.7822
 20
50.9278
 10
50.74560000000001
 20
50.8726
 10
50.3288
 20
50.46000000000001
 10
50.28340000000001
 20
50.43300000000001
 10
50.2398
 20
50.40580000000001
 10
49.8134
 20
50.268
 10
49.6712
 20
50.268
 10
49.515
 20
50.268
 10
49.04940000000001
 20
50.3884
 10
48.63720000000001
 20
50.6694
 10
48.56880000000001
 20
50.7498
 10
48.49940000000001
 20
50.83000000000001
 10
48.25839999999999
 20
51.312
 10
48.1564
 20
51.8544
 10
48.1564
 20
52.0344
 10
48.1564
 20
52.2124
 10
48.25839999999999
 20
52.74300000000001
 10
48.49940000000001
 20
53.22479999999999
 10
48.56880000000001
 20
53.3062
 10
48.63720000000001
 20
53.38640000000001
 10
49.03980000000001
 20
53.66760000000001
 10
49.4836
 20
53.788
 10
49.63220000000001
 20
53.788
 10
49.8014
 20
53.788
 10
50.2658
 20
53.6578
 10
50.3092
 20
53.63159999999999
 10
50.3506
 20
53.6088
 10
50.74120000000001
 20
53.1966
 10
50.77800000000001
 20
53.137
 10
50.7758
 20
53.15220000000001
 10
50.7542
 20
53.37260000000001
 10
50.75200000000001
 20
53.4016
 10
50.74980000000001
 20
53.4342
 10
50.73880000000001
 20
53.6514
 10
50.73880000000001
 20
53.7228
 10
50.73880000000001
 20
55.44159999999999
  0
LWPOLYLINE
  5
6C
100
AcDbEntity
  8
0
  6
ByLayer
 62
    7
370
   -1
100
AcDbPolyline
 90
   52
 70
    1
 43
0
 10
60.34280000000001
 20
50.39380000000001
 10
59.13200000000001
 20
50.39380000000001
 10
58.84980000000002
 20
52.4556
 10
58.8434
 20
52.50219999999999
 10
58.80000000000001
 20
52.90700000000001
 10
58.79780000000001
 20
52.94159999999999
 10
58.79340000000001
 20
52.97640000000001
 10
58.75760000000001
 20
53.4602
 10
58.7544
 20
53.52340000000001
 10
58.7436
 20
53.4666
 10
58.5916
 20
52.8374
 10
58.572
 20
52.768
 10
58.56780000000002
 20
52.755
 10
58.5352
 20
52.6388
 10
58.53300000000002
 20
52.6292
 10
57.88200000000001
 20
50.39380000000001
 10
57.01840000000001
 20
50.39380000000001
 10
56.3716
 20
52.6292
 10
56.3694
 20
52.6378
 10
56.33699999999999
 20
52.75380000000001
 10
56.33240000000001
 20
52.768
 10
56.30860000000001
 20
52.8416
 10
56.15660000000001
 20
53.4712
 10
56.1502
 20
53.52340000000001
 10
56.14580000000001
 20
53.4636
 10
56.1056
 20
53.01859999999999
 10
56.10239999999999
 20
52.9894
 10
56.10020000000002
 20
52.9742
 10
56.0752
 20
52.7506
 10
56.072
 20
52.72020000000001
 10
56.06880000000001
 20
52.692
 10
56.0472
 20
52.47080000000001
 10
56.04620000000001
 20
52.4556
 10
55.7638
 20
50.39380000000001
 10
54.55719999999999
 20
50.39380000000001
 10
55.2908
 20
55.1594
 10
56.58
 20
55.1594
 10
57.29620000000001
 20
52.7028
 10
57.2992
 20
52.692
 10
57.32080000000001
 20
52.6194
 10
57.322
 20
52.61619999999999
 10
57.3372
 20
52.565
 10
57.44579999999999
 20
52.0986
 10
57.4522
 20
52.0562
 10
57.4522
 20
52.0714
 10
57.4924
 20
52.31
 10
57.5
 20
52.3428
 10
57.50220000000002
 20
52.35140000000001
 10
57.5814
 20
52.65520000000001
 10
57.5956
 20
52.7072
 10
58.32480000000001
 20
55.1594
 10
59.61360000000002
 20
55.1594
  0
LWPOLYLINE
  5
6D
100
AcDbEntity
  8
0
  6
ByLayer
 62
    7
370
   -1
100
AcDbPolyline
 90
   24
 70
    1
 43
0
 10
63.47000000000001
 20
52.043
 10
63.47000000000001
 20
52.1938
 10
63.2998
 20
52.6116
 10
63.26620000000001
 20
52.6464
 10
63.23140000000001
 20
52.6856
 10
62.8374
 20
52.8764
 10
62.7062
 20
52.8764
 10
62.56720000000001
 20
52.8764
 10
62.1842
 20
52.692
 10
62.1506
 20
52.65520000000001
 10
62.11580000000001
 20
52.6172
 10
61.9422
 20
52.1876
 10
61.9422
 20
52.043
 10
61.9422
 20
51.89020000000001
 10
62.11580000000001
 20
51.468
 10
62.1506
 20
51.4312
 10
62.18299999999999
 20
51.3952
 10
62.575
 20
51.2142
 10
62.7062
 20
51.2142
 10
62.84500000000001
 20
51.2142
 10
63.227
 20
51.3952
 10
63.2616
 20
51.4312
 10
63.29640000000001
 20
51.468
 10
63.47000000000001
 20
51.90000000000001
  0
LWPOLYLINE
  5
6E
100
AcDbEntity
  8
0
  6
ByLayer
 62
    7
370
   -1
100
AcDbPolyline
 90
   35
 70
    1
 43
0
 10
64.49000000000001
 20
53.6838
 10
64.49000000000001
 20
50.39380000000001
 10
63.4222
 20
50.39380000000001
 10
63.4222
 20
50.9278
 10
63.38340000000001
 20
50.8714
 10
62.95360000000001
 20
50.45140000000001
 10
62.9058
 20
50.4242
 10
62.858
 20
50.3984
 10
62.39580000000001
 20
50.268
 10
62.24160000000001
 20
50.268
 10
62.09300000000002
 20
50.268
 10
61.64840000000001
 20
50.3884
 10
61.25640000000001
 20
50.6694
 10
61.1914
 20
50.7498
 10
61.15880000000001
 20
50.79
 10
60.9136
 20
51.2564
 10
60.8964
 20
51.3098
 10
60.87880000000001
 20
51.3638
 10
60.79640000000001
 20
51.8676
 10
60.79640000000001
 20
52.0344
 10
60.79640000000001
 20
52.2158
 10
60.89840000000001
 20
52.75839999999999
 10
61.13940000000001
 20
53.2366
 10
61.2088
 20
53.315
 10
61.27840000000002
 20
53.3942
 10
61.69380000000001
 20
53.6698
 10
62.15920000000001
 20
53.788
 10
62.3156
 20
53.788
 10
62.47500000000001
 20
53.788
 10
62.90920000000001
 20
53.65440000000001
 10
62.95360000000001
 20
53.6276
 10
62.9992
 20
53.6024
 10
63.38560000000001
 20
53.1978
 10
63.41799999999999
 20
53.1414
 10
63.41799999999999
 20
53.6838
  0
LWPOLYLINE
  5
6F
100
AcDbEntity
  8
0
  6
ByLayer
 62
    7
370
   -1
100
AcDbPolyline
 90
   42
 70
    1
 43
0
 10
66.51700000000001
 20
53.12380000000001
 10
66.5312
 20
53.09580000000001
 10
66.61780000000002
 20
52.9036
 10
66.6212
 20
52.8938
 10
66.62439999999999
 20
52.8852
 10
66.657
 20
52.79840000000001
 10
66.66019999999999
 20
52.78980000000001
 10
66.66219999999998
 20
52.7822
 10
66.67759999999998
 20
52.74300000000001
 10
66.67759999999998
 20
52.72880000000001
 10
66.6798
 20
52.73560000000001
 10
66.72300000000001
 20
52.8734
 10
66.72980000000001
 20
52.8938
 10
66.73620000000001
 20
52.91120000000001
 10
66.8262
 20
53.10220000000001
 10
66.83799999999999
 20
53.12380000000001
 10
67.1506
 20
53.6838
 10
68.46140000000001
 20
53.6838
 10
67.33720000000001
 20
52.15620000000001
 10
68.65220000000002
 20
50.39380000000001
 10
67.3416
 20
50.39380000000001
 10
66.85120000000001
 20
51.2228
 10
66.8424
 20
51.2358
 10
66.75999999999999
 20
51.3944
 10
66.75140000000002
 20
51.41380000000001
 10
66.7492
 20
51.4202
 10
66.72739999999999
 20
51.49639999999999
 10
66.7252
 20
51.505
 10
66.72200000000001
 20
51.51580000000001
 10
66.69280000000002
 20
51.6058
 10
66.6906
 20
51.6136
 10
66.68419999999999
 20
51.5898
 10
66.6298
 20
51.4236
 10
66.62559999999999
 20
51.41380000000001
 10
66.61880000000002
 20
51.3976
 10
66.53980000000001
 20
51.238
 10
66.53
 20
51.2228
 10
66.04380000000002
 20
50.39380000000001
 10
64.75920000000002
 20
50.39380000000001
 10
66.05259999999998
 20
52.15620000000001
 10
64.94579999999999
 20
53.6838
 10
66.2088
 20
53.6838
  0
LWPOLYLINE
  5
70
100
AcDbEntity
  8
0
  6
ByLayer
 62
    7
370
   -1
100
AcDbPolyline
 90
    4
 70
    1
 43
0
 10
68.86840000000001
 20
50.39380000000001
 10
68.86840000000001
 20
53.6838
 10
70.02719999999999
 20
53.6838
 10
70.02719999999999
 20
50.39380000000001
  0
LWPOLYLINE
  5
71
100
AcDbEntity
  8
0
  6
ByLayer
 62
    7
370
   -1
100
AcDbPolyline
 90
   25
 70
    1
 43
0
 10
69.0158
 20
54.53020000000001
 10
69.02440000000001
 20
54.53020000000001
 10
69.02440000000001
 20
54.605
 10
69.12860000000001
 20
54.81
 10
69.1502
 20
54.82980000000001
 10
69.1712
 20
54.85140000000001
 10
69.38260000000001
 20
54.9556
 10
69.45420000000001
 20
54.9556
 10
69.53219999999999
 20
54.9556
 10
69.7462
 20
54.8548
 10
69.76660000000003
 20
54.83380000000001
 10
69.78619999999999
 20
54.81440000000001
 10
69.8884
 20
54.6016
 10
69.8884
 20
54.53020000000001
 10
69.8884
 20
54.452
 10
69.78300000000002
 20
54.23840000000001
 10
69.76240000000001
 20
54.2178
 10
69.7406
 20
54.1958
 10
69.5258
 20
54.0874
 10
69.45420000000001
 20
54.0874
 10
69.37620000000003
 20
54.0874
 10
69.16340000000001
 20
54.2002
 10
69.14160000000003
 20
54.22200000000001
 10
69.12
 20
54.24360000000001
 10
69.0158
 20
54.4586
  0
LWPOLYLINE
  5
72
100
AcDbEntity
  8
0
  6
ByLayer
 62
    7
370
   -1
100
AcDbPolyline
 90
   67
 70
    1
 43
0
 10
75.32339999999999
 20
50.39380000000001
 10
75.32339999999999
 20
52.18639999999999
 10
75.32339999999999
 20
52.3328
 10
75.2398
 20
52.74639999999999
 10
75.22360000000002
 20
52.7722
 10
75.205
 20
52.8006
 10
74.9414
 20
52.94159999999999
 10
74.85480000000001
 20
52.94159999999999
 10
74.74160000000001
 20
52.94159999999999
 10
74.42380000000001
 20
52.75380000000001
 10
74.40340000000002
 20
52.7158
 10
74.38140000000001
 20
52.67920000000001
 10
74.3078
 20
52.373
 10
74.27720000000002
 20
51.93360000000001
 10
74.27720000000002
 20
51.78720000000001
 10
74.27720000000002
 20
50.39380000000001
 10
73.1576
 20
50.39380000000001
 10
73.1576
 20
52.18639999999999
 10
73.1576
 20
52.33500000000001
 10
73.0664
 20
52.75620000000001
 10
73.0492
 20
52.78120000000001
 10
73.03280000000001
 20
52.80800000000001
 10
72.77440000000001
 20
52.94159999999999
 10
72.6888
 20
52.94159999999999
 10
72.57380000000001
 20
52.94159999999999
 10
72.25059999999999
 20
52.7572
 10
72.22860000000001
 20
52.72020000000001
 10
72.20700000000002
 20
52.68340000000001
 10
72.13340000000001
 20
52.3764
 10
72.1028
 20
51.9348
 10
72.1028
 20
51.78720000000001
 10
72.1028
 20
50.39380000000001
 10
70.97440000000002
 20
50.39380000000001
 10
70.97440000000002
 20
53.6838
 10
72.11579999999999
 20
53.6838
 10
72.11579999999999
 20
53.1108
 10
72.1506
 20
53.1684
 10
72.5444
 20
53.59160000000001
 10
72.58879999999999
 20
53.61860000000001
 10
72.63240000000002
 20
53.64700000000001
 10
73.075
 20
53.788
 10
73.22279999999999
 20
53.788
 10
73.38760000000001
 20
53.788
 10
73.83879999999999
 20
53.6578
 10
73.88240000000002
 20
53.63159999999999
 10
73.92360000000002
 20
53.60560000000001
 10
74.22300000000001
 20
53.2194
 10
74.2426
 20
53.16720000000001
 10
74.2752
 20
53.2216
 10
74.67020000000001
 20
53.6078
 10
74.7158
 20
53.63159999999999
 10
74.76020000000001
 20
53.6578
 10
75.2116
 20
53.788
 10
75.36240000000001
 20
53.788
 10
75.4926
 20
53.788
 10
75.8464
 20
53.7056
 10
75.88340000000001
 20
53.688
 10
75.92020000000001
 20
53.6708
 10
76.23160000000001
 20
53.4212
 10
76.25640000000001
 20
53.38860000000001
 10
76.2762
 20
53.3636
 10
76.42140000000001
 20
53.063
 10
76.43000000000002
 20
53.0284
 10
76.4378
 20
52.99699999999999
 10
76.4778
 20
52.50980000000001
 10
76.4778
 20
52.34700000000001
 10
76.4778
 20
50.39380000000001
  0
LWPOLYLINE
  5
73
100
AcDbEntity
  8
0
  6
ByLayer
 62
    7
370
   -1
100
AcDbPolyline
 90
   42
 70
    1
 43
0
 10
80.66840000000001
 20
53.6838
 10
80.66840000000001
 20
52.0042
 10
80.66840000000001
 20
51.7992
 10
80.59880000000001
 20
51.22720000000001
 10
80.58580000000001
 20
51.18380000000001
 10
80.57079999999999
 20
51.13940000000001
 10
80.31360000000001
 20
50.73780000000001
 10
80.27780000000001
 20
50.702
 10
80.24300000000001
 20
50.6662
 10
79.79500000000002
 20
50.3916
 10
79.7398
 20
50.3722
 10
79.68520000000001
 20
50.3548
 10
79.1494
 20
50.268
 10
78.9714
 20
50.268
 10
78.78140000000002
 20
50.268
 10
78.2638
 20
50.3548
 10
78.21199999999999
 20
50.3722
 10
78.1576
 20
50.39060000000001
 10
77.6986
 20
50.6652
 10
77.6606
 20
50.702
 10
77.62480000000001
 20
50.7356
 10
77.37520000000001
 20
51.1294
 10
77.36120000000001
 20
51.175
 10
77.3458
 20
51.21860000000001
 10
77.27000000000001
 20
51.80780000000001
 10
77.27000000000001
 20
52.0042
 10
77.27000000000001
 20
53.6838
 10
78.37660000000001
 20
53.6838
 10
78.37660000000001
 20
51.92619999999999
 10
78.37660000000001
 20
51.7784
 10
78.4962
 20
51.36619999999999
 10
78.52000000000001
 20
51.33580000000001
 10
78.5406
 20
51.30420000000001
 10
78.85300000000002
 20
51.1448
 10
78.95840000000001
 20
51.1448
 10
79.0688
 20
51.1448
 10
79.3784
 20
51.29660000000001
 10
79.4012
 20
51.327
 10
79.42280000000001
 20
51.35740000000001
 10
79.5356
 20
51.7838
 10
79.5356
 20
51.92619999999999
 10
79.5356
 20
53.6838
  0
LWPOLYLINE
  5
74
100
AcDbEntity
  8
0
  6
ByLayer
 62
    7
370
   -1
100
AcDbPolyline
 90
   67
 70
    1
 43
0
 10
85.85080000000001
 20
50.39380000000001
 10
85.85080000000001
 20
52.18639999999999
 10
85.85080000000001
 20
52.3328
 10
85.7672
 20
52.74639999999999
 10
85.75080000000001
 20
52.7722
 10
85.73240000000001
 20
52.8006
 10
85.46879999999999
 20
52.94159999999999
 10
85.38200000000001
 20
52.94159999999999
 10
85.26920000000001
 20
52.94159999999999
 10
84.9512
 20
52.75380000000001
 10
84.93060000000001
 20
52.7158
 10
84.9088
 20
52.67920000000001
 10
84.83499999999999
 20
52.373
 10
84.8048
 20
51.93360000000001
 10
84.8048
 20
51.78720000000001
 10
84.8048
 20
50.39380000000001
 10
83.685
 20
50.39380000000001
 10
83.685
 20
52.18639999999999
 10
83.685
 20
52.33500000000001
 10
83.59379999999999
 20
52.75620000000001
 10
83.57639999999999
 20
52.78120000000001
 10
83.56
 20
52.80800000000001
 10
83.30200000000001
 20
52.94159999999999
 10
83.21620000000001
 20
52.94159999999999
 10
83.10120000000001
 20
52.94159999999999
 10
82.77780000000001
 20
52.7572
 10
82.75619999999999
 20
52.72020000000001
 10
82.73440000000001
 20
52.68340000000001
 10
82.6606
 20
52.3764
 10
82.6302
 20
51.9348
 10
82.6302
 20
51.78720000000001
 10
82.6302
 20
50.39380000000001
 10
81.50160000000001
 20
50.39380000000001
 10
81.50160000000001
 20
53.6838
 10
82.6434
 20
53.6838
 10
82.6434
 20
53.1108
 10
82.678
 20
53.1684
 10
83.072
 20
53.59160000000001
 10
83.1164
 20
53.61860000000001
 10
83.1598
 20
53.64700000000001
 10
83.60239999999999
 20
53.788
 10
83.75
 20
53.788
 10
83.91500000000002
 20
53.788
 10
84.3664
 20
53.6578
 10
84.4098
 20
53.63159999999999
 10
84.45080000000002
 20
53.60560000000001
 10
84.75059999999999
 20
53.2194
 10
84.77000000000001
 20
53.16720000000001
 10
84.80259999999998
 20
53.2216
 10
85.19759999999999
 20
53.6078
 10
85.24300000000001
 20
53.63159999999999
 10
85.2876
 20
53.6578
 10
85.73880000000003
 20
53.788
 10
85.88979999999999
 20
53.788
 10
86.02000000000001
 20
53.788
 10
86.3736
 20
53.7056
 10
86.4106
 20
53.688
 10
86.44759999999999
 20
53.6708
 10
86.75880000000001
 20
53.4212
 10
86.7838
 20
53.38860000000001
 10
86.8034
 20
53.3636
 10
86.94880000000001
 20
53.063
 10
86.95760000000001
 20
53.0284
 10
86.96500000000002
 20
52.99699999999999
 10
87.0052
 20
52.50980000000001
 10
87.0052
 20
52.34700000000001
 10
87.0052
 20
50.39380000000001
  0
LWPOLYLINE
  5
75
100
AcDbEntity
  8
0
  6
ByLayer
 62
    7
370
   -1
100
AcDbPolyline
 90
   73
 70
    1
 43
0
 10
93.44720000000001
 20
54.9728
 10
93.44720000000001
 20
53.55360000000001
 10
93.39940000000001
 20
53.6048
 10
92.9588
 20
53.9736
 10
92.9178
 20
53.99639999999999
 10
92.87219999999999
 20
54.018
 10
92.47620000000001
 20
54.1264
 10
92.34479999999999
 20
54.1264
 10
92.21780000000001
 20
54.1264
 10
91.83920000000001
 20
54.0322
 10
91.49639999999999
 20
53.812
 10
91.43780000000001
 20
53.74880000000001
 10
91.41720000000001
 20
53.72620000000001
 10
91.2544
 20
53.48740000000001
 10
91.2424
 20
53.4624
 10
91.2294
 20
53.43860000000001
 10
91.1362
 20
53.1598
 10
91.1294
 20
53.1284
 10
91.12300000000002
 20
53.0978
 10
91.09479999999999
 20
52.8342
 10
91.09479999999999
 20
52.74639999999999
 10
91.09479999999999
 20
52.5086
 10
91.38780000000003
 20
51.8586
 10
91.44640000000001
 20
51.7958
 10
91.505
 20
51.7328
 10
91.8466
 20
51.5126
 10
92.22
 20
51.418
 10
92.34479999999999
 20
51.418
 10
92.488
 20
51.418
 10
92.87120000000002
 20
51.5376
 10
92.9178
 20
51.56139999999999
 10
92.9588
 20
51.583
 10
93.39940000000001
 20
51.9444
 10
93.44720000000001
 20
51.9956
 10
93.44720000000001
 20
50.572
 10
93.38640000000001
 20
50.5436
 10
92.8734
 20
50.35580000000001
 10
92.83080000000001
 20
50.34620000000001
 10
92.77780000000001
 20
50.3342
 10
92.35480000000001
 20
50.2722
 10
92.2148
 20
50.2722
 10
92.0334
 20
50.2722
 10
91.5462
 20
50.3528
 10
91.4898
 20
50.3678
 10
91.43340000000001
 20
50.383
 10
90.93000000000001
 20
50.61860000000001
 10
90.88640000000001
 20
50.65000000000001
 10
90.79760000000002
 20
50.71080000000001
 10
90.1172
 20
51.45940000000001
 10
90.07059999999998
 20
51.54840000000001
 10
90.02380000000002
 20
51.64060000000001
 10
89.7928
 20
52.49019999999999
 10
89.7928
 20
52.7722
 10
89.7928
 20
53.0208
 10
89.94479999999999
 20
53.6914
 10
89.97499999999999
 20
53.7664
 10
89.988
 20
53.803
 10
90.15719999999999
 20
54.1462
 10
90.17920000000001
 20
54.17860000000001
 10
90.19980000000001
 20
54.2112
 10
90.4708
 20
54.5476
 10
90.5044
 20
54.5822
 10
90.56120000000001
 20
54.64080000000001
 10
91.2012
 20
55.075
 10
91.27280000000002
 20
55.103
 10
91.34220000000002
 20
55.1314
 10
91.9966
 20
55.2722
 10
92.2148
 20
55.2722
 10
92.36859999999999
 20
55.2722
 10
92.7766
 20
55.2148
 10
92.83080000000001
 20
55.2028
 10
92.88420000000002
 20
55.18880000000001
 10
93.3972
 20
54.9966
  0
LWPOLYLINE
  5
76
100
AcDbEntity
  8
0
  6
ByLayer
 62
    7
370
   -1
100
AcDbPolyline
 90
   24
 70
    1
 43
0
 10
96.60480000000001
 20
52.043
 10
96.60480000000001
 20
52.1938
 10
96.43440000000001
 20
52.6116
 10
96.4008
 20
52.6464
 10
96.36620000000002
 20
52.6856
 10
95.97220000000002
 20
52.8764
 10
95.8408
 20
52.8764
 10
95.702
 20
52.8764
 10
95.31879999999998
 20
52.692
 10
95.2852
 20
52.65520000000001
 10
95.25060000000002
 20
52.6172
 10
95.077
 20
52.1876
 10
95.077
 20
52.043
 10
95.077
 20
51.89020000000001
 10
95.25060000000002
 20
51.468
 10
95.2852
 20
51.4312
 10
95.31800000000001
 20
51.3952
 10
95.7098
 20
51.2142
 10
95.8408
 20
51.2142
 10
95.97980000000001
 20
51.2142
 10
96.36160000000001
 20
51.3952
 10
96.3964
 20
51.4312
 10
96.43119999999999
 20
51.468
 10
96.60480000000001
 20
51.90000000000001
  0
LWPOLYLINE
  5
77
100
AcDbEntity
  8
0
  6
ByLayer
 62
    7
370
   -1
100
AcDbPolyline
 90
   35
 70
    1
 43
0
 10
97.62480000000002
 20
53.6838
 10
97.62480000000002
 20
50.39380000000001
 10
96.55699999999999
 20
50.39380000000001
 10
96.55699999999999
 20
50.9278
 10
96.518
 20
50.8714
 10
96.08840000000001
 20
50.45140000000001
 10
96.04060000000001
 20
50.4242
 10
95.99280000000002
 20
50.3984
 10
95.53060000000002
 20
50.268
 10
95.37639999999999
 20
50.268
 10
95.2278
 20
50.268
 10
94.78300000000002
 20
50.3884
 10
94.3914
 20
50.6694
 10
94.3262
 20
50.7498
 10
94.29360000000003
 20
50.79
 10
94.04839999999999
 20
51.2564
 10
94.03119999999998
 20
51.3098
 10
94.0136
 20
51.3638
 10
93.93119999999999
 20
51.8676
 10
93.93119999999999
 20
52.0344
 10
93.93119999999999
 20
52.2158
 10
94.0334
 20
52.75839999999999
 10
94.27420000000001
 20
53.2366
 10
94.34360000000001
 20
53.315
 10
94.41300000000001
 20
53.3942
 10
94.82860000000002
 20
53.6698
 10
95.29420000000002
 20
53.788
 10
95.4502
 20
53.788
 10
95.60980000000001
 20
53.788
 10
96.0438
 20
53.65440000000001
 10
96.08840000000001
 20
53.6276
 10
96.13380000000001
 20
53.6024
 10
96.52020000000002
 20
53.1978
 10
96.55280000000002
 20
53.1414
 10
96.55280000000002
 20
53.6838
  0
LWPOLYLINE
  5
78
100
AcDbEntity
  8
0
  6
ByLayer
 62
    7
370
   -1
100
AcDbPolyline
 90
   24
 70
    1
 43
0
 10
99.53440000000001
 20
52.03020000000001
 10
99.53440000000001
 20
51.87719999999999
 10
99.7038
 20
51.4562
 10
99.73859999999999
 20
51.418
 10
99.77000000000001
 20
51.3826
 10
100.1564
 20
51.2012
 10
100.2852
 20
51.2012
 10
100.4242
 20
51.2012
 10
100.8072
 20
51.3826
 10
100.8408
 20
51.418
 10
100.8736
 20
51.4572
 10
101.0362
 20
51.887
 10
101.0362
 20
52.03020000000001
 10
101.0362
 20
52.1812
 10
100.8736
 20
52.59780000000001
 10
100.8408
 20
52.63340000000001
 10
100.8062
 20
52.6702
 10
100.4156
 20
52.8548
 10
100.2852
 20
52.8548
 10
100.1486
 20
52.8548
 10
99.77000000000001
 20
52.6702
 10
99.73859999999999
 20
52.63340000000001
 10
99.7038
 20
52.5986
 10
99.53440000000001
 20
52.1722
  0
LWPOLYLINE
  5
79
100
AcDbEntity
  8
0
  6
ByLayer
 62
    7
370
   -1
100
AcDbPolyline
 90
   43
 70
    1
 43
0
 10
98.50579999999999
 20
48.94
 10
98.50579999999999
 20
53.675
 10
99.5736
 20
53.675
 10
99.5736
 20
53.1284
 10
99.60839999999999
 20
53.1814
 10
100.025
 20
53.59060000000001
 10
100.0728
 20
53.61860000000001
 10
100.1172
 20
53.6458
 10
100.5426
 20
53.7792
 10
100.6848
 20
53.7792
 10
100.8408
 20
53.7792
 10
101.2642
 20
53.6816
 10
101.3098
 20
53.66220000000001
 10
101.3552
 20
53.64359999999999
 10
101.7566
 20
53.35380000000001
 10
101.7914
 20
53.315
 10
101.8586
 20
53.23780000000001
 10
102.0964
 20
52.76140000000001
 10
102.1994
 20
52.2136
 10
102.1994
 20
52.03020000000001
 10
102.1994
 20
51.85220000000001
 10
102.0964
 20
51.31620000000001
 10
101.8586
 20
50.83560000000001
 10
101.7914
 20
50.7542
 10
101.7566
 20
50.7128
 10
101.3662
 20
50.4092
 10
101.3228
 20
50.3894
 10
101.2792
 20
50.37
 10
100.8626
 20
50.268
 10
100.7236
 20
50.268
 10
100.5544
 20
50.268
 10
100.09
 20
50.39500000000001
 10
100.0466
 20
50.42
 10
100.0044
 20
50.44500000000001
 10
99.61360000000002
 20
50.868
 10
99.5778
 20
50.9278
 10
99.58000000000001
 20
50.9148
 10
99.60160000000002
 20
50.71620000000001
 10
99.60380000000001
 20
50.68880000000001
 10
99.60499999999999
 20
50.6738
 10
99.61260000000001
 20
50.4252
 10
99.61260000000001
 20
50.3416
 10
99.61260000000001
 20
48.94
  0
LWPOLYLINE
  5
7A
100
AcDbEntity
  8
0
  6
ByLayer
 62
    7
370
   -1
100
AcDbPolyline
 90
   24
 70
    1
 43
0
 10
105.407
 20
52.043
 10
105.407
 20
52.1938
 10
105.2366
 20
52.6116
 10
105.2028
 20
52.6464
 10
105.168
 20
52.6856
 10
104.7744
 20
52.8764
 10
104.643
 20
52.8764
 10
104.5042
 20
52.8764
 10
104.1212
 20
52.692
 10
104.0876
 20
52.65520000000001
 10
104.0528
 20
52.6172
 10
103.8792
 20
52.1876
 10
103.8792
 20
52.043
 10
103.8792
 20
51.89020000000001
 10
104.0528
 20
51.468
 10
104.0876
 20
51.4312
 10
104.12
 20
51.3952
 10
104.5116
 20
51.2142
 10
104.643
 20
51.2142
 10
104.782
 20
51.2142
 10
105.1638
 20
51.3952
 10
105.1986
 20
51.4312
 10
105.2334
 20
51.468
 10
105.407
 20
51.90000000000001
  0
LWPOLYLINE
  5
7B
100
AcDbEntity
  8
0
  6
ByLayer
 62
    7
370
   -1
100
AcDbPolyline
 90
   35
 70
    1
 43
0
 10
106.427
 20
53.6838
 10
106.427
 20
50.39380000000001
 10
105.3592
 20
50.39380000000001
 10
105.3592
 20
50.9278
 10
105.32
 20
50.8714
 10
104.8902
 20
50.45140000000001
 10
104.8428
 20
50.4242
 10
104.795
 20
50.3984
 10
104.3328
 20
50.268
 10
104.1786
 20
50.268
 10
104.03
 20
50.268
 10
103.585
 20
50.3884
 10
103.1934
 20
50.6694
 10
103.1284
 20
50.7498
 10
103.0958
 20
50.79
 10
102.8506
 20
51.2564
 10
102.833
 20
51.3098
 10
102.8158
 20
51.3638
 10
102.7334
 20
51.8676
 10
102.7334
 20
52.0344
 10
102.7334
 20
52.2158
 10
102.8352
 20
52.75839999999999
 10
103.0762
 20
53.2366
 10
103.1456
 20
53.315
 10
103.215
 20
53.3942
 10
103.6306
 20
53.6698
 10
104.0962
 20
53.788
 10
104.2526
 20
53.788
 10
104.412
 20
53.788
 10
104.8458
 20
53.65440000000001
 10
104.8902
 20
53.6276
 10
104.9362
 20
53.6024
 10
105.3222
 20
53.1978
 10
105.3548
 20
53.1414
 10
105.3548
 20
53.6838
  0
LWPOLYLINE
  5
7C
100
AcDbEntity
  8
0
  6
ByLayer
 62
    7
370
   -1
100
AcDbPolyline
 90
   59
 70
    1
 43
0
 10
109.6602
 20
52.603
 10
109.6322
 20
52.62800000000001
 10
109.3608
 20
52.8092
 10
109.3348
 20
52.82000000000001
 10
109.3112
 20
52.83199999999999
 10
109.0808
 20
52.8894
 10
109.005
 20
52.8894
 10
108.8684
 20
52.8894
 10
108.4906
 20
52.6986
 10
108.458
 20
52.6594
 10
108.4234
 20
52.62240000000001
 10
108.2542
 20
52.18860000000001
 10
108.2542
 20
52.043
 10
108.2542
 20
51.8934
 10
108.4312
 20
51.4812
 10
108.4666
 20
51.4442
 10
108.5006
 20
51.40640000000001
 10
108.9008
 20
51.2142
 10
109.0352
 20
51.2142
 10
109.1188
 20
51.2142
 10
109.3424
 20
51.27620000000001
 10
109.3694
 20
51.288
 10
109.3978
 20
51.30119999999999
 10
109.6398
 20
51.47880000000001
 10
109.6602
 20
51.5006
 10
109.6602
 20
50.49360000000001
 10
109.6256
 20
50.47640000000001
 10
109.2742
 20
50.3308
 10
109.2394
 20
50.32
 10
109.2026
 20
50.3114
 10
108.9106
 20
50.268
 10
108.8138
 20
50.268
 10
108.6414
 20
50.268
 10
108.1262
 20
50.3894
 10
107.6638
 20
50.6738
 10
107.5858
 20
50.7542
 10
107.5598
 20
50.7822
 10
107.3428
 20
51.082
 10
107.3252
 20
51.1144
 10
107.308
 20
51.14700000000001
 10
107.1778
 20
51.4986
 10
107.1692
 20
51.53520000000001
 10
107.1602
 20
51.5744
 10
107.117
 20
51.9194
 10
107.117
 20
52.0344
 10
107.117
 20
52.2114
 10
107.2342
 20
52.7386
 10
107.5108
 20
53.21720000000001
 10
107.59
 20
53.2976
 10
107.6692
 20
53.38
 10
108.137
 20
53.66520000000001
 10
108.6544
 20
53.788
 10
108.827
 20
53.788
 10
108.94
 20
53.788
 10
109.2426
 20
53.7444
 10
109.2784
 20
53.7358
 10
109.313
 20
53.72720000000001
 10
109.6312
 20
53.59700000000001
 10
109.6602
 20
53.57980000000001
  0
LWPOLYLINE
  5
7D
100
AcDbEntity
  8
0
  6
ByLayer
 62
    7
370
   -1
100
AcDbPolyline
 90
    4
 70
    1
 43
0
 10
110.3462
 20
50.39380000000001
 10
110.3462
 20
53.6838
 10
111.505
 20
53.6838
 10
111.505
 20
50.39380000000001
  0
LWPOLYLINE
  5
7E
100
AcDbEntity
  8
0
  6
ByLayer
 62
    7
370
   -1
100
AcDbPolyline
 90
   25
 70
    1
 43
0
 10
110.4936
 20
54.53020000000001
 10
110.5026
 20
54.53020000000001
 10
110.5026
 20
54.605
 10
110.6066
 20
54.81
 10
110.6284
 20
54.82980000000001
 10
110.6488
 20
54.85140000000001
 10
110.8606
 20
54.9556
 10
110.932
 20
54.9556
 10
111.0102
 20
54.9556
 10
111.2238
 20
54.8548
 10
111.2444
 20
54.83380000000001
 10
111.2642
 20
54.81440000000001
 10
111.3662
 20
54.6016
 10
111.3662
 20
54.53020000000001
 10
111.3662
 20
54.452
 10
111.2608
 20
54.23840000000001
 10
111.2402
 20
54.2178
 10
111.2186
 20
54.1958
 10
111.0036
 20
54.0874
 10
110.932
 20
54.0874
 10
110.8538
 20
54.0874
 10
110.6414
 20
54.2002
 10
110.6194
 20
54.22200000000001
 10
110.5978
 20
54.24360000000001
 10
110.4936
 20
54.4586
  0
LWPOLYLINE
  5
7F
100
AcDbEntity
  8
0
  6
ByLayer
 62
    7
370
   -1
100
AcDbPolyline
 90
   12
 70
    1
 43
0
 10
112.6388
 20
50.39380000000001
 10
112.6344
 20
52.8636
 10
112.1398
 20
52.8636
 10
112.1398
 20
53.6838
 10
112.6344
 20
53.6838
 10
112.6344
 20
54.66020000000001
 10
113.7802
 20
54.66020000000001
 10
113.7802
 20
53.6838
 10
114.2664
 20
53.6838
 10
114.2664
 20
52.8636
 10
113.7802
 20
52.8636
 10
113.7802
 20
50.39380000000001
  0
LWPOLYLINE
  5
80
100
AcDbEntity
  8
0
  6
ByLayer
 62
    7
370
   -1
100
AcDbPolyline
 90
   20
 70
    1
 43
0
 10
114.6278
 20
48.94
 10
115.5522
 20
50.8972
 10
114.2286
 20
53.6838
 10
115.5134
 20
53.6838
 10
115.9734
 20
52.4944
 10
115.9842
 20
52.4674
 10
116.0644
 20
52.23200000000001
 10
116.0688
 20
52.2124
 10
116.0742
 20
52.193
 10
116.1252
 20
51.9944
 10
116.1294
 20
51.9736
 10
116.1316
 20
51.99340000000001
 10
116.1794
 20
52.1994
 10
116.1862
 20
52.2212
 10
116.1902
 20
52.2406
 10
116.2694
 20
52.46860000000001
 10
116.2814
 20
52.4944
 10
116.7458
 20
53.6838
 10
117.9872
 20
53.6838
 10
115.9212
 20
48.94
  0
LWPOLYLINE
  5
81
100
AcDbEntity
  8
0
  6
ByLayer
 62
    7
370
   -1
100
AcDbPolyline
 90
    6
 70
    1
 43
0
 10
29.9512
 20
35.6456
 10
29.9512
 20
42.9242
 10
27.90700000000001
 20
42.9242
 10
29.0266
 20
45.08580000000001
 10
32.32080000000001
 20
45.08580000000001
 10
32.32080000000001
 20
35.6456
  0
LWPOLYLINE
  5
82
100
AcDbEntity
  8
0
  6
ByLayer
 62
    7
370
   -1
100
AcDbPolyline
 90
   39
 70
    1
 43
0
 10
42.85480000000001
 20
40.2506
 10
42.85480000000001
 20
39.7462
 10
42.61500000000001
 20
38.2292
 10
42.05840000000001
 20
36.9042
 10
41.90000000000001
 20
36.6872
 10
41.7394
 20
36.4714
 10
40.7574
 20
35.7138
 10
39.63120000000001
 20
35.3894
 10
39.25659999999999
 20
35.3894
 10
38.8814
 20
35.3894
 10
37.75620000000001
 20
35.7206
 10
36.77719999999999
 20
36.493
 10
36.6178
 20
36.7134
 10
36.56580000000001
 20
36.7828
 10
36.1134
 20
37.6008
 10
36.0752
 20
37.6942
 10
36.0372
 20
37.7886
 10
35.7628
 20
38.8012
 10
35.74560000000001
 20
38.90940000000001
 10
35.72799999999999
 20
39.018
 10
35.6414
 20
40.0108
 10
35.6414
 20
40.3416
 10
35.6414
 20
40.85720000000001
 10
35.843
 20
42.25360000000001
 10
35.88440000000001
 20
42.4034
 10
35.9256
 20
42.5552
 10
36.5364
 20
43.85740000000001
 10
36.6178
 20
43.9658
 10
36.7784
 20
44.185
 10
37.75839999999999
 20
44.94880000000001
 10
38.8814
 20
45.2766
 10
39.25659999999999
 20
45.2766
 10
39.63440000000001
 20
45.2766
 10
40.76840000000001
 20
44.94880000000001
 10
41.75240000000001
 20
44.185
 10
41.91300000000001
 20
43.9658
 10
42.06920000000001
 20
43.7426
 10
42.61840000000001
 20
42.3644
 10
42.85480000000001
 20
40.7792
  0
LWPOLYLINE
  5
83
100
AcDbEntity
  8
0
  6
ByLayer
 62
    7
370
   -1
100
AcDbPolyline
 90
   32
 70
    1
 43
0
 10
38.0458
 20
40.3416
 10
38.0458
 20
40.0012
 10
38.1174
 20
38.9778
 10
38.2878
 20
38.178
 10
38.3366
 20
38.063
 10
38.38560000000001
 20
37.9428
 10
38.71300000000001
 20
37.5194
 10
39.12
 20
37.3384
 10
39.25659999999999
 20
37.3384
 10
39.38920000000002
 20
37.3384
 10
39.7872
 20
37.5194
 10
40.11060000000001
 20
37.9428
 10
40.15940000000001
 20
38.063
 10
40.2084
 20
38.178
 10
40.37979999999999
 20
38.9778
 10
40.45480000000001
 20
40.0012
 10
40.45480000000001
 20
40.3416
 10
40.45480000000001
 20
40.6792
 10
40.37979999999999
 20
41.6916
 10
40.2084
 20
42.4914
 10
40.15940000000001
 20
42.60740000000001
 10
40.11060000000001
 20
42.73
 10
39.7872
 20
43.1576
 10
39.38920000000002
 20
43.3408
 10
39.25659999999999
 20
43.3408
 10
39.1178
 20
43.3408
 10
38.7022
 20
43.1642
 10
38.38220000000001
 20
42.7516
 10
38.3366
 20
42.63340000000001
 10
38.2878
 20
42.5176
 10
38.1174
 20
41.71120000000001
 10
38.0458
 20
40.6848
  0
LWPOLYLINE
  5
84
100
AcDbEntity
  8
0
  6
ByLayer
 62
    7
370
   -1
100
AcDbPolyline
 90
   32
 70
    1
 43
0
 10
50.5134
 20
38.9138
 10
50.5134
 20
38.7426
 10
50.61420000000001
 20
38.2258
 10
50.8528
 20
37.7734
 10
50.9212
 20
37.6986
 10
50.98420000000002
 20
37.6258
 10
51.38339999999999
 20
37.3698
 10
51.85660000000001
 20
37.2602
 10
52.015
 20
37.2602
 10
52.1722
 20
37.2602
 10
52.6464
 20
37.3698
 10
53.05560000000001
 20
37.6258
 10
53.1216
 20
37.6986
 10
53.188
 20
37.7744
 10
53.42020000000001
 20
38.2302
 10
53.52120000000001
 20
38.7436
 10
53.52120000000001
 20
38.9138
 10
53.52120000000001
 20
39.0874
 10
53.42020000000001
 20
39.605
 10
53.188
 20
40.053
 10
53.1216
 20
40.1248
 10
53.05440000000002
 20
40.19860000000001
 10
52.64340000000001
 20
40.457
 10
52.1712
 20
40.5676
 10
52.015
 20
40.5676
 10
51.8578
 20
40.5676
 10
51.3866
 20
40.457
 10
50.98520000000002
 20
40.19860000000001
 10
50.9212
 20
40.1248
 10
50.8528
 20
40.053
 10
50.61420000000001
 20
39.60720000000001
 10
50.5134
 20
39.0874
  0
LWPOLYLINE
  5
85
100
AcDbEntity
  8
0
  6
ByLayer
 62
    7
370
   -1
100
AcDbPolyline
 90
   44
 70
    1
 43
0
 10
48.45580000000001
 20
32.742
 10
48.45580000000001
 20
42.208
 10
50.59140000000001
 20
42.208
 10
50.59140000000001
 20
41.1144
 10
50.66079999999999
 20
41.2208
 10
51.4898
 20
42.0412
 10
51.5852
 20
42.0998
 10
51.6752
 20
42.15280000000001
 10
52.5314
 20
42.41640000000001
 10
52.81800000000001
 20
42.41640000000001
 10
53.1294
 20
42.41640000000001
 10
53.97140000000002
 20
42.2256
 10
54.06360000000001
 20
42.1864
 10
54.1558
 20
42.1484
 10
54.962
 20
41.5658
 10
55.0314
 20
41.48740000000001
 10
55.1662
 20
41.3324
 10
55.6392
 20
40.37740000000001
 10
55.84300000000002
 20
39.2806
 10
55.84300000000002
 20
38.9138
 10
55.84300000000002
 20
38.558
 10
55.6392
 20
37.4902
 10
55.1662
 20
36.5322
 10
55.0314
 20
36.3706
 10
54.962
 20
36.288
 10
54.1764
 20
35.6738
 10
54.0898
 20
35.6324
 10
54.0016
 20
35.5924
 10
53.1716
 20
35.3894
 10
52.89620000000001
 20
35.3894
 10
52.70500000000001
 20
35.3894
 10
52.13340000000001
 20
35.4678
 10
51.62
 20
35.6466
 10
51.53340000000001
 20
35.6978
 10
51.44980000000001
 20
35.7474
 10
50.67619999999999
 20
36.5938
 10
50.6044
 20
36.7134
 10
50.60860000000001
 20
36.6872
 10
50.65220000000001
 20
36.2858
 10
50.6564
 20
36.2316
 10
50.65860000000001
 20
36.2012
 10
50.66940000000001
 20
35.7064
 10
50.66940000000001
 20
35.5414
 10
50.66940000000001
 20
32.742
  0
LWPOLYLINE
  5
86
100
AcDbEntity
  8
0
  6
ByLayer
 62
    7
370
   -1
100
AcDbPolyline
 90
   13
 70
    1
 43
0
 10
61.77640000000001
 20
39.782
 10
61.76520000000001
 20
39.873
 10
61.41160000000001
 20
40.6152
 10
61.35080000000001
 20
40.67160000000001
 10
61.29020000000001
 20
40.7302
 10
60.66840000000001
 20
41.01880000000001
 10
60.46120000000001
 20
41.01880000000001
 10
60.23660000000001
 20
41.01880000000001
 10
59.61919999999999
 20
40.7628
 10
59.5628
 20
40.71080000000001
 10
59.50200000000001
 20
40.6542
 10
59.1264
 20
39.8794
 10
59.1114
 20
39.782
  0
LWPOLYLINE
  5
87
100
AcDbEntity
  8
0
  6
ByLayer
 62
    7
370
   -1
100
AcDbPolyline
 90
   51
 70
    1
 43
0
 10
64.05920000000002
 20
38.4712
 10
59.0592
 20
38.4712
 10
59.0626
 20
38.343
 10
59.16560000000001
 20
37.7942
 10
59.38480000000001
 20
37.3666
 10
59.4456
 20
37.2992
 10
59.50839999999999
 20
37.2298
 10
59.90780000000001
 20
36.9866
 10
60.38080000000002
 20
36.8824
 10
60.53919999999999
 20
36.8824
 10
60.7616
 20
36.8824
 10
61.36720000000001
 20
37.053
 10
61.42920000000001
 20
37.0866
 10
61.49200000000002
 20
37.1226
 10
61.9478
 20
37.6106
 10
61.97580000000001
 20
37.6726
 10
63.72080000000001
 20
36.9694
 10
63.66980000000001
 20
36.84480000000001
 10
63.2912
 20
36.3042
 10
62.7474
 20
35.87880000000001
 10
62.61380000000003
 20
35.8106
 10
62.48160000000001
 20
35.74120000000001
 10
61.72980000000001
 20
35.4958
 10
60.9342
 20
35.3894
 10
60.66940000000001
 20
35.3894
 10
60.28219999999999
 20
35.3894
 10
59.12
 20
35.63140000000001
 10
58.08280000000001
 20
36.197
 10
57.9092
 20
36.35740000000001
 10
57.73560000000001
 20
36.5136
 10
57.13
 20
37.4522
 10
56.8716
 20
38.5102
 10
56.8716
 20
38.8616
 10
56.8716
 20
39.2134
 10
57.13
 20
40.268
 10
57.73560000000001
 20
41.2512
 10
57.9092
 20
41.4226
 10
58.0806
 20
41.5908
 10
59.08200000000001
 20
42.1778
 10
60.1748
 20
42.4294
 10
60.53919999999999
 20
42.4294
 10
60.90280000000001
 20
42.4294
 10
61.9944
 20
42.1744
 10
62.95139999999999
 20
41.58000000000001
 10
63.10860000000001
 20
41.4094
 10
63.1888
 20
41.3216
 10
63.78579999999999
 20
40.29840000000001
 10
63.825
 20
40.1812
 10
63.86380000000003
 20
40.065
 10
64.05920000000002
 20
38.95500000000001
 10
64.05920000000002
 20
38.5838
  0
LWPOLYLINE
  5
88
100
AcDbEntity
  8
0
  6
ByLayer
 62
    7
370
   -1
100
AcDbPolyline
 90
   32
 70
    1
 43
0
 10
70.05520000000001
 20
38.9138
 10
70.05520000000001
 20
39.0788
 10
69.96199999999999
 20
39.5724
 10
69.74720000000001
 20
40.0034
 10
69.68640000000001
 20
40.0728
 10
69.62139999999999
 20
40.1444
 10
69.24160000000002
 20
40.3916
 10
68.82280000000002
 20
40.498
 10
68.68380000000001
 20
40.498
 10
68.5406
 20
40.498
 10
68.11420000000001
 20
40.3916
 10
67.74200000000002
 20
40.1444
 10
67.68119999999999
 20
40.0728
 10
67.61840000000001
 20
40.00560000000001
 10
67.4002
 20
39.5788
 10
67.30799999999999
 20
39.0808
 10
67.30799999999999
 20
38.9138
 10
67.30799999999999
 20
38.7512
 10
67.39699999999999
 20
38.2628
 10
67.60740000000001
 20
37.8374
 10
67.66800000000001
 20
37.768
 10
67.73339999999999
 20
37.6964
 10
68.1174
 20
37.44580000000001
 10
68.5416
 20
37.3384
 10
68.68380000000001
 20
37.3384
 10
68.825
 20
37.3384
 10
69.25020000000001
 20
37.44580000000001
 10
69.63440000000001
 20
37.6964
 10
69.6994
 20
37.768
 10
69.758
 20
37.8398
 10
69.96520000000001
 20
38.2694
 10
70.05520000000001
 20
38.7534
  0
LWPOLYLINE
  5
89
100
AcDbEntity
  8
0
  6
ByLayer
 62
    7
370
   -1
100
AcDbPolyline
 90
   48
 70
    1
 43
0
 10
72.36000000000001
 20
38.9138
 10
72.36000000000001
 20
38.5774
 10
72.12780000000001
 20
37.6726
 10
72.08220000000001
 20
37.5684
 10
72.03219999999999
 20
37.4578
 10
71.36380000000003
 20
36.5028
 10
71.2792
 20
36.4226
 10
71.18380000000001
 20
36.3336
 10
70.19640000000003
 20
35.687
 10
70.09440000000001
 20
35.6456
 10
69.988
 20
35.6034
 10
69.00940000000001
 20
35.3894
 10
68.68380000000001
 20
35.3894
 10
68.33
 20
35.3894
 10
67.3742
 20
35.6034
 10
67.2688
 20
35.6456
 10
67.16140000000001
 20
35.68880000000001
 10
66.17079999999999
 20
36.3324
 10
66.07980000000001
 20
36.418
 10
65.98860000000001
 20
36.505
 10
65.3374
 20
37.463
 10
65.2984
 20
37.5684
 10
65.25060000000002
 20
37.6692
 10
65.0164
 20
38.6036
 10
65.0164
 20
38.9138
 10
65.0164
 20
39.2544
 10
65.25060000000002
 20
40.17019999999999
 10
65.2984
 20
40.2766
 10
65.3416
 20
40.38420000000001
 10
65.9962
 20
41.33880000000001
 10
66.0838
 20
41.4226
 10
66.16980000000001
 20
41.505
 10
67.15719999999999
 20
42.1386
 10
67.2688
 20
42.18200000000001
 10
67.37520000000001
 20
42.2234
 10
68.35620000000002
 20
42.4294
 10
68.68380000000001
 20
42.4294
 10
69.03640000000001
 20
42.4294
 10
69.98699999999999
 20
42.2234
 10
70.09440000000001
 20
42.18200000000001
 10
70.2062
 20
42.1386
 10
71.19360000000002
 20
41.505
 10
71.2792
 20
41.4226
 10
71.3694
 20
41.34120000000001
 10
72.03879999999999
 20
40.3864
 10
72.08220000000001
 20
40.2766
 10
72.12780000000001
 20
40.17019999999999
 10
72.36000000000001
 20
39.2286
  0
LWPOLYLINE
  5
8A
100
AcDbEntity
  8
0
  6
ByLayer
 62
    7
370
   -1
100
AcDbPolyline
 90
   32
 70
    1
 43
0
 10
75.7672
 20
38.9138
 10
75.7672
 20
38.7426
 10
75.86800000000001
 20
38.2258
 10
76.10660000000001
 20
37.7734
 10
76.17500000000001
 20
37.6986
 10
76.238
 20
37.6258
 10
76.63740000000001
 20
37.3698
 10
77.11060000000001
 20
37.2602
 10
77.2688
 20
37.2602
 10
77.42619999999999
 20
37.2602
 10
77.9002
 20
37.3698
 10
78.30940000000001
 20
37.6258
 10
78.37560000000002
 20
37.6986
 10
78.44200000000001
 20
37.7744
 10
78.6742
 20
38.2302
 10
78.77500000000001
 20
38.7436
 10
78.77500000000001
 20
38.9138
 10
78.77500000000001
 20
39.0874
 10
78.6742
 20
39.605
 10
78.44200000000001
 20
40.053
 10
78.37560000000002
 20
40.1248
 10
78.30840000000001
 20
40.19860000000001
 10
77.8972
 20
40.457
 10
77.42500000000001
 20
40.5676
 10
77.2688
 20
40.5676
 10
77.11160000000001
 20
40.5676
 10
76.64060000000001
 20
40.457
 10
76.23920000000001
 20
40.19860000000001
 10
76.17500000000001
 20
40.1248
 10
76.10660000000001
 20
40.053
 10
75.86800000000001
 20
39.60720000000001
 10
75.7672
 20
39.0874
  0
LWPOLYLINE
  5
8B
100
AcDbEntity
  8
0
  6
ByLayer
 62
    7
370
   -1
100
AcDbPolyline
 90
   44
 70
    1
 43
0
 10
73.7098
 20
32.742
 10
73.7098
 20
42.208
 10
75.84520000000001
 20
42.208
 10
75.84520000000001
 20
41.1144
 10
75.91480000000001
 20
41.2208
 10
76.7436
 20
42.0412
 10
76.83920000000001
 20
42.0998
 10
76.92920000000002
 20
42.15280000000001
 10
77.78520000000002
 20
42.41640000000001
 10
78.072
 20
42.41640000000001
 10
78.38340000000001
 20
42.41640000000001
 10
79.2252
 20
42.2256
 10
79.31760000000003
 20
42.1864
 10
79.4098
 20
42.1484
 10
80.2158
 20
41.5658
 10
80.28520000000002
 20
41.48740000000001
 10
80.42000000000002
 20
41.3324
 10
80.89300000000001
 20
40.37740000000001
 10
81.09700000000001
 20
39.2806
 10
81.09700000000001
 20
38.9138
 10
81.09700000000001
 20
38.558
 10
80.89300000000001
 20
37.4902
 10
80.42000000000002
 20
36.5322
 10
80.28520000000002
 20
36.3706
 10
80.2158
 20
36.288
 10
79.43020000000001
 20
35.6738
 10
79.3436
 20
35.6324
 10
79.25560000000002
 20
35.5924
 10
78.42560000000002
 20
35.3894
 10
78.15000000000001
 20
35.3894
 10
77.9588
 20
35.3894
 10
77.38720000000001
 20
35.4678
 10
76.87379999999999
 20
35.6466
 10
76.78720000000001
 20
35.6978
 10
76.70360000000001
 20
35.7474
 10
75.93000000000001
 20
36.5938
 10
75.85839999999999
 20
36.7134
 10
75.8626
 20
36.6872
 10
75.9062
 20
36.2858
 10
75.91020000000002
 20
36.2316
 10
75.9126
 20
36.2012
 10
75.9234
 20
35.7064
 10
75.9234
 20
35.5414
 10
75.9234
 20
32.742
  0
LWPOLYLINE
  5
8C
100
AcDbEntity
  8
0
  6
ByLayer
 62
    7
370
   -1
100
AcDbPolyline
 90
    4
 70
    1
 43
0
 10
82.5638
 20
45.73660000000001
 10
84.88619999999999
 20
45.73660000000001
 10
84.88619999999999
 20
35.6456
 10
82.5638
 20
35.6456
  0
LWPOLYLINE
  5
8D
100
AcDbEntity
  8
0
  6
ByLayer
 62
    7
370
   -1
100
AcDbPolyline
 90
   13
 70
    1
 43
0
 10
91.1902
 20
39.782
 10
91.17940000000002
 20
39.873
 10
90.82580000000002
 20
40.6152
 10
90.76499999999999
 20
40.67160000000001
 10
90.70420000000001
 20
40.7302
 10
90.08260000000001
 20
41.01880000000001
 10
89.87520000000001
 20
41.01880000000001
 10
89.6506
 20
41.01880000000001
 10
89.0334
 20
40.7628
 10
88.97660000000002
 20
40.71080000000001
 10
88.9162
 20
40.6542
 10
88.54060000000001
 20
39.8794
 10
88.52520000000001
 20
39.782
  0
LWPOLYLINE
  5
8E
100
AcDbEntity
  8
0
  6
ByLayer
 62
    7
370
   -1
100
AcDbPolyline
 90
   51
 70
    1
 43
0
 10
93.47340000000003
 20
38.4712
 10
88.47340000000003
 20
38.4712
 10
88.47659999999999
 20
38.343
 10
88.57980000000001
 20
37.7942
 10
88.7988
 20
37.3666
 10
88.85980000000001
 20
37.2992
 10
88.92260000000002
 20
37.2298
 10
89.322
 20
36.9866
 10
89.79500000000002
 20
36.8824
 10
89.95340000000002
 20
36.8824
 10
90.17580000000001
 20
36.8824
 10
90.78139999999999
 20
37.053
 10
90.84300000000002
 20
37.0866
 10
90.90619999999998
 20
37.1226
 10
91.36160000000001
 20
37.6106
 10
91.38999999999999
 20
37.6726
 10
93.13480000000001
 20
36.9694
 10
93.0838
 20
36.84480000000001
 10
92.70500000000001
 20
36.3042
 10
92.16140000000001
 20
35.87880000000001
 10
92.02799999999999
 20
35.8106
 10
91.89560000000003
 20
35.74120000000001
 10
91.14359999999999
 20
35.4958
 10
90.34840000000003
 20
35.3894
 10
90.08360000000002
 20
35.3894
 10
89.6962
 20
35.3894
 10
88.53420000000003
 20
35.63140000000001
 10
87.49660000000002
 20
36.197
 10
87.32300000000001
 20
36.35740000000001
 10
87.14940000000001
 20
36.5136
 10
86.5442
 20
37.4522
 10
86.28579999999999
 20
38.5102
 10
86.28579999999999
 20
38.8616
 10
86.28579999999999
 20
39.2134
 10
86.5442
 20
40.268
 10
87.14940000000001
 20
41.2512
 10
87.32300000000001
 20
41.4226
 10
87.4944
 20
41.5908
 10
88.49620000000002
 20
42.1778
 10
89.58880000000002
 20
42.4294
 10
89.95340000000002
 20
42.4294
 10
90.31700000000001
 20
42.4294
 10
91.4084
 20
42.1744
 10
92.36560000000003
 20
41.58000000000001
 10
92.52280000000002
 20
41.4094
 10
92.60300000000004
 20
41.3216
 10
93.20000000000002
 20
40.29840000000001
 10
93.23880000000003
 20
40.1812
 10
93.27799999999999
 20
40.065
 10
93.47340000000003
 20
38.95500000000001
 10
93.47340000000003
 20
38.5838
  0
LWPOLYLINE
  5
8F
100
AcDbEntity
  8
0
  6
ByLayer
 62
    7
370
   -1
100
AcDbPolyline
 90
   24
 70
    1
 43
0
 10
59.54300000000001
 20
28.1414
 10
59.54300000000001
 20
28.2856
 10
59.38700000000001
 20
28.68380000000001
 10
59.35660000000001
 20
28.7186
 10
59.32380000000001
 20
28.7544
 10
58.97360000000002
 20
28.9312
 10
58.85740000000001
 20
28.9312
 10
58.73160000000001
 20
28.9312
 10
58.38440000000001
 20
28.7544
 10
58.35380000000001
 20
28.7186
 10
58.3236
 20
28.685
 10
58.1716
 20
28.278
 10
58.1716
 20
28.1414
 10
58.1716
 20
27.998
 10
58.31920000000001
 20
27.603
 10
58.3498
 20
27.5684
 10
58.38220000000001
 20
27.5326
 10
58.738
 20
27.3514
 10
58.85740000000001
 20
27.3514
 10
58.98440000000001
 20
27.3514
 10
59.33280000000001
 20
27.5326
 10
59.3652
 20
27.5684
 10
59.3944
 20
27.6042
 10
59.54300000000001
 20
28.0078
  0
LWPOLYLINE
  5
90
100
AcDbEntity
  8
0
  6
ByLayer
 62
    7
370
   -1
100
AcDbPolyline
 90
   48
 70
    1
 43
0
 10
60.6978
 20
28.1414
 10
60.6978
 20
27.972
 10
60.57840000000002
 20
27.5162
 10
60.55440000000002
 20
27.4642
 10
60.53060000000001
 20
27.41
 10
60.19760000000001
 20
26.9326
 10
60.15520000000001
 20
26.8912
 10
60.10740000000001
 20
26.8478
 10
59.6148
 20
26.5256
 10
59.565
 20
26.505
 10
59.51060000000001
 20
26.4844
 10
59.0202
 20
26.3792
 10
58.85740000000001
 20
26.3792
 10
58.68060000000001
 20
26.3792
 10
58.202
 20
26.4844
 10
58.15000000000001
 20
26.505
 10
58.09580000000001
 20
26.5266
 10
57.60080000000001
 20
26.8478
 10
57.55520000000001
 20
26.8912
 10
57.50980000000001
 20
26.9346
 10
57.1842
 20
27.4122
 10
57.16480000000001
 20
27.4642
 10
57.1408
 20
27.51520000000001
 10
57.0258
 20
27.985
 10
57.0258
 20
28.1414
 10
57.0258
 20
28.3106
 10
57.1408
 20
28.7664
 10
57.16480000000001
 20
28.8184
 10
57.18640000000001
 20
28.8726
 10
57.51519999999999
 20
29.35
 10
57.5598
 20
29.3914
 10
57.602
 20
29.4326
 10
58.09360000000001
 20
29.7514
 10
58.15000000000001
 20
29.7734
 10
58.203
 20
29.795
 10
58.6936
 20
29.8992
 10
58.85740000000001
 20
29.8992
 10
59.03420000000001
 20
29.8992
 10
59.51060000000001
 20
29.795
 10
59.565
 20
29.7734
 10
59.62020000000001
 20
29.7514
 10
60.11160000000001
 20
29.4326
 10
60.15520000000001
 20
29.3914
 10
60.19980000000001
 20
29.3512
 10
60.53280000000001
 20
28.8736
 10
60.55440000000002
 20
28.8184
 10
60.57840000000002
 20
28.7664
 10
60.6978
 20
28.2976
  0
LWPOLYLINE
  5
91
100
AcDbEntity
  8
0
  6
ByLayer
 62
    7
370
   -1
100
AcDbPolyline
 90
   33
 70
    1
 43
0
 10
61.37060000000001
 20
26.505
 10
61.37060000000001
 20
29.795
 10
62.46420000000001
 20
29.795
 10
62.46420000000001
 20
29.018
 10
62.4924
 20
29.0898
 10
62.87639999999999
 20
29.617
 10
62.9242
 20
29.6516
 10
62.97300000000001
 20
29.6876
 10
63.47000000000001
 20
29.8644
 10
63.63619999999999
 20
29.8644
 10
63.67079999999999
 20
29.8644
 10
63.76740000000001
 20
29.8612
 10
63.77500000000001
 20
29.86
 10
63.78019999999999
 20
29.86
 10
63.8348
 20
29.8526
 10
63.84000000000002
 20
29.8514
 10
63.85860000000001
 20
29.8514
 10
63.90639999999999
 20
29.848
 10
63.91379999999999
 20
29.847
 10
63.80520000000001
 20
28.7922
 10
63.7848
 20
28.7988
 10
63.61120000000001
 20
28.84220000000001
 10
63.59700000000001
 20
28.8444
 10
63.5752
 20
28.8466
 10
63.44839999999999
 20
28.8576
 10
63.4062
 20
28.8576
 10
63.24220000000001
 20
28.8576
 10
62.7886
 20
28.6402
 10
62.75060000000002
 20
28.597
 10
62.7116
 20
28.5548
 10
62.52060000000002
 20
28.0402
 10
62.52060000000002
 20
27.8678
 10
62.52060000000002
 20
26.505
  0
LWPOLYLINE
  5
92
100
AcDbEntity
  8
0
  6
ByLayer
 62
    7
370
   -1
100
AcDbPolyline
 90
   50
 70
    1
 43
0
 10
20.4612
 20
13.64584
 10
13.18260000000001
 20
13.64584
 10
17.4578
 20
18.71094
 10
17.52720000000001
 20
18.79558
 10
18.0044
 20
19.49652
 10
18.03060000000001
 20
19.55294
 10
18.062
 20
19.61806
 10
18.2216
 20
20.09
 10
18.2216
 20
20.2474
 10
18.2216
 20
20.4546
 10
17.9644
 20
21.0222
 10
17.9134
 20
21.0764
 10
17.85700000000001
 20
21.1274
 10
17.2712
 20
21.3802
 10
17.07580000000001
 20
21.3802
 10
16.94
 20
21.3802
 10
16.53520000000001
 20
21.2826
 10
16.1958
 20
21.0546
 10
16.14259999999999
 20
20.9896
 10
16.0862
 20
20.9244
 10
15.88860000000001
 20
20.5088
 10
15.80420000000001
 20
20.0206
 10
15.80420000000001
 20
19.85678
 10
15.80420000000001
 20
19.73958
 10
13.5126
 20
19.73958
 10
13.5126
 20
19.8047
 10
13.5126
 20
20.166
 10
13.75
 20
21.2468
 10
14.3044
 20
22.1962
 10
14.46279999999999
 20
22.3524
 10
14.61800000000001
 20
22.5086
 10
15.575
 20
23.0556
 10
16.6808
 20
23.29
 10
17.0498
 20
23.29
 10
17.4078
 20
23.29
 10
18.4852
 20
23.0826
 10
19.4358
 20
22.5998
 10
19.593
 20
22.461
 10
19.7524
 20
22.3242
 10
20.31139999999999
 20
21.5006
 10
20.55220000000001
 20
20.5708
 10
20.55220000000001
 20
20.2604
 10
20.55220000000001
 20
19.9338
 10
20.2952
 20
19.0625
 10
20.24420000000001
 20
18.954
 10
20.19300000000001
 20
18.84658
 10
19.3762
 20
17.6888
 10
19.2634
 20
17.56512
 10
17.5444
 20
15.67276
 10
20.4612
 20
15.67276
  0
LWPOLYLINE
  5
93
100
AcDbEntity
  8
0
  6
ByLayer
 62
    7
370
   -1
100
AcDbPolyline
 90
   32
 70
    1
 43
0
 10
25.435
 20
18.20314
 10
25.2842
 20
18.20314
 10
24.83380000000001
 20
18.10764
 10
24.44340000000001
 20
17.8852
 10
24.3806
 20
17.8212
 10
24.3152
 20
17.75392
 10
24.0898
 20
17.34916
 10
23.99420000000001
 20
16.89344
 10
23.99420000000001
 20
16.74044
 10
23.99420000000001
 20
16.59072
 10
24.0898
 20
16.1415
 10
24.3152
 20
15.74002
 10
24.3806
 20
15.67276
 10
24.44340000000001
 20
15.60872
 10
24.83380000000001
 20
15.38302
 10
25.2842
 20
15.28648
 10
25.435
 20
15.28648
 10
25.5838
 20
15.28648
 10
26.03200000000001
 20
15.38302
 10
26.4248
 20
15.60872
 10
26.4898
 20
15.67276
 10
26.5528
 20
15.74002
 10
26.77520000000001
 20
16.1415
 10
26.8716
 20
16.59072
 10
26.8716
 20
16.74044
 10
26.8716
 20
16.89344
 10
26.77520000000001
 20
17.34916
 10
26.5528
 20
17.75392
 10
26.4898
 20
17.8212
 10
26.4248
 20
17.8852
 10
26.03200000000001
 20
18.10764
 10
25.5838
 20
18.20314
  0
LWPOLYLINE
  5
94
100
AcDbEntity
  8
0
  6
ByLayer
 62
    7
370
   -1
100
AcDbPolyline
 90
   45
 70
    1
 43
0
 10
25.318
 20
19.72656
 10
25.36139999999999
 20
19.73958
 10
25.7552
 20
19.82638
 10
25.79119999999999
 20
19.83072
 10
25.83120000000001
 20
19.83726
 10
26.1914
 20
19.8698
 10
26.312
 20
19.8698
 10
26.5908
 20
19.8698
 10
27.42720000000001
 20
19.65712
 10
28.1848
 20
19.16124
 10
28.3128
 20
19.01912
 10
28.44500000000001
 20
18.87586
 10
28.9106
 20
18.05014
 10
29.11139999999999
 20
17.15928
 10
29.11139999999999
 20
16.86198
 10
29.11139999999999
 20
16.50716
 10
28.86499999999999
 20
15.44272
 10
28.29299999999999
 20
14.49436
 10
28.1306
 20
14.33594
 10
27.96120000000001
 20
14.17862
 10
26.9552
 20
13.6263
 10
25.8344
 20
13.38974
 10
25.46120000000001
 20
13.38974
 10
25.087
 20
13.38974
 10
23.967
 20
13.62306
 10
22.9838
 20
14.16774
 10
22.8222
 20
14.32292
 10
22.77140000000001
 20
14.37066
 10
22.32640000000001
 20
14.9425
 10
22.2884
 20
15.0087
 10
22.2506
 20
15.07594
 10
21.9716
 20
15.78558
 10
21.95420000000001
 20
15.85938
 10
21.9358
 20
15.93534
 10
21.84580000000001
 20
16.62108
 10
21.84580000000001
 20
16.84898
 10
21.84580000000001
 20
17.26888
 10
22.1236
 20
18.38976
 10
22.18
 20
18.52864
 10
22.23200000000001
 20
18.67188
 10
22.68
 20
19.58008
 10
23.3756
 20
20.7508
 10
23.5514
 20
21.0244
 10
24.8884
 20
23.086
 10
27.5444
 20
23.086
  0
LWPOLYLINE
  5
95
100
AcDbEntity
  8
0
  6
ByLayer
 62
    7
370
   -1
100
AcDbPolyline
 90
   24
 70
    1
 43
0
 10
33.7556
 20
19.51388
 10
33.9616
 20
19.51388
 10
34.5314
 20
19.75694
 10
34.58000000000001
 20
19.8047
 10
34.63120000000001
 20
19.85678
 10
34.8884
 20
20.42
 10
34.8884
 20
20.60760000000001
 10
34.8884
 20
20.8074
 10
34.642
 20
21.3586
 10
34.593
 20
21.4062
 10
34.54299999999999
 20
21.454
 10
33.952
 20
21.6884
 10
33.7556
 20
21.6884
 10
33.548
 20
21.6884
 10
32.9764
 20
21.454
 10
32.9264
 20
21.4062
 10
32.8776
 20
21.3586
 10
32.6356
 20
20.7954
 10
32.6356
 20
20.60760000000001
 10
32.6356
 20
20.4068
 10
32.8884
 20
19.85678
 10
32.93940000000001
 20
19.8047
 10
32.9884
 20
19.75694
 10
33.5634
 20
19.51388
  0
LWPOLYLINE
  5
96
100
AcDbEntity
  8
0
  6
ByLayer
 62
    7
370
   -1
100
AcDbPolyline
 90
   32
 70
    1
 43
0
 10
33.7556
 20
15.29948
 10
33.8944
 20
15.29948
 10
34.3112
 20
15.38302
 10
34.66700000000002
 20
15.57834
 10
34.72340000000001
 20
15.6337
 10
34.78200000000001
 20
15.69228
 10
34.98700000000001
 20
16.04384
 10
35.075
 20
16.43988
 10
35.075
 20
16.5712
 10
35.075
 20
16.69922
 10
34.98700000000001
 20
17.08226
 10
34.78200000000001
 20
17.42838
 10
34.72340000000001
 20
17.48698
 10
34.66700000000002
 20
17.54342
 10
34.3112
 20
17.73764
 10
33.8944
 20
17.8212
 10
33.7556
 20
17.8212
 10
33.61760000000001
 20
17.8212
 10
33.2042
 20
17.73764
 10
32.8528
 20
17.54342
 10
32.7962
 20
17.48698
 10
32.7376
 20
17.42838
 10
32.5326
 20
17.08226
 10
32.4448
 20
16.69922
 10
32.4448
 20
16.5712
 10
32.4448
 20
16.44098
 10
32.53580000000001
 20
16.04926
 10
32.7486
 20
15.70422
 10
32.8092
 20
15.6467
 10
32.8648
 20
15.5892
 10
33.212
 20
15.38628
 10
33.6186
 20
15.29948
  0
LWPOLYLINE
  5
97
100
AcDbEntity
  8
0
  6
ByLayer
 62
    7
370
   -1
100
AcDbPolyline
 90
   64
 70
    1
 43
0
 10
35.435
 20
18.73698
 10
35.59140000000001
 20
18.70878
 10
36.2642
 20
18.44728
 10
36.78919999999999
 20
18.0317
 10
36.8716
 20
17.92536
 10
36.9586
 20
17.81576
 10
37.26240000000001
 20
17.18208
 10
37.3926
 20
16.49956
 10
37.3926
 20
16.2717
 10
37.3926
 20
15.97006
 10
37.1516
 20
15.06512
 10
36.5928
 20
14.2817
 10
36.43340000000001
 20
14.15364
 10
36.2728
 20
14.0267
 10
35.28340000000001
 20
13.5818
 10
34.1374
 20
13.38974
 10
33.7556
 20
13.38974
 10
33.37560000000001
 20
13.38974
 10
32.23639999999999
 20
13.5818
 10
31.2466
 20
14.0267
 10
31.08620000000001
 20
14.15364
 10
30.9256
 20
14.2817
 10
30.3656
 20
15.06512
 10
30.127
 20
15.97006
 10
30.127
 20
16.2717
 10
30.127
 20
16.49956
 10
30.2572
 20
17.18208
 10
30.5612
 20
17.81576
 10
30.6478
 20
17.92536
 10
30.7302
 20
18.0317
 10
31.2544
 20
18.44728
 10
31.9302
 20
18.70878
 10
32.08879999999999
 20
18.73698
 10
31.96500000000002
 20
18.76736
 10
31.428
 20
19.00284
 10
30.99940000000001
 20
19.35006
 10
30.92999999999999
 20
19.43578
 10
30.86060000000001
 20
19.51822
 10
30.6176
 20
19.99892
 10
30.5134
 20
20.524
 10
30.5134
 20
20.6988
 10
30.5134
 20
20.97
 10
30.7248
 20
21.7838
 10
31.22160000000001
 20
22.4804
 10
31.36380000000001
 20
22.5912
 10
31.5072
 20
22.7062
 10
32.39020000000001
 20
23.1054
 10
33.4136
 20
23.277
 10
33.7556
 20
23.277
 10
34.0972
 20
23.277
 10
35.12480000000001
 20
23.1054
 10
36.0124
 20
22.7062
 10
36.15560000000001
 20
22.5912
 10
36.29780000000001
 20
22.4804
 10
36.7958
 20
21.7838
 10
37.01060000000001
 20
20.97
 10
37.01060000000001
 20
20.6988
 10
37.01060000000001
 20
20.524
 10
36.9064
 20
19.99892
 10
36.66340000000001
 20
19.51822
 10
36.5938
 20
19.43578
 10
36.5244
 20
19.35006
 10
36.0958
 20
19.00284
 10
35.55880000000001
 20
18.76736
  0
LWPOLYLINE
  5
98
100
AcDbEntity
  8
0
  6
ByLayer
 62
    7
370
   -1
100
AcDbPolyline
 90
   16
 70
    1
 43
0
 10
42.62260000000001
 20
17.64322
 10
42.62260000000001
 20
20.4166
 10
42.62260000000001
 20
20.5816
 10
42.64440000000002
 20
21.0178
 10
42.64860000000002
 20
21.0764
 10
42.64860000000002
 20
21.1848
 10
42.6812
 20
21.4822
 10
42.6878
 20
21.5104
 10
42.6662
 20
21.4604
 10
42.43060000000001
 20
20.994
 10
42.40560000000001
 20
20.9506
 10
42.39800000000001
 20
20.9376
 10
42.29060000000001
 20
20.7498
 10
42.0908
 20
20.4058
 10
42.03660000000001
 20
20.3126
 10
40.28340000000001
 20
17.64322
  0
LWPOLYLINE
  5
99
100
AcDbEntity
  8
0
  6
ByLayer
 62
    7
370
   -1
100
AcDbPolyline
 90
   11
 70
    1
 43
0
 10
42.62260000000001
 20
13.64584
 10
42.62260000000001
 20
15.78126
 10
38.28660000000001
 20
15.78126
 10
38.28660000000001
 20
17.64322
 10
41.83280000000001
 20
23.125
 10
44.7972
 20
23.125
 10
44.7972
 20
17.64322
 10
45.8516
 20
17.64322
 10
45.8516
 20
15.76822
 10
44.7972
 20
15.78126
 10
44.7972
 20
13.64584
  0
LWPOLYLINE
  5
9A
100
AcDbEntity
  8
0
  6
ByLayer
 62
    7
370
   -1
100
AcDbPolyline
 90
   30
 70
    1
 43
0
 10
47.03660000000001
 20
14.71356
 10
47.03660000000001
 20
14.84266
 10
47.12780000000001
 20
15.22678
 10
47.3438
 20
15.58486
 10
47.40560000000001
 20
15.6467
 10
47.46860000000001
 20
15.70964
 10
47.8266
 20
15.92992
 10
48.21080000000001
 20
16.0243
 10
48.33880000000001
 20
16.0243
 10
48.46880000000002
 20
16.0243
 10
48.86279999999999
 20
15.92992
 10
49.2264
 20
15.70964
 10
49.28919999999999
 20
15.6467
 10
49.35000000000001
 20
15.58486
 10
49.565
 20
15.22678
 10
49.65840000000001
 20
14.84266
 10
49.65840000000001
 20
14.71356
 10
49.65840000000001
 20
14.58442
 10
49.565
 20
14.19706
 10
49.35000000000001
 20
13.83898
 10
49.28919999999999
 20
13.77606
 10
49.22200000000001
 20
13.71202
 10
48.5592
 20
13.38974
 10
48.33880000000001
 20
13.38974
 10
48.10560000000001
 20
13.38974
 10
47.4716
 20
13.71202
 10
47.40560000000001
 20
13.77606
 10
47.3438
 20
13.83898
 10
47.12780000000001
 20
14.19706
 10
47.03660000000001
 20
14.58442
  0
LWPOLYLINE
  5
9B
100
AcDbEntity
  8
0
  6
ByLayer
 62
    7
370
   -1
100
AcDbPolyline
 90
   50
 70
    1
 43
0
 10
57.95480000000001
 20
13.64584
 10
50.67619999999999
 20
13.64584
 10
54.9512
 20
18.71094
 10
55.0206
 20
18.79558
 10
55.49799999999999
 20
19.49652
 10
55.52420000000001
 20
19.55294
 10
55.55560000000001
 20
19.61806
 10
55.71500000000002
 20
20.09
 10
55.71500000000002
 20
20.2474
 10
55.71500000000002
 20
20.4546
 10
55.45780000000002
 20
21.0222
 10
55.407
 20
21.0764
 10
55.3506
 20
21.1274
 10
54.76440000000001
 20
21.3802
 10
54.56920000000001
 20
21.3802
 10
54.43360000000001
 20
21.3802
 10
54.0288
 20
21.2826
 10
53.6892
 20
21.0546
 10
53.6362
 20
20.9896
 10
53.57980000000001
 20
20.9244
 10
53.38220000000001
 20
20.5088
 10
53.2976
 20
20.0206
 10
53.2976
 20
19.85678
 10
53.2976
 20
19.73958
 10
51.00580000000002
 20
19.73958
 10
51.00580000000002
 20
19.8047
 10
51.00580000000002
 20
20.166
 10
51.2436
 20
21.2468
 10
51.798
 20
22.1962
 10
51.9564
 20
22.3524
 10
52.11160000000001
 20
22.5086
 10
53.0686
 20
23.0556
 10
54.1742
 20
23.29
 10
54.54300000000001
 20
23.29
 10
54.90140000000001
 20
23.29
 10
55.97860000000001
 20
23.0826
 10
56.92920000000002
 20
22.5998
 10
57.0866
 20
22.461
 10
57.2462
 20
22.3242
 10
57.80500000000001
 20
21.5006
 10
58.0458
 20
20.5708
 10
58.0458
 20
20.2604
 10
58.0458
 20
19.9338
 10
57.7886
 20
19.0625
 10
57.7376
 20
18.954
 10
57.68660000000001
 20
18.84658
 10
56.8694
 20
17.6888
 10
56.75660000000001
 20
17.56512
 10
55.03800000000001
 20
15.67276
 10
57.95480000000001
 20
15.67276
  0
LWPOLYLINE
  5
9C
100
AcDbEntity
  8
0
  6
ByLayer
 62
    7
370
   -1
100
AcDbPolyline
 90
   24
 70
    1
 43
0
 10
62.9156
 20
19.51388
 10
63.12160000000002
 20
19.51388
 10
63.6914
 20
19.75694
 10
63.74020000000002
 20
19.8047
 10
63.7912
 20
19.85678
 10
64.0484
 20
20.42
 10
64.0484
 20
20.60760000000001
 10
64.0484
 20
20.8074
 10
63.8022
 20
21.3586
 10
63.7534
 20
21.4062
 10
63.70340000000002
 20
21.454
 10
63.11199999999999
 20
21.6884
 10
62.9156
 20
21.6884
 10
62.70840000000001
 20
21.6884
 10
62.13640000000001
 20
21.454
 10
62.0866
 20
21.4062
 10
62.0378
 20
21.3586
 10
61.7958
 20
20.7954
 10
61.7958
 20
20.60760000000001
 10
61.7958
 20
20.4068
 10
62.04860000000001
 20
19.85678
 10
62.0998
 20
19.8047
 10
62.14840000000001
 20
19.75694
 10
62.72360000000002
 20
19.51388
  0
LWPOLYLINE
  5
9D
100
AcDbEntity
  8
0
  6
ByLayer
 62
    7
370
   -1
100
AcDbPolyline
 90
   32
 70
    1
 43
0
 10
62.9156
 20
15.29948
 10
63.05440000000002
 20
15.29948
 10
63.47120000000001
 20
15.38302
 10
63.827
 20
15.57834
 10
63.88339999999999
 20
15.6337
 10
63.94200000000001
 20
15.69228
 10
64.1472
 20
16.04384
 10
64.23500000000001
 20
16.43988
 10
64.23500000000001
 20
16.5712
 10
64.23500000000001
 20
16.69922
 10
64.1472
 20
17.08226
 10
63.94200000000001
 20
17.42838
 10
63.88339999999999
 20
17.48698
 10
63.827
 20
17.54342
 10
63.47120000000001
 20
17.73764
 10
63.05440000000002
 20
17.8212
 10
62.9156
 20
17.8212
 10
62.77780000000001
 20
17.8212
 10
62.3644
 20
17.73764
 10
62.01280000000001
 20
17.54342
 10
61.9564
 20
17.48698
 10
61.89780000000002
 20
17.42838
 10
61.69280000000002
 20
17.08226
 10
61.60480000000001
 20
16.69922
 10
61.60480000000001
 20
16.5712
 10
61.60480000000001
 20
16.44098
 10
61.69580000000001
 20
16.04926
 10
61.90860000000001
 20
15.70422
 10
61.96940000000001
 20
15.6467
 10
62.0248
 20
15.5892
 10
62.372
 20
15.38628
 10
62.7788
 20
15.29948
  0
LWPOLYLINE
  5
9E
100
AcDbEntity
  8
0
  6
ByLayer
 62
    7
370
   -1
100
AcDbPolyline
 90
   64
 70
    1
 43
0
 10
64.59520000000001
 20
18.73698
 10
64.75139999999999
 20
18.70878
 10
65.4242
 20
18.44728
 10
65.9494
 20
18.0317
 10
66.032
 20
17.92536
 10
66.1186
 20
17.81576
 10
66.42260000000002
 20
17.18208
 10
66.5528
 20
16.49956
 10
66.5528
 20
16.2717
 10
66.5528
 20
15.97006
 10
66.312
 20
15.06512
 10
65.753
 20
14.2817
 10
65.5936
 20
14.15364
 10
65.43299999999999
 20
14.0267
 10
64.4434
 20
13.5818
 10
63.29760000000002
 20
13.38974
 10
62.9156
 20
13.38974
 10
62.53579999999999
 20
13.38974
 10
61.3964
 20
13.5818
 10
60.407
 20
14.0267
 10
60.24639999999999
 20
14.15364
 10
60.08580000000001
 20
14.2817
 10
59.5258
 20
15.06512
 10
59.28720000000001
 20
15.97006
 10
59.28720000000001
 20
16.2717
 10
59.28720000000001
 20
16.49956
 10
59.41720000000001
 20
17.18208
 10
59.72120000000001
 20
17.81576
 10
59.80800000000001
 20
17.92536
 10
59.89020000000001
 20
18.0317
 10
60.4144
 20
18.44728
 10
61.09059999999999
 20
18.70878
 10
61.2488
 20
18.73698
 10
61.12520000000001
 20
18.76736
 10
60.58800000000001
 20
19.00284
 10
60.15940000000001
 20
19.35006
 10
60.09000000000002
 20
19.43578
 10
60.0206
 20
19.51822
 10
59.77760000000001
 20
19.99892
 10
59.67340000000002
 20
20.524
 10
59.67340000000002
 20
20.6988
 10
59.67340000000002
 20
20.97
 10
59.88500000000001
 20
21.7838
 10
60.38200000000001
 20
22.4804
 10
60.52420000000001
 20
22.5912
 10
60.66720000000001
 20
22.7062
 10
61.55060000000002
 20
23.1054
 10
62.57380000000001
 20
23.277
 10
62.9156
 20
23.277
 10
63.25740000000002
 20
23.277
 10
64.285
 20
23.1054
 10
65.17260000000002
 20
22.7062
 10
65.3158
 20
22.5912
 10
65.45780000000001
 20
22.4804
 10
65.95580000000001
 20
21.7838
 10
66.17079999999999
 20
20.97
 10
66.17079999999999
 20
20.6988
 10
66.17079999999999
 20
20.524
 10
66.06659999999999
 20
19.99892
 10
65.8236
 20
19.51822
 10
65.7542
 20
19.43578
 10
65.6848
 20
19.35006
 10
65.25619999999999
 20
19.00284
 10
64.71880000000002
 20
18.76736
  0
LWPOLYLINE
  5
9F
100
AcDbEntity
  8
0
  6
ByLayer
 62
    7
370
   -1
100
AcDbPolyline
 90
   76
 70
    1
 43
0
 10
80.80419999999999
 20
13.64584
 10
80.80419999999999
 20
17.23526
 10
80.80419999999999
 20
17.41428
 10
80.7552
 20
17.95138
 10
80.6414
 20
18.35286
 10
80.60860000000001
 20
18.40712
 10
80.572
 20
18.46244
 10
80.31360000000001
 20
18.65452
 10
79.98480000000001
 20
18.73698
 10
79.87520000000001
 20
18.73698
 10
79.73520000000002
 20
18.73698
 10
79.31760000000003
 20
18.62522
 10
79.00940000000001
 20
18.3648
 10
78.96800000000002
 20
18.28994
 10
78.92580000000001
 20
18.21614
 10
78.77840000000002
 20
17.60416
 10
78.71640000000001
 20
16.72524
 10
78.71640000000001
 20
16.4323
 10
78.71640000000001
 20
13.64584
 10
76.47660000000002
 20
13.64584
 10
76.47660000000002
 20
17.23526
 10
76.47660000000002
 20
17.4197
 10
76.42140000000001
 20
17.96984
 10
76.29559999999999
 20
18.36914
 10
76.2598
 20
18.42014
 10
76.2272
 20
18.4733
 10
75.9808
 20
18.65778
 10
75.64880000000001
 20
18.73698
 10
75.53920000000001
 20
18.73698
 10
75.3984
 20
18.73698
 10
74.97840000000002
 20
18.62848
 10
74.6626
 20
18.37564
 10
74.61920000000001
 20
18.30294
 10
74.577
 20
18.22916
 10
74.42920000000002
 20
17.61394
 10
74.3674
 20
16.72852
 10
74.3674
 20
16.4323
 10
74.3674
 20
13.64584
 10
72.1148
 20
13.64584
 10
72.1148
 20
20.2214
 10
74.3934
 20
20.2214
 10
74.3934
 20
19.07552
 10
74.4628
 20
19.19052
 10
75.255
 20
20.0446
 10
75.34380000000002
 20
20.0998
 10
75.4308
 20
20.1552
 10
76.31299999999999
 20
20.4296
 10
76.607
 20
20.4296
 10
76.78840000000001
 20
20.4296
 10
77.33499999999999
 20
20.3538
 10
77.8398
 20
20.1768
 10
77.92640000000002
 20
20.1258
 10
78.00880000000001
 20
20.0738
 10
78.35380000000001
 20
19.73634
 10
78.61219999999999
 20
19.29688
 10
78.65140000000002
 20
19.19272
 10
78.71640000000001
 20
19.30122
 10
79.50200000000001
 20
20.0782
 10
79.59300000000002
 20
20.1258
 10
79.68299999999999
 20
20.1768
 10
80.58799999999999
 20
20.4296
 10
80.8908
 20
20.4296
 10
81.14920000000001
 20
20.4296
 10
81.85000000000001
 20
20.267
 10
81.92380000000001
 20
20.2344
 10
81.99980000000001
 20
20.1996
 10
82.62480000000001
 20
19.70052
 10
82.6748
 20
19.63542
 10
82.7158
 20
19.5855
 10
83.00140000000002
 20
18.98438
 10
83.0176
 20
18.91494
 10
83.0338
 20
18.85092
 10
83.09140000000001
 20
18.38108
 10
83.1174
 20
17.75934
 10
83.1174
 20
17.55208
 10
83.1174
 20
13.64584
  0
LWPOLYLINE
  5
A0
100
AcDbEntity
  8
0
  6
ByLayer
 62
    7
370
   -1
100
AcDbPolyline
 90
    4
 70
    1
 43
0
 10
84.70580000000001
 20
13.64584
 10
84.70580000000001
 20
20.2214
 10
87.02360000000002
 20
20.2214
 10
87.02360000000002
 20
13.64584
  0
LWPOLYLINE
  5
A1
100
AcDbEntity
  8
0
  6
ByLayer
 62
    7
370
   -1
100
AcDbPolyline
 90
   25
 70
    1
 43
0
 10
84.99660000000002
 20
21.914
 10
85.0098
 20
21.914
 10
85.0098
 20
22.0638
 10
85.22239999999999
 20
22.474
 10
85.2658
 20
22.513
 10
85.307
 20
22.5564
 10
85.73480000000001
 20
22.7692
 10
85.87780000000001
 20
22.7692
 10
86.03300000000002
 20
22.7692
 10
86.45720000000001
 20
22.5672
 10
86.49860000000001
 20
22.526
 10
86.5386
 20
22.487
 10
86.74160000000002
 20
22.0574
 10
86.74160000000002
 20
21.914
 10
86.74160000000002
 20
21.7578
 10
86.5312
 20
21.3304
 10
86.4898
 20
21.289
 10
86.4486
 20
21.2478
 10
86.02000000000001
 20
21.03740000000001
 10
85.87780000000001
 20
21.03740000000001
 10
85.72160000000002
 20
21.03740000000001
 10
85.2942
 20
21.2586
 10
85.25280000000001
 20
21.302
 10
85.20940000000002
 20
21.3434
 10
84.99660000000002
 20
21.772
  0
LWPOLYLINE
  5
A2
100
AcDbEntity
  8
0
  6
ByLayer
 62
    7
370
   -1
100
AcDbPolyline
 90
   63
 70
    1
 43
0
 10
93.6362
 20
18.05988
 10
93.57980000000001
 20
18.1098
 10
93.03720000000001
 20
18.47548
 10
92.98500000000001
 20
18.49828
 10
92.9384
 20
18.52106
 10
92.48160000000001
 20
18.6328
 10
92.32980000000001
 20
18.6328
 10
92.17339999999999
 20
18.6328
 10
91.70580000000001
 20
18.51888
 10
91.30119999999999
 20
18.25302
 10
91.23580000000001
 20
18.17708
 10
91.16640000000001
 20
18.1033
 10
90.9256
 20
17.6443
 10
90.8236
 20
17.11698
 10
90.8236
 20
16.94012
 10
90.8236
 20
16.77084
 10
90.9288
 20
16.26302
 10
91.1772
 20
15.81598
 10
91.24879999999999
 20
15.7422
 10
91.31620000000001
 20
15.66622
 10
91.73620000000003
 20
15.40038
 10
92.22340000000003
 20
15.28648
 10
92.3862
 20
15.28648
 10
92.5522
 20
15.28648
 10
92.99700000000001
 20
15.4058
 10
93.05000000000001
 20
15.4297
 10
93.10660000000001
 20
15.45788
 10
93.59479999999999
 20
15.81598
 10
93.6362
 20
15.85938
 10
93.6362
 20
13.84984
 10
93.56659999999999
 20
13.81294
 10
92.86780000000002
 20
13.51564
 10
92.79839999999999
 20
13.49392
 10
92.72239999999999
 20
13.47656
 10
92.13759999999999
 20
13.38974
 10
91.9434
 20
13.38974
 10
91.59940000000003
 20
13.38974
 10
90.56760000000003
 20
13.63498
 10
89.64520000000002
 20
14.20788
 10
89.49120000000002
 20
14.37066
 10
89.43699999999998
 20
14.42492
 10
88.99940000000001
 20
15.0217
 10
88.9658
 20
15.0868
 10
88.93119999999999
 20
15.15192
 10
88.67079999999999
 20
15.8572
 10
88.6534
 20
15.93316
 10
88.63499999999999
 20
16.00912
 10
88.54500000000002
 20
16.69814
 10
88.54500000000002
 20
16.92708
 10
88.54500000000002
 20
17.2808
 10
88.7826
 20
18.33876
 10
89.34020000000001
 20
19.29578
 10
89.49980000000002
 20
19.45748
 10
89.6584
 20
19.62022
 10
90.59360000000001
 20
20.1866
 10
91.62559999999999
 20
20.4296
 10
91.96940000000001
 20
20.4296
 10
92.1962
 20
20.4296
 10
92.80500000000001
 20
20.3428
 10
92.87639999999999
 20
20.3256
 10
92.94580000000002
 20
20.3082
 10
93.57860000000002
 20
20.0554
 10
93.6362
 20
20.0216
  0
LWPOLYLINE
  5
A3
100
AcDbEntity
  8
0
  6
ByLayer
 62
    7
370
   -1
100
AcDbPolyline
 90
   13
 70
    1
 43
0
 10
99.59520000000001
 20
17.78212
 10
99.58440000000002
 20
17.87328
 10
99.23060000000001
 20
18.61544
 10
99.17000000000002
 20
18.67188
 10
99.10920000000002
 20
18.73048
 10
98.48740000000001
 20
19.01912
 10
98.28020000000001
 20
19.01912
 10
98.0556
 20
19.01912
 10
97.43800000000002
 20
18.76302
 10
97.38160000000002
 20
18.71094
 10
97.32080000000002
 20
18.65452
 10
96.94559999999998
 20
17.87978
 10
96.93020000000001
 20
17.78212
  0
LWPOLYLINE
  5
A4
100
AcDbEntity
  8
0
  6
ByLayer
 62
    7
370
   -1
100
AcDbPolyline
 90
   51
 70
    1
 43
0
 10
101.8784
 20
16.47136
 10
96.8784
 20
16.47136
 10
96.88140000000001
 20
16.3433
 10
96.98480000000001
 20
15.79428
 10
97.2038
 20
15.36676
 10
97.26439999999999
 20
15.29948
 10
97.32760000000002
 20
15.23002
 10
97.72660000000002
 20
14.98698
 10
98.20000000000002
 20
14.8828
 10
98.35839999999999
 20
14.8828
 10
98.58080000000001
 20
14.8828
 10
99.18620000000001
 20
15.05316
 10
99.24800000000002
 20
15.0868
 10
99.31120000000001
 20
15.12262
 10
99.76660000000001
 20
15.61088
 10
99.79500000000002
 20
15.67276
 10
101.5398
 20
14.96962
 10
101.4886
 20
14.84484
 10
101.11
 20
14.30448
 10
100.5664
 20
13.87912
 10
100.433
 20
13.81078
 10
100.3006
 20
13.74134
 10
99.54860000000002
 20
13.49608
 10
98.7534
 20
13.38974
 10
98.48859999999999
 20
13.38974
 10
98.10120000000001
 20
13.38974
 10
96.93879999999999
 20
13.63172
 10
95.9016
 20
14.19706
 10
95.72800000000004
 20
14.35764
 10
95.55440000000002
 20
14.51388
 10
94.94880000000001
 20
15.45248
 10
94.6908
 20
16.51042
 10
94.6908
 20
16.86198
 10
94.6908
 20
17.21356
 10
94.94880000000001
 20
18.26822
 10
95.55440000000002
 20
19.2513
 10
95.72800000000004
 20
19.42274
 10
95.89940000000001
 20
19.59092
 10
96.90119999999999
 20
20.178
 10
97.99359999999999
 20
20.4296
 10
98.35839999999999
 20
20.4296
 10
98.7216
 20
20.4296
 10
99.8134
 20
20.1746
 10
100.7702
 20
19.58008
 10
100.9278
 20
19.40972
 10
101.008
 20
19.32184
 10
101.6048
 20
18.29862
 10
101.6438
 20
18.18142
 10
101.683
 20
18.06534
 10
101.8784
 20
16.9553
 10
101.8784
 20
16.5842
  0
LWPOLYLINE
  5
A5
100
AcDbEntity
  8
0
  6
ByLayer
 62
    7
370
   -1
100
AcDbPolyline
 90
    6
 70
    1
 43
0
 10
104.437
 20
18.97894
 10
104.437
 20
23.7098
 10
103.1086
 20
23.7098
 10
103.8336
 20
25.1162
 10
105.9778
 20
25.1162
 10
105.9778
 20
18.97894
  0
LWPOLYLINE
  5
A6
100
AcDbEntity
  8
0
  6
ByLayer
 62
    7
370
   -1
100
AcDbPolyline
 90
    8
 70
    1
 43
0
 10
23.65219999999999
 20
3.869579999999999
 10
24.3424
 20
3.869579999999999
 10
24.3424
 20
3.53972
 10
24.0472
 20
3.53972
 10
24.0472
 20
1.543200000000001
 10
24.3424
 20
1.543200000000001
 10
24.3424
 20
1.213340000000001
 10
23.65219999999999
 20
1.213340000000001
  0
LWPOLYLINE
  5
A7
100
AcDbEntity
  8
0
  6
ByLayer
 62
    7
370
   -1
100
AcDbPolyline
 90
    6
 70
    1
 43
0
 10
25.08580000000001
 20
1.838340000000001
 10
25.08580000000001
 20
3.35308
 10
24.66020000000002
 20
3.35308
 10
24.89020000000001
 20
3.804480000000002
 10
25.5806
 20
3.804480000000002
 10
25.5806
 20
1.838340000000001
  0
LWPOLYLINE
  5
A8
100
AcDbEntity
  8
0
  6
ByLayer
 62
    7
370
   -1
100
AcDbPolyline
 90
    8
 70
    1
 43
0
 10
26.91720000000001
 20
3.869579999999999
 10
26.91720000000001
 20
1.213340000000001
 10
26.2316
 20
1.213340000000001
 10
26.2316
 20
1.543200000000001
 10
26.5266
 20
1.543200000000001
 10
26.5266
 20
3.53972
 10
26.2316
 20
3.53972
 10
26.2316
 20
3.869579999999999
  0
LWPOLYLINE
  5
A9
100
AcDbEntity
  8
0
  6
ByLayer
 62
    7
370
   -1
100
AcDbPolyline
 90
   24
 70
    1
 43
0
 10
29.2544
 20
2.524080000000001
 10
29.2544
 20
2.587020000000001
 10
29.185
 20
2.76064
 10
29.1722
 20
2.775840000000001
 10
29.15700000000001
 20
2.791020000000001
 10
28.992
 20
2.866980000000001
 10
28.9378
 20
2.866980000000001
 10
28.8802
 20
2.866980000000001
 10
28.72160000000001
 20
2.78774
 10
28.70780000000001
 20
2.77148
 10
28.6936
 20
2.7563
 10
28.62519999999999
 20
2.582700000000001
 10
28.62519999999999
 20
2.524080000000001
 10
28.62519999999999
 20
2.460080000000001
 10
28.6936
 20
2.283200000000001
 10
28.70780000000001
 20
2.268000000000001
 10
28.72080000000001
 20
2.25284
 10
28.88340000000001
 20
2.17686
 10
28.9378
 20
2.17686
 10
28.99639999999999
 20
2.17686
 10
29.15700000000001
 20
2.25284
 10
29.1722
 20
2.268000000000001
 10
29.185
 20
2.283200000000001
 10
29.2544
 20
2.46442
  0
LWPOLYLINE
  5
AA
100
AcDbEntity
  8
0
  6
ByLayer
 62
    7
370
   -1
100
AcDbPolyline
 90
   35
 70
    1
 43
0
 10
29.6842
 20
3.939020000000001
 10
29.6842
 20
1.838340000000001
 10
29.23720000000002
 20
1.838340000000001
 10
29.23720000000002
 20
2.059660000000001
 10
29.22200000000001
 20
2.03688
 10
29.0484
 20
1.86652
 10
29.0288
 20
1.855700000000001
 10
29.0106
 20
1.84484
 10
28.8348
 20
1.78624
 10
28.77720000000001
 20
1.78624
 10
28.66119999999999
 20
1.78624
 10
28.3408
 20
1.953340000000001
 10
28.3128
 20
1.98588
 10
28.28439999999999
 20
2.01952
 10
28.1434
 20
2.398220000000001
 10
28.1434
 20
2.524080000000001
 10
28.1434
 20
2.656480000000001
 10
28.2878
 20
3.01998
 10
28.31699999999999
 20
3.05362
 10
28.34520000000001
 20
3.087260000000001
 10
28.65560000000001
 20
3.25324
 10
28.75980000000001
 20
3.25324
 10
28.8302
 20
3.25324
 10
29.0234
 20
3.199000000000001
 10
29.04200000000002
 20
3.188140000000001
 10
29.0592
 20
3.179480000000001
 10
29.22200000000001
 20
3.00586
 10
29.23720000000002
 20
2.9798
 10
29.2362
 20
2.98634
 10
29.2252
 20
3.080719999999999
 10
29.2242
 20
3.09266
 10
29.223
 20
3.106780000000001
 10
29.21980000000001
 20
3.19466
 10
29.21980000000001
 20
3.222860000000001
 10
29.21980000000001
 20
3.939020000000001
  0
LWPOLYLINE
  5
AB
100
AcDbEntity
  8
0
  6
ByLayer
 62
    7
370
   -1
100
AcDbPolyline
 90
   20
 70
    1
 43
0
 10
29.96860000000001
 20
1.23502
 10
30.3548
 20
2.046659999999999
 10
29.7992
 20
3.209860000000001
 10
30.3374
 20
3.209860000000001
 10
30.5284
 20
2.71506
 10
30.53279999999999
 20
2.70422
 10
30.5652
 20
2.606560000000001
 10
30.5676
 20
2.597860000000001
 10
30.5698
 20
2.5892
 10
30.59140000000001
 20
2.506720000000001
 10
30.59360000000001
 20
2.498060000000001
 10
30.59480000000001
 20
2.506720000000001
 10
30.613
 20
2.5892
 10
30.6152
 20
2.597860000000001
 10
30.6176
 20
2.606560000000001
 10
30.6534
 20
2.70422
 10
30.65860000000001
 20
2.71506
 10
30.8498
 20
3.209860000000001
 10
31.36619999999999
 20
3.209860000000001
 10
30.50659999999999
 20
1.23502
  0
LWPOLYLINE
  5
AC
100
AcDbEntity
  8
0
  6
ByLayer
 62
    7
370
   -1
100
AcDbPolyline
 90
    4
 70
    1
 43
0
 10
31.53340000000001
 20
3.939020000000001
 10
32.0194
 20
3.939020000000001
 10
32.0194
 20
1.838340000000001
 10
31.53340000000001
 20
1.838340000000001
  0
LWPOLYLINE
  5
AD
100
AcDbEntity
  8
0
  6
ByLayer
 62
    7
370
   -1
100
AcDbPolyline
 90
   24
 70
    1
 43
0
 10
33.43300000000001
 20
2.524080000000001
 10
33.43300000000001
 20
2.587020000000001
 10
33.36060000000001
 20
2.76172
 10
33.3464
 20
2.775840000000001
 10
33.33120000000001
 20
2.79212
 10
33.1662
 20
2.871300000000001
 10
33.11200000000001
 20
2.871300000000001
 10
33.0544
 20
2.871300000000001
 10
32.89500000000001
 20
2.795360000000001
 10
32.88199999999999
 20
2.78016
 10
32.86660000000001
 20
2.76498
 10
32.79520000000001
 20
2.584860000000001
 10
32.79520000000001
 20
2.524080000000001
 10
32.79520000000001
 20
2.46116
 10
32.86660000000001
 20
2.28756
 10
32.88199999999999
 20
2.272360000000001
 10
32.89500000000001
 20
2.25716
 10
33.05780000000001
 20
2.1812
 10
33.11200000000001
 20
2.1812
 10
33.17060000000001
 20
2.1812
 10
33.33120000000001
 20
2.25716
 10
33.3464
 20
2.272360000000001
 10
33.36060000000001
 20
2.28756
 10
33.43300000000001
 20
2.4655
  0
LWPOLYLINE
  5
AE
100
AcDbEntity
  8
0
  6
ByLayer
 62
    7
370
   -1
100
AcDbPolyline
 90
   32
 70
    1
 43
0
 10
33.85420000000001
 20
3.209860000000001
 10
33.85420000000001
 20
1.838340000000001
 10
33.4114
 20
1.838340000000001
 10
33.4114
 20
2.059660000000001
 10
33.3952
 20
2.035800000000001
 10
33.21380000000001
 20
1.862200000000001
 10
33.1944
 20
1.85134
 10
33.175
 20
1.8405
 10
32.9838
 20
1.78624
 10
32.9212
 20
1.78624
 10
32.81139999999999
 20
1.78624
 10
32.5086
 20
1.953340000000001
 10
32.4828
 20
1.98588
 10
32.46860000000001
 20
2.00324
 10
32.3634
 20
2.198560000000001
 10
32.3566
 20
2.220280000000001
 10
32.3502
 20
2.243060000000001
 10
32.31780000000001
 20
2.454639999999999
 10
32.31780000000001
 20
2.524080000000001
 10
32.31780000000001
 20
2.656480000000001
 10
32.4588
 20
3.02106
 10
32.48700000000001
 20
3.05362
 10
32.51520000000001
 20
3.087260000000001
 10
32.8416
 20
3.25324
 10
32.95140000000001
 20
3.25324
 10
33.0176
 20
3.25324
 10
33.1978
 20
3.19576
 10
33.2162
 20
3.183800000000001
 10
33.23479999999999
 20
3.174060000000001
 10
33.3972
 20
3.00802
 10
33.4114
 20
2.984159999999999
 10
33.4114
 20
3.209860000000001
  0
LWPOLYLINE
  5
AF
100
AcDbEntity
  8
0
  6
ByLayer
 62
    7
370
   -1
100
AcDbPolyline
 90
   38
 70
    1
 43
0
 10
34.2208
 20
1.838340000000001
 10
34.2208
 20
3.209860000000001
 10
34.6636
 20
3.209860000000001
 10
34.6636
 20
2.93208
 10
34.67880000000001
 20
2.9592
 10
34.8634
 20
3.162120000000001
 10
34.88500000000001
 20
3.175140000000001
 10
34.90560000000001
 20
3.188140000000001
 10
35.11720000000001
 20
3.25324
 10
35.1888
 20
3.25324
 10
35.2486
 20
3.25324
 10
35.4102
 20
3.21744
 10
35.42760000000001
 20
3.209860000000001
 10
35.44500000000001
 20
3.203340000000001
 10
35.58160000000001
 20
3.10134
 10
35.5924
 20
3.088340000000001
 10
35.60220000000001
 20
3.0753
 10
35.66720000000001
 20
2.934260000000001
 10
35.67060000000001
 20
2.919060000000001
 10
35.67380000000001
 20
2.90062
 10
35.6922
 20
2.69336
 10
35.6922
 20
2.62392
 10
35.6922
 20
1.838340000000001
 10
35.2106
 20
1.838340000000001
 10
35.2106
 20
2.571840000000001
 10
35.2106
 20
2.631500000000001
 10
35.16720000000001
 20
2.799700000000001
 10
35.1584
 20
2.810560000000001
 10
35.1486
 20
2.823560000000001
 10
35.02500000000001
 20
2.884340000000001
 10
34.98479999999999
 20
2.884340000000001
 10
34.9294
 20
2.884340000000001
 10
34.77520000000001
 20
2.794280000000001
 10
34.7634
 20
2.775840000000001
 10
34.7514
 20
2.75738
 10
34.6938
 20
2.501300000000001
 10
34.6938
 20
2.41558
 10
34.6938
 20
1.838340000000001
  0
LWPOLYLINE
  5
B0
100
AcDbEntity
  8
0
  6
ByLayer
 62
    7
370
   -1
100
AcDbPolyline
 90
    4
 70
    1
 43
0
 10
36.19880000000001
 20
2.82792
 10
37.8266
 20
2.82792
 10
37.8266
 20
2.506720000000001
 10
36.19880000000001
 20
2.506720000000001
  0
LWPOLYLINE
  5
B1
100
AcDbEntity
  8
0
  6
ByLayer
 62
    7
370
   -1
100
AcDbPolyline
 90
   12
 70
    1
 43
0
 10
38.42660000000001
 20
1.838340000000001
 10
38.4222
 20
2.866980000000001
 10
38.2184
 20
2.866980000000001
 10
38.2184
 20
3.209860000000001
 10
38.4222
 20
3.209860000000001
 10
38.4222
 20
3.617840000000001
 10
38.89980000000001
 20
3.617840000000001
 10
38.89980000000001
 20
3.209860000000001
 10
39.1036
 20
3.209860000000001
 10
39.1036
 20
2.866980000000001
 10
38.89980000000001
 20
2.866980000000001
 10
38.89980000000001
 20
1.838340000000001
  0
LWPOLYLINE
  5
B2
100
AcDbEntity
  8
0
  6
ByLayer
 62
    7
370
   -1
100
AcDbPolyline
 90
   44
 70
    1
 43
0
 10
39.3284
 20
1.838340000000001
 10
39.3284
 20
3.939020000000001
 10
39.8014
 20
3.939020000000001
 10
39.8014
 20
3.201160000000001
 10
39.8014
 20
3.16752
 10
39.7972
 20
3.080719999999999
 10
39.7972
 20
3.06662
 10
39.7962
 20
3.0547
 10
39.78840000000001
 20
2.960280000000001
 10
39.78840000000001
 20
2.95378
 10
39.80360000000002
 20
2.9798
 10
39.9806
 20
3.168620000000001
 10
40.00120000000001
 20
3.179480000000001
 10
40.02160000000001
 20
3.1925
 10
40.2266
 20
3.25324
 10
40.2962
 20
3.25324
 10
40.3558
 20
3.25324
 10
40.5176
 20
3.21744
 10
40.535
 20
3.209860000000001
 10
40.55220000000001
 20
3.203340000000001
 10
40.68880000000001
 20
3.10134
 10
40.7
 20
3.088340000000001
 10
40.70980000000002
 20
3.0753
 10
40.7748
 20
2.934260000000001
 10
40.77800000000001
 20
2.919060000000001
 10
40.7814
 20
2.90062
 10
40.7998
 20
2.69336
 10
40.7998
 20
2.62392
 10
40.7998
 20
1.838340000000001
 10
40.31800000000001
 20
1.838340000000001
 10
40.31800000000001
 20
2.571840000000001
 10
40.31800000000001
 20
2.631500000000001
 10
40.27440000000001
 20
2.799700000000001
 10
40.2658
 20
2.810560000000001
 10
40.25620000000001
 20
2.823560000000001
 10
40.1324
 20
2.884340000000001
 10
40.09219999999999
 20
2.884340000000001
 10
40.03700000000001
 20
2.884340000000001
 10
39.8828
 20
2.794280000000001
 10
39.8708
 20
2.775840000000001
 10
39.8588
 20
2.75738
 10
39.8014
 20
2.501300000000001
 10
39.8014
 20
2.41558
 10
39.8014
 20
1.838340000000001
  0
LWPOLYLINE
  5
B3
100
AcDbEntity
  8
0
  6
ByLayer
 62
    7
370
   -1
100
AcDbPolyline
 90
    4
 70
    1
 43
0
 10
41.1294
 20
1.838340000000001
 10
41.1294
 20
3.209860000000001
 10
41.6156
 20
3.209860000000001
 10
41.6156
 20
1.838340000000001
  0
LWPOLYLINE
  5
B4
100
AcDbEntity
  8
0
  6
ByLayer
 62
    7
370
   -1
100
AcDbPolyline
 90
   24
 70
    1
 43
0
 10
41.1948
 20
3.56142
 10
41.1948
 20
3.59288
 10
41.238
 20
3.67862
 10
41.2466
 20
3.68728
 10
41.25560000000002
 20
3.69598
 10
41.34660000000001
 20
3.73936
 10
41.37700000000001
 20
3.73936
 10
41.40840000000001
 20
3.73936
 10
41.49419999999999
 20
3.69598
 10
41.50280000000001
 20
3.68728
 10
41.51140000000001
 20
3.6797
 10
41.55500000000001
 20
3.591799999999999
 10
41.55500000000001
 20
3.56142
 10
41.55500000000001
 20
3.528860000000001
 10
41.51140000000001
 20
3.43988
 10
41.50280000000001
 20
3.4312
 10
41.49419999999999
 20
3.42252
 10
41.4064
 20
3.37912
 10
41.37700000000001
 20
3.37912
 10
41.34440000000001
 20
3.37912
 10
41.25560000000002
 20
3.42686
 10
41.2466
 20
3.43556
 10
41.238
 20
3.444220000000001
 10
41.1948
 20
3.532120000000001
  0
LWPOLYLINE
  5
B5
100
AcDbEntity
  8
0
  6
ByLayer
 62
    7
370
   -1
100
AcDbPolyline
 90
   38
 70
    1
 43
0
 10
42.00839999999999
 20
1.838340000000001
 10
42.00839999999999
 20
3.209860000000001
 10
42.4512
 20
3.209860000000001
 10
42.4512
 20
2.93208
 10
42.46640000000001
 20
2.9592
 10
42.6508
 20
3.162120000000001
 10
42.6726
 20
3.175140000000001
 10
42.693
 20
3.188140000000001
 10
42.90480000000001
 20
3.25324
 10
42.9764
 20
3.25324
 10
43.03620000000001
 20
3.25324
 10
43.1978
 20
3.21744
 10
43.21500000000002
 20
3.209860000000001
 10
43.23240000000001
 20
3.203340000000001
 10
43.36919999999999
 20
3.10134
 10
43.38
 20
3.088340000000001
 10
43.38979999999999
 20
3.0753
 10
43.455
 20
2.934260000000001
 10
43.45800000000001
 20
2.919060000000001
 10
43.46140000000001
 20
2.90062
 10
43.47980000000001
 20
2.69336
 10
43.47980000000001
 20
2.62392
 10
43.47980000000001
 20
1.838340000000001
 10
42.99799999999999
 20
1.838340000000001
 10
42.99799999999999
 20
2.571840000000001
 10
42.99799999999999
 20
2.631500000000001
 10
42.95480000000001
 20
2.799700000000001
 10
42.94580000000001
 20
2.810560000000001
 10
42.93620000000001
 20
2.823560000000001
 10
42.8126
 20
2.884340000000001
 10
42.7722
 20
2.884340000000001
 10
42.717
 20
2.884340000000001
 10
42.563
 20
2.794280000000001
 10
42.55119999999999
 20
2.775840000000001
 10
42.53920000000001
 20
2.75738
 10
42.48160000000001
 20
2.501300000000001
 10
42.48160000000001
 20
2.41558
 10
42.48160000000001
 20
1.838340000000001
  0
LWPOLYLINE
  5
B6
100
AcDbEntity
  8
0
  6
ByLayer
 62
    7
370
   -1
100
AcDbPolyline
 90
   38
 70
    1
 43
0
 10
43.8228
 20
1.838340000000001
 10
43.8228
 20
3.209860000000001
 10
44.26520000000001
 20
3.209860000000001
 10
44.26520000000001
 20
2.93208
 10
44.28060000000001
 20
2.9592
 10
44.46500000000002
 20
3.162120000000001
 10
44.48660000000001
 20
3.175140000000001
 10
44.5074
 20
3.188140000000001
 10
44.71880000000002
 20
3.25324
 10
44.79060000000001
 20
3.25324
 10
44.85020000000002
 20
3.25324
 10
45.01200000000001
 20
3.21744
 10
45.0292
 20
3.209860000000001
 10
45.0466
 20
3.203340000000001
 10
45.18340000000001
 20
3.10134
 10
45.19420000000001
 20
3.088340000000001
 10
45.2038
 20
3.0753
 10
45.26920000000001
 20
2.934260000000001
 10
45.2722
 20
2.919060000000001
 10
45.2756
 20
2.90062
 10
45.2942
 20
2.69336
 10
45.2942
 20
2.62392
 10
45.2942
 20
1.838340000000001
 10
44.81220000000002
 20
1.838340000000001
 10
44.81220000000002
 20
2.571840000000001
 10
44.81220000000002
 20
2.631500000000001
 10
44.7688
 20
2.799700000000001
 10
44.7602
 20
2.810560000000001
 10
44.75059999999999
 20
2.823560000000001
 10
44.6266
 20
2.884340000000001
 10
44.5866
 20
2.884340000000001
 10
44.5314
 20
2.884340000000001
 10
44.37720000000002
 20
2.794280000000001
 10
44.3652
 20
2.775840000000001
 10
44.35340000000001
 20
2.75738
 10
44.2958
 20
2.501300000000001
 10
44.2958
 20
2.41558
 10
44.2958
 20
1.838340000000001
  0
LWPOLYLINE
  5
B7
100
AcDbEntity
  8
0
  6
ByLayer
 62
    7
370
   -1
100
AcDbPolyline
 90
   13
 70
    1
 43
0
 10
46.57780000000001
 20
2.6977
 10
46.57560000000001
 20
2.71722
 10
46.50380000000001
 20
2.873480000000001
 10
46.49080000000001
 20
2.884340000000001
 10
46.4778
 20
2.897360000000001
 10
46.34780000000001
 20
2.958120000000001
 10
46.30420000000002
 20
2.958120000000001
 10
46.25760000000001
 20
2.958120000000001
 10
46.1294
 20
2.90386
 10
46.11760000000001
 20
2.893000000000001
 10
46.10480000000001
 20
2.88216
 10
46.0286
 20
2.71938
 10
46.0264
 20
2.6977
  0
LWPOLYLINE
  5
B8
100
AcDbEntity
  8
0
  6
ByLayer
 62
    7
370
   -1
100
AcDbPolyline
 90
   42
 70
    1
 43
0
 10
47.05500000000001
 20
2.42862
 10
46.0134
 20
2.42862
 10
46.0134
 20
2.40256
 10
46.08280000000002
 20
2.196380000000001
 10
46.0958
 20
2.1812
 10
46.1088
 20
2.16712
 10
46.2684
 20
2.09438
 10
46.32160000000002
 20
2.09438
 10
46.36840000000001
 20
2.09438
 10
46.49520000000001
 20
2.1313
 10
46.50840000000001
 20
2.1378
 10
46.5214
 20
2.145380000000001
 10
46.6148
 20
2.246300000000001
 10
46.6212
 20
2.259340000000001
 10
46.98560000000001
 20
2.11176
 10
46.97480000000002
 20
2.0868
 10
46.78280000000001
 20
1.88826
 10
46.75560000000002
 20
1.873060000000001
 10
46.72739999999999
 20
1.85894
 10
46.44200000000001
 20
1.78624
 10
46.34780000000001
 20
1.78624
 10
46.20440000000001
 20
1.78624
 10
45.81060000000002
 20
1.953340000000001
 10
45.7748
 20
1.98588
 10
45.73779999999999
 20
2.01844
 10
45.55780000000001
 20
2.3852
 10
45.55780000000001
 20
2.506720000000001
 10
45.55780000000001
 20
2.6402
 10
45.73779999999999
 20
3.00586
 10
45.7748
 20
3.04058
 10
45.81060000000002
 20
3.07638
 10
46.1936
 20
3.25324
 10
46.32160000000002
 20
3.25324
 10
46.4562
 20
3.25324
 10
46.8262
 20
3.07638
 10
46.85980000000001
 20
3.04058
 10
46.87620000000001
 20
3.02214
 10
46.9986
 20
2.805120000000001
 10
47.0074
 20
2.78016
 10
47.015
 20
2.7563
 10
47.05500000000001
 20
2.52734
 10
47.05500000000001
 20
2.4503
  0
LWPOLYLINE
  5
B9
100
AcDbEntity
  8
0
  6
ByLayer
 62
    7
370
   -1
100
AcDbPolyline
 90
   74
 70
    1
 43
0
 10
47.20700000000001
 20
1.951160000000001
 10
47.30700000000002
 20
2.320080000000001
 10
47.3242
 20
2.30492
 10
47.51519999999999
 20
2.18988
 10
47.53700000000001
 20
2.1812
 10
47.55860000000001
 20
2.17252
 10
47.73440000000001
 20
2.12912
 10
47.79300000000001
 20
2.12912
 10
47.82780000000001
 20
2.12912
 10
47.923
 20
2.15516
 10
47.93200000000002
 20
2.1595
 10
47.93939999999999
 20
2.164940000000001
 10
47.97980000000001
 20
2.223520000000001
 10
47.97980000000001
 20
2.241980000000001
 10
47.97980000000001
 20
2.2767
 10
47.82000000000001
 20
2.373280000000001
 10
47.7886
 20
2.38086
 10
47.77780000000001
 20
2.38302
 10
47.69420000000001
 20
2.40472
 10
47.6888
 20
2.40688
 10
47.652
 20
2.417760000000001
 10
47.39140000000002
 20
2.547980000000001
 10
47.37640000000002
 20
2.563140000000001
 10
47.3588
 20
2.579420000000001
 10
47.2764
 20
2.7563
 10
47.2764
 20
2.81488
 10
47.2764
 20
2.894120000000001
 10
47.39920000000001
 20
3.112200000000001
 10
47.4242
 20
3.131720000000001
 10
47.44800000000001
 20
3.15234
 10
47.73560000000001
 20
3.25324
 10
47.83200000000001
 20
3.25324
 10
47.8994
 20
3.25324
 10
48.0772
 20
3.228300000000001
 10
48.10120000000001
 20
3.222860000000001
 10
48.12060000000001
 20
3.21852
 10
48.3516
 20
3.139340000000001
 10
48.37880000000001
 20
3.12738
 10
48.2748
 20
2.7932
 10
48.25839999999999
 20
2.805120000000001
 10
48.09580000000001
 20
2.888660000000001
 10
48.07940000000001
 20
2.893000000000001
 10
48.0642
 20
2.899520000000001
 10
47.9286
 20
2.92772
 10
47.88420000000001
 20
2.92772
 10
47.8528
 20
2.92772
 10
47.76479999999999
 20
2.90602
 10
47.75840000000001
 20
2.9017
 10
47.75060000000001
 20
2.897360000000001
 10
47.71480000000001
 20
2.845280000000001
 10
47.71480000000001
 20
2.82792
 10
47.71480000000001
 20
2.79752
 10
47.8734
 20
2.71506
 10
47.9058
 20
2.70638
 10
47.91660000000002
 20
2.70314
 10
47.9708
 20
2.684660000000001
 10
47.9708
 20
2.684660000000001
 10
48.01220000000001
 20
2.67384
 10
48.30500000000001
 20
2.536020000000001
 10
48.32260000000001
 20
2.51974
 10
48.33780000000002
 20
2.50238
 10
48.41800000000001
 20
2.316840000000001
 10
48.41800000000001
 20
2.255
 10
48.41800000000001
 20
2.170360000000001
 10
48.28340000000001
 20
1.938140000000001
 10
48.2574
 20
1.916440000000001
 10
48.22920000000001
 20
1.894740000000001
 10
47.9308
 20
1.78624
 10
47.83200000000001
 20
1.78624
 10
47.7474
 20
1.78624
 10
47.5194
 20
1.82314
 10
47.4936
 20
1.82964
 10
47.46740000000001
 20
1.83616
 10
47.22860000000001
 20
1.938140000000001
  0
LWPOLYLINE
  5
BA
100
AcDbEntity
  8
0
  6
ByLayer
 62
    7
370
   -1
100
AcDbPolyline
 90
    4
 70
    1
 43
0
 10
48.4984
 20
1.582240000000001
 10
49.4706
 20
3.869579999999999
 10
49.77000000000001
 20
3.869579999999999
 10
48.8022
 20
1.582240000000001
  0
LWPOLYLINE
  5
BB
100
AcDbEntity
  8
0
  6
ByLayer
 62
    7
370
   -1
100
AcDbPolyline
 90
   24
 70
    1
 43
0
 10
50.9212
 20
2.51974
 10
50.9212
 20
2.580500000000001
 10
50.8562
 20
2.74762
 10
50.84300000000002
 20
2.7628
 10
50.83000000000001
 20
2.778
 10
50.68360000000001
 20
2.849620000000001
 10
50.63480000000001
 20
2.849620000000001
 10
50.58280000000001
 20
2.849620000000001
 10
50.4384
 20
2.778
 10
50.4264
 20
2.7628
 10
50.41340000000001
 20
2.7487
 10
50.34840000000001
 20
2.577260000000001
 10
50.34840000000001
 20
2.51974
 10
50.34840000000001
 20
2.460080000000001
 10
50.4092
 20
2.296220000000001
 10
50.4222
 20
2.28102
 10
50.435
 20
2.265840000000001
 10
50.5848
 20
2.18988
 10
50.63480000000001
 20
2.18988
 10
50.688
 20
2.18988
 10
50.8334
 20
2.265840000000001
 10
50.84740000000001
 20
2.28102
 10
50.85940000000001
 20
2.296220000000001
 10
50.9212
 20
2.46442
  0
LWPOLYLINE
  5
BC
100
AcDbEntity
  8
0
  6
ByLayer
 62
    7
370
   -1
100
AcDbPolyline
 90
   48
 70
    1
 43
0
 10
51.40300000000001
 20
2.51974
 10
51.40300000000001
 20
2.44922
 10
51.352
 20
2.259340000000001
 10
51.34219999999999
 20
2.237640000000001
 10
51.3314
 20
2.21484
 10
51.1948
 20
2.01628
 10
51.17720000000001
 20
1.99892
 10
51.15660000000001
 20
1.98156
 10
50.95060000000001
 20
1.847
 10
50.93000000000001
 20
1.838340000000001
 10
50.90719999999999
 20
1.82964
 10
50.702
 20
1.78624
 10
50.63480000000001
 20
1.78624
 10
50.5612
 20
1.78624
 10
50.3614
 20
1.82964
 10
50.3398
 20
1.838340000000001
 10
50.31700000000001
 20
1.847
 10
50.11060000000001
 20
1.98156
 10
50.09219999999999
 20
1.99892
 10
50.0728
 20
2.01736
 10
49.9392
 20
2.21592
 10
49.9316
 20
2.237640000000001
 10
49.9208
 20
2.259340000000001
 10
49.87080000000002
 20
2.454639999999999
 10
49.87080000000002
 20
2.51974
 10
49.87080000000002
 20
2.59028
 10
49.9208
 20
2.78016
 10
49.9316
 20
2.80186
 10
49.9402
 20
2.824660000000001
 10
50.07380000000001
 20
3.023220000000001
 10
50.09219999999999
 20
3.04058
 10
50.10980000000001
 20
3.057940000000001
 10
50.31580000000001
 20
3.1925
 10
50.3398
 20
3.201160000000001
 10
50.3614
 20
3.209860000000001
 10
50.5664
 20
3.25324
 10
50.63480000000001
 20
3.25324
 10
50.7086
 20
3.25324
 10
50.90719999999999
 20
3.209860000000001
 10
50.93000000000001
 20
3.201160000000001
 10
50.95280000000001
 20
3.1925
 10
51.15880000000001
 20
3.057940000000001
 10
51.17720000000001
 20
3.04058
 10
51.19579999999999
 20
3.0243
 10
51.3336
 20
2.82576
 10
51.34219999999999
 20
2.80186
 10
51.352
 20
2.78016
 10
51.40300000000001
 20
2.584860000000001
  0
LWPOLYLINE
  5
BD
100
AcDbEntity
  8
0
  6
ByLayer
 62
    7
370
   -1
100
AcDbPolyline
 90
   42
 70
    1
 43
0
 10
52.1614
 20
2.97548
 10
52.167
 20
2.96356
 10
52.20280000000001
 20
2.88
 10
52.205
 20
2.875640000000001
 10
52.20580000000001
 20
2.872380000000001
 10
52.2166
 20
2.836580000000001
 10
52.21780000000001
 20
2.83224
 10
52.21880000000002
 20
2.83008
 10
52.2266
 20
2.81598
 10
52.2266
 20
2.810560000000001
 10
52.2266
 20
2.813800000000001
 10
52.245
 20
2.871300000000001
 10
52.2484
 20
2.88
 10
52.25059999999999
 20
2.88758
 10
52.29060000000001
 20
2.9668
 10
52.29620000000001
 20
2.97548
 10
52.42620000000001
 20
3.209860000000001
 10
52.9688
 20
3.209860000000001
 10
52.5
 20
2.571840000000001
 10
53.05120000000001
 20
1.838340000000001
 10
52.5044
 20
1.838340000000001
 10
52.3002
 20
2.1812
 10
52.29620000000001
 20
2.187720000000001
 10
52.2602
 20
2.25608
 10
52.25700000000001
 20
2.263660000000001
 10
52.25580000000002
 20
2.265840000000001
 10
52.245
 20
2.298380000000001
 10
52.24380000000001
 20
2.30272
 10
52.2428
 20
2.30708
 10
52.23200000000001
 20
2.343980000000001
 10
52.2308
 20
2.346140000000001
 10
52.2278
 20
2.33636
 10
52.20580000000001
 20
2.268000000000001
 10
52.205
 20
2.263660000000001
 10
52.20280000000001
 20
2.25716
 10
52.17020000000001
 20
2.187720000000001
 10
52.1658
 20
2.1812
 10
51.96199999999999
 20
1.838340000000001
 10
51.428
 20
1.838340000000001
 10
51.9662
 20
2.571840000000001
 10
51.50620000000001
 20
3.209860000000001
 10
52.0314
 20
3.209860000000001
  0
LWPOLYLINE
  5
BE
100
AcDbEntity
  8
0
  6
ByLayer
 62
    7
370
   -1
100
AcDbPolyline
 90
   20
 70
    1
 43
0
 10
53.0772
 20
1.23502
 10
53.46360000000001
 20
2.046659999999999
 10
52.90800000000002
 20
3.209860000000001
 10
53.44620000000002
 20
3.209860000000001
 10
53.63720000000001
 20
2.71506
 10
53.64140000000002
 20
2.70422
 10
53.6742
 20
2.606560000000001
 10
53.67620000000001
 20
2.597860000000001
 10
53.6784
 20
2.5892
 10
53.69999999999999
 20
2.506720000000001
 10
53.7022
 20
2.498060000000001
 10
53.70340000000002
 20
2.506720000000001
 10
53.7216
 20
2.5892
 10
53.7238
 20
2.597860000000001
 10
53.72620000000001
 20
2.606560000000001
 10
53.76200000000001
 20
2.70422
 10
53.76740000000001
 20
2.71506
 10
53.9584
 20
3.209860000000001
 10
54.47480000000002
 20
3.209860000000001
 10
53.61560000000001
 20
1.23502
  0
LWPOLYLINE
  5
BF
100
AcDbEntity
  8
0
  6
ByLayer
 62
    7
370
   -1
100
AcDbPolyline
 90
   24
 70
    1
 43
0
 10
55.67619999999999
 20
2.52842
 10
55.67619999999999
 20
2.59028
 10
55.60660000000001
 20
2.76064
 10
55.59360000000001
 20
2.775840000000001
 10
55.57840000000002
 20
2.791020000000001
 10
55.4102
 20
2.866980000000001
 10
55.35480000000001
 20
2.866980000000001
 10
55.2962
 20
2.866980000000001
 10
55.1344
 20
2.791020000000001
 10
55.12060000000001
 20
2.775840000000001
 10
55.1052
 20
2.76064
 10
55.03360000000001
 20
2.587020000000001
 10
55.03360000000001
 20
2.52842
 10
55.03360000000001
 20
2.46658
 10
55.1052
 20
2.296220000000001
 10
55.12060000000001
 20
2.28102
 10
55.1344
 20
2.265840000000001
 10
55.29940000000001
 20
2.18988
 10
55.35480000000001
 20
2.18988
 10
55.41340000000001
 20
2.18988
 10
55.57380000000001
 20
2.265840000000001
 10
55.58920000000001
 20
2.28102
 10
55.60340000000001
 20
2.296220000000001
 10
55.67619999999999
 20
2.47092
  0
LWPOLYLINE
  5
C0
100
AcDbEntity
  8
0
  6
ByLayer
 62
    7
370
   -1
100
AcDbPolyline
 90
   62
 70
    1
 43
0
 10
56.09700000000001
 20
3.209860000000001
 10
56.09700000000001
 20
1.84266
 10
56.09700000000001
 20
1.72764
 10
55.94080000000001
 20
1.40756
 10
55.91020000000002
 20
1.38258
 10
55.8952
 20
1.37066
 10
55.6956
 20
1.28062
 10
55.6716
 20
1.274080000000001
 10
55.64660000000001
 20
1.267580000000001
 10
55.40480000000001
 20
1.23502
 10
55.3244
 20
1.23502
 10
55.1986
 20
1.23502
 10
54.85020000000002
 20
1.3327
 10
54.82080000000001
 20
1.35222
 10
54.79060000000001
 20
1.37284
 10
54.63220000000001
 20
1.6517
 10
54.63
 20
1.68642
 10
55.1292
 20
1.68642
 10
55.1314
 20
1.67556
 10
55.19200000000001
 20
1.59312
 10
55.20280000000001
 20
1.586580000000001
 10
55.21280000000002
 20
1.581160000000001
 10
55.32220000000001
 20
1.55186
 10
55.35920000000002
 20
1.55186
 10
55.41340000000001
 20
1.55186
 10
55.5652
 20
1.61372
 10
55.5762
 20
1.62564
 10
55.58580000000001
 20
1.638660000000001
 10
55.63700000000001
 20
1.86652
 10
55.63700000000001
 20
1.942500000000001
 10
55.63700000000001
 20
2.06836
 10
55.6238
 20
2.046659999999999
 10
55.46120000000001
 20
1.88826
 10
55.44159999999999
 20
1.87738
 10
55.42120000000001
 20
1.86652
 10
55.2248
 20
1.81228
 10
55.15940000000001
 20
1.81228
 10
55.05119999999999
 20
1.81228
 10
54.75260000000002
 20
1.97938
 10
54.7256
 20
2.011940000000001
 10
54.71140000000001
 20
2.02822
 10
54.6062
 20
2.21592
 10
54.5998
 20
2.237640000000001
 10
54.59300000000002
 20
2.259340000000001
 10
54.56060000000002
 20
2.46442
 10
54.56060000000002
 20
2.532780000000001
 10
54.56060000000002
 20
2.66406
 10
54.705
 20
3.02538
 10
54.73420000000002
 20
3.057940000000001
 10
54.74720000000001
 20
3.07422
 10
54.91419999999999
 20
3.19358
 10
54.93380000000001
 20
3.201160000000001
 10
54.95340000000002
 20
3.209860000000001
 10
55.13339999999999
 20
3.25324
 10
55.19420000000001
 20
3.25324
 10
55.2606
 20
3.25324
 10
55.43939999999999
 20
3.199000000000001
 10
55.45880000000001
 20
3.188140000000001
 10
55.47739999999999
 20
3.178380000000001
 10
55.64019999999999
 20
3.01236
 10
55.6542
 20
2.9885
 10
55.6542
 20
3.209860000000001
  0
LWPOLYLINE
  5
C1
100
AcDbEntity
  8
0
  6
ByLayer
 62
    7
370
   -1
100
AcDbPolyline
 90
   13
 70
    1
 43
0
 10
57.40560000000001
 20
2.6977
 10
57.4034
 20
2.71722
 10
57.33200000000001
 20
2.873480000000001
 10
57.31880000000001
 20
2.884340000000001
 10
57.3058
 20
2.897360000000001
 10
57.17560000000002
 20
2.958120000000001
 10
57.13220000000001
 20
2.958120000000001
 10
57.0856
 20
2.958120000000001
 10
56.95740000000001
 20
2.90386
 10
56.9456
 20
2.893000000000001
 10
56.93260000000001
 20
2.88216
 10
56.85660000000001
 20
2.71938
 10
56.8544
 20
2.6977
  0
LWPOLYLINE
  5
C2
100
AcDbEntity
  8
0
  6
ByLayer
 62
    7
370
   -1
100
AcDbPolyline
 90
   42
 70
    1
 43
0
 10
57.883
 20
2.42862
 10
56.84140000000001
 20
2.42862
 10
56.84140000000001
 20
2.40256
 10
56.91079999999999
 20
2.196380000000001
 10
56.92380000000001
 20
2.1812
 10
56.93700000000001
 20
2.16712
 10
57.09640000000002
 20
2.09438
 10
57.14940000000001
 20
2.09438
 10
57.19620000000002
 20
2.09438
 10
57.32300000000001
 20
2.1313
 10
57.33620000000001
 20
2.1378
 10
57.34920000000001
 20
2.145380000000001
 10
57.44260000000001
 20
2.246300000000001
 10
57.44880000000001
 20
2.259340000000001
 10
57.81360000000001
 20
2.11176
 10
57.80279999999999
 20
2.0868
 10
57.61060000000001
 20
1.88826
 10
57.5836
 20
1.873060000000001
 10
57.55520000000001
 20
1.85894
 10
57.27000000000001
 20
1.78624
 10
57.17560000000002
 20
1.78624
 10
57.0322
 20
1.78624
 10
56.6384
 20
1.953340000000001
 10
56.6028
 20
1.98588
 10
56.56580000000001
 20
2.01844
 10
56.38560000000001
 20
2.3852
 10
56.38560000000001
 20
2.506720000000001
 10
56.38560000000001
 20
2.6402
 10
56.56580000000001
 20
3.00586
 10
56.6028
 20
3.04058
 10
56.6384
 20
3.07638
 10
57.0214
 20
3.25324
 10
57.14940000000001
 20
3.25324
 10
57.2842
 20
3.25324
 10
57.6542
 20
3.07638
 10
57.6878
 20
3.04058
 10
57.7038
 20
3.02214
 10
57.8266
 20
2.805120000000001
 10
57.8352
 20
2.78016
 10
57.84280000000001
 20
2.7563
 10
57.883
 20
2.52734
 10
57.883
 20
2.4503
  0
LWPOLYLINE
  5
C3
100
AcDbEntity
  8
0
  6
ByLayer
 62
    7
370
   -1
100
AcDbPolyline
 90
   38
 70
    1
 43
0
 10
58.1598
 20
1.838340000000001
 10
58.1598
 20
3.209860000000001
 10
58.60239999999999
 20
3.209860000000001
 10
58.60239999999999
 20
2.93208
 10
58.61760000000001
 20
2.9592
 10
58.8022
 20
3.162120000000001
 10
58.82380000000001
 20
3.175140000000001
 10
58.84440000000001
 20
3.188140000000001
 10
59.05620000000002
 20
3.25324
 10
59.12760000000002
 20
3.25324
 10
59.18720000000002
 20
3.25324
 10
59.3488
 20
3.21744
 10
59.36640000000001
 20
3.209860000000001
 10
59.3836
 20
3.203340000000001
 10
59.52019999999999
 20
3.10134
 10
59.5314
 20
3.088340000000001
 10
59.5412
 20
3.0753
 10
59.6062
 20
2.934260000000001
 10
59.60940000000001
 20
2.919060000000001
 10
59.6126
 20
2.90062
 10
59.63120000000001
 20
2.69336
 10
59.63120000000001
 20
2.62392
 10
59.63120000000001
 20
1.838340000000001
 10
59.1494
 20
1.838340000000001
 10
59.1494
 20
2.571840000000001
 10
59.1494
 20
2.631500000000001
 10
59.1058
 20
2.799700000000001
 10
59.0972
 20
2.810560000000001
 10
59.0874
 20
2.823560000000001
 10
58.96380000000001
 20
2.884340000000001
 10
58.92360000000001
 20
2.884340000000001
 10
58.86840000000001
 20
2.884340000000001
 10
58.71420000000001
 20
2.794280000000001
 10
58.7022
 20
2.775840000000001
 10
58.6902
 20
2.75738
 10
58.6328
 20
2.501300000000001
 10
58.6328
 20
2.41558
 10
58.6328
 20
1.838340000000001
  0
LWPOLYLINE
  5
C4
100
AcDbEntity
  8
0
  6
ByLayer
 62
    7
370
   -1
100
AcDbPolyline
 90
    4
 70
    1
 43
0
 10
60.1388
 20
2.82792
 10
61.76640000000002
 20
2.82792
 10
61.76640000000002
 20
2.506720000000001
 10
60.1388
 20
2.506720000000001
  0
LWPOLYLINE
  5
C5
100
AcDbEntity
  8
0
  6
ByLayer
 62
    7
370
   -1
100
AcDbPolyline
 90
   56
 70
    1
 43
0
 10
63.27260000000001
 20
2.75848
 10
63.25939999999999
 20
2.769300000000001
 10
63.1444
 20
2.845280000000001
 10
63.1336
 20
2.849620000000001
 10
63.12379999999999
 20
2.853940000000001
 10
63.0294
 20
2.875640000000001
 10
62.9992
 20
2.875640000000001
 10
62.94159999999999
 20
2.875640000000001
 10
62.78219999999999
 20
2.799700000000001
 10
62.76920000000001
 20
2.7845
 10
62.755
 20
2.769300000000001
 10
62.6866
 20
2.585940000000001
 10
62.6866
 20
2.524080000000001
 10
62.6866
 20
2.462260000000001
 10
62.75840000000001
 20
2.29188
 10
62.77340000000002
 20
2.2767
 10
62.7876
 20
2.261500000000001
 10
62.95580000000001
 20
2.1812
 10
63.01220000000001
 20
2.1812
 10
63.04579999999999
 20
2.1812
 10
63.1358
 20
2.20724
 10
63.14659999999999
 20
2.211580000000001
 10
63.15860000000001
 20
2.217020000000001
 10
63.2638
 20
2.28972
 10
63.27260000000001
 20
2.298380000000001
 10
63.27260000000001
 20
1.881720000000001
 10
63.25740000000002
 20
1.874140000000001
 10
63.10980000000001
 20
1.81228
 10
63.09480000000002
 20
1.80794
 10
63.07940000000002
 20
1.8047
 10
62.95699999999999
 20
1.78624
 10
62.9166
 20
1.78624
 10
62.7886
 20
1.78624
 10
62.43700000000001
 20
1.956620000000001
 10
62.4044
 20
1.990220000000001
 10
62.39359999999999
 20
2.001080000000001
 10
62.3026
 20
2.12478
 10
62.29620000000001
 20
2.1378
 10
62.28840000000001
 20
2.15192
 10
62.23420000000002
 20
2.30056
 10
62.2308
 20
2.31574
 10
62.2266
 20
2.33202
 10
62.20920000000001
 20
2.47634
 10
62.20920000000001
 20
2.524080000000001
 10
62.20920000000001
 20
2.65538
 10
62.37520000000001
 20
3.01564
 10
62.4088
 20
3.04926
 10
62.4414
 20
3.08398
 10
62.80380000000001
 20
3.25324
 10
62.9252
 20
3.25324
 10
62.97200000000001
 20
3.25324
 10
63.0966
 20
3.235880000000001
 10
63.11199999999999
 20
3.231560000000001
 10
63.12620000000003
 20
3.228300000000001
 10
63.25939999999999
 20
3.174060000000001
 10
63.27260000000001
 20
3.166440000000001
  0
LWPOLYLINE
  5
C6
100
AcDbEntity
  8
0
  6
ByLayer
 62
    7
370
   -1
100
AcDbPolyline
 90
   24
 70
    1
 43
0
 10
64.54000000000002
 20
2.51974
 10
64.54000000000002
 20
2.580500000000001
 10
64.47480000000002
 20
2.74762
 10
64.46199999999999
 20
2.7628
 10
64.44880000000001
 20
2.778
 10
64.3022
 20
2.849620000000001
 10
64.25360000000001
 20
2.849620000000001
 10
64.20139999999999
 20
2.849620000000001
 10
64.057
 20
2.778
 10
64.04520000000001
 20
2.7628
 10
64.03219999999999
 20
2.7487
 10
63.96699999999998
 20
2.577260000000001
 10
63.96699999999998
 20
2.51974
 10
63.96699999999998
 20
2.460080000000001
 10
64.02780000000001
 20
2.296220000000001
 10
64.04080000000002
 20
2.28102
 10
64.05380000000001
 20
2.265840000000001
 10
64.20360000000001
 20
2.18988
 10
64.25360000000001
 20
2.18988
 10
64.3066
 20
2.18988
 10
64.452
 20
2.265840000000001
 10
64.46620000000001
 20
2.28102
 10
64.47800000000002
 20
2.296220000000001
 10
64.54000000000002
 20
2.46442
  0
LWPOLYLINE
  5
C7
100
AcDbEntity
  8
0
  6
ByLayer
 62
    7
370
   -1
100
AcDbPolyline
 90
   48
 70
    1
 43
0
 10
65.02159999999999
 20
2.51974
 10
65.02159999999999
 20
2.44922
 10
64.97080000000001
 20
2.259340000000001
 10
64.96080000000001
 20
2.237640000000001
 10
64.95
 20
2.21484
 10
64.8134
 20
2.01628
 10
64.7962
 20
1.99892
 10
64.7752
 20
1.98156
 10
64.56920000000001
 20
1.847
 10
64.54860000000002
 20
1.838340000000001
 10
64.5258
 20
1.82964
 10
64.32079999999999
 20
1.78624
 10
64.25360000000001
 20
1.78624
 10
64.1798
 20
1.78624
 10
63.98
 20
1.82964
 10
63.95840000000001
 20
1.838340000000001
 10
63.93560000000001
 20
1.847
 10
63.7294
 20
1.98156
 10
63.71080000000001
 20
1.99892
 10
63.6914
 20
2.01736
 10
63.55799999999999
 20
2.21592
 10
63.5502
 20
2.237640000000001
 10
63.5394
 20
2.259340000000001
 10
63.4898
 20
2.454639999999999
 10
63.4898
 20
2.51974
 10
63.4898
 20
2.59028
 10
63.5394
 20
2.78016
 10
63.5502
 20
2.80186
 10
63.55919999999999
 20
2.824660000000001
 10
63.69260000000003
 20
3.023220000000001
 10
63.71080000000001
 20
3.04058
 10
63.72840000000002
 20
3.057940000000001
 10
63.93440000000001
 20
3.1925
 10
63.95840000000001
 20
3.201160000000001
 10
63.98
 20
3.209860000000001
 10
64.185
 20
3.25324
 10
64.25360000000001
 20
3.25324
 10
64.3272
 20
3.25324
 10
64.5258
 20
3.209860000000001
 10
64.54860000000002
 20
3.201160000000001
 10
64.57140000000003
 20
3.1925
 10
64.77760000000001
 20
3.057940000000001
 10
64.7962
 20
3.04058
 10
64.81440000000001
 20
3.0243
 10
64.9522
 20
2.82576
 10
64.96080000000001
 20
2.80186
 10
64.97080000000001
 20
2.78016
 10
65.02159999999999
 20
2.584860000000001
  0
LWPOLYLINE
  5
C8
100
AcDbEntity
  8
0
  6
ByLayer
 62
    7
370
   -1
100
AcDbPolyline
 90
   38
 70
    1
 43
0
 10
65.2984
 20
1.838340000000001
 10
65.2984
 20
3.209860000000001
 10
65.74120000000001
 20
3.209860000000001
 10
65.74120000000001
 20
2.93208
 10
65.75640000000001
 20
2.9592
 10
65.9408
 20
3.162120000000001
 10
65.9624
 20
3.175140000000001
 10
65.983
 20
3.188140000000001
 10
66.19479999999999
 20
3.25324
 10
66.2664
 20
3.25324
 10
66.32580000000002
 20
3.25324
 10
66.4876
 20
3.21744
 10
66.505
 20
3.209860000000001
 10
66.5222
 20
3.203340000000001
 10
66.65920000000001
 20
3.10134
 10
66.67000000000002
 20
3.088340000000001
 10
66.6798
 20
3.0753
 10
66.74480000000001
 20
2.934260000000001
 10
66.748
 20
2.919060000000001
 10
66.75140000000002
 20
2.90062
 10
66.76980000000002
 20
2.69336
 10
66.76980000000002
 20
2.62392
 10
66.76980000000002
 20
1.838340000000001
 10
66.28800000000001
 20
1.838340000000001
 10
66.28800000000001
 20
2.571840000000001
 10
66.28800000000001
 20
2.631500000000001
 10
66.2444
 20
2.799700000000001
 10
66.2358
 20
2.810560000000001
 10
66.22620000000001
 20
2.823560000000001
 10
66.10239999999999
 20
2.884340000000001
 10
66.06220000000002
 20
2.884340000000001
 10
66.00700000000001
 20
2.884340000000001
 10
65.8528
 20
2.794280000000001
 10
65.8408
 20
2.775840000000001
 10
65.8288
 20
2.75738
 10
65.7714
 20
2.501300000000001
 10
65.7714
 20
2.41558
 10
65.7714
 20
1.838340000000001
  0
LWPOLYLINE
  5
C9
100
AcDbEntity
  8
0
  6
ByLayer
 62
    7
370
   -1
100
AcDbPolyline
 90
   74
 70
    1
 43
0
 10
66.98560000000001
 20
1.951160000000001
 10
67.0856
 20
2.320080000000001
 10
67.1028
 20
2.30492
 10
67.29380000000002
 20
2.18988
 10
67.3156
 20
2.1812
 10
67.33720000000001
 20
2.17252
 10
67.51300000000002
 20
2.12912
 10
67.57160000000002
 20
2.12912
 10
67.60640000000001
 20
2.12912
 10
67.702
 20
2.15516
 10
67.7106
 20
2.1595
 10
67.71800000000002
 20
2.164940000000001
 10
67.75840000000001
 20
2.223520000000001
 10
67.75840000000001
 20
2.241980000000001
 10
67.75840000000001
 20
2.2767
 10
67.59859999999999
 20
2.373280000000001
 10
67.56720000000001
 20
2.38086
 10
67.5564
 20
2.38302
 10
67.47280000000001
 20
2.40472
 10
67.4674
 20
2.40688
 10
67.43060000000001
 20
2.417760000000001
 10
67.17020000000001
 20
2.547980000000001
 10
67.155
 20
2.563140000000001
 10
67.13760000000001
 20
2.579420000000001
 10
67.05500000000002
 20
2.7563
 10
67.05500000000002
 20
2.81488
 10
67.05500000000002
 20
2.894120000000001
 10
67.1778
 20
3.112200000000001
 10
67.20280000000001
 20
3.131720000000001
 10
67.22659999999999
 20
3.15234
 10
67.51420000000002
 20
3.25324
 10
67.61060000000001
 20
3.25324
 10
67.678
 20
3.25324
 10
67.8558
 20
3.228300000000001
 10
67.8798
 20
3.222860000000001
 10
67.8994
 20
3.21852
 10
68.13060000000002
 20
3.139340000000001
 10
68.1576
 20
3.12738
 10
68.0534
 20
2.7932
 10
68.03720000000001
 20
2.805120000000001
 10
67.87439999999999
 20
2.888660000000001
 10
67.858
 20
2.893000000000001
 10
67.84280000000001
 20
2.899520000000001
 10
67.70720000000001
 20
2.92772
 10
67.6628
 20
2.92772
 10
67.63140000000001
 20
2.92772
 10
67.54340000000001
 20
2.90602
 10
67.53700000000002
 20
2.9017
 10
67.5292
 20
2.897360000000001
 10
67.4936
 20
2.845280000000001
 10
67.4936
 20
2.82792
 10
67.4936
 20
2.79752
 10
67.652
 20
2.71506
 10
67.68440000000001
 20
2.70638
 10
67.6952
 20
2.70314
 10
67.74940000000002
 20
2.684660000000001
 10
67.74940000000002
 20
2.684660000000001
 10
67.79080000000002
 20
2.67384
 10
68.0838
 20
2.536020000000001
 10
68.10120000000001
 20
2.51974
 10
68.1164
 20
2.50238
 10
68.19660000000002
 20
2.316840000000001
 10
68.19660000000002
 20
2.255
 10
68.19660000000002
 20
2.170360000000001
 10
68.06200000000001
 20
1.938140000000001
 10
68.03620000000001
 20
1.916440000000001
 10
68.0078
 20
1.894740000000001
 10
67.70940000000002
 20
1.78624
 10
67.61060000000001
 20
1.78624
 10
67.5262
 20
1.78624
 10
67.298
 20
1.82314
 10
67.2722
 20
1.82964
 10
67.2462
 20
1.83616
 10
67.00740000000002
 20
1.938140000000001
  0
LWPOLYLINE
  5
CA
100
AcDbEntity
  8
0
  6
ByLayer
 62
    7
370
   -1
100
AcDbPolyline
 90
   42
 70
    1
 43
0
 10
69.86219999999999
 20
3.209860000000001
 10
69.86219999999999
 20
2.506720000000001
 10
69.86219999999999
 20
2.422080000000001
 10
69.83280000000001
 20
2.185560000000001
 10
69.82760000000002
 20
2.1682
 10
69.82080000000002
 20
2.149760000000001
 10
69.7124
 20
1.97938
 10
69.69720000000001
 20
1.9642
 10
69.68299999999999
 20
1.95008
 10
69.4956
 20
1.838340000000001
 10
69.47160000000002
 20
1.82964
 10
69.45
 20
1.82314
 10
69.22860000000001
 20
1.78624
 10
69.15480000000001
 20
1.78624
 10
69.07560000000001
 20
1.78624
 10
68.85980000000001
 20
1.82314
 10
68.8378
 20
1.82964
 10
68.81500000000001
 20
1.837260000000001
 10
68.623
 20
1.949000000000001
 10
68.6078
 20
1.9642
 10
68.59280000000001
 20
1.97938
 10
68.48740000000001
 20
2.145380000000001
 10
68.482
 20
2.16384
 10
68.47559999999999
 20
2.1812
 10
68.44300000000001
 20
2.42536
 10
68.44300000000001
 20
2.506720000000001
 10
68.44300000000001
 20
3.209860000000001
 10
68.90719999999999
 20
3.209860000000001
 10
68.90719999999999
 20
2.47634
 10
68.90719999999999
 20
2.4145
 10
68.9538
 20
2.241980000000001
 10
68.96380000000002
 20
2.228940000000001
 10
68.97239999999999
 20
2.21592
 10
69.1028
 20
2.150840000000001
 10
69.14620000000001
 20
2.150840000000001
 10
69.19280000000002
 20
2.150840000000001
 10
69.32300000000001
 20
2.212660000000001
 10
69.33280000000001
 20
2.224620000000001
 10
69.34140000000001
 20
2.237640000000001
 10
69.38920000000002
 20
2.41666
 10
69.38920000000002
 20
2.47634
 10
69.38920000000002
 20
3.209860000000001
  0
LWPOLYLINE
  5
CB
100
AcDbEntity
  8
0
  6
ByLayer
 62
    7
370
   -1
100
AcDbPolyline
 90
   65
 70
    1
 43
0
 10
72.0184
 20
1.838340000000001
 10
72.0184
 20
2.584860000000001
 10
72.0184
 20
2.645620000000001
 10
71.98560000000001
 20
2.81706
 10
71.97919999999999
 20
2.82792
 10
71.97060000000002
 20
2.83984
 10
71.85980000000001
 20
2.897360000000001
 10
71.82300000000001
 20
2.897360000000001
 10
71.77640000000002
 20
2.897360000000001
 10
71.64500000000001
 20
2.821380000000001
 10
71.63639999999998
 20
2.8062
 10
71.62760000000002
 20
2.791020000000001
 10
71.5842
 20
2.51326
 10
71.5842
 20
2.419920000000001
 10
71.5842
 20
1.838340000000001
 10
71.11560000000003
 20
1.838340000000001
 10
71.11560000000003
 20
2.584860000000001
 10
71.11560000000003
 20
2.6467
 10
71.07860000000001
 20
2.821380000000001
 10
71.072
 20
2.83224
 10
71.0656
 20
2.843120000000001
 10
70.95580000000001
 20
2.897360000000001
 10
70.92020000000001
 20
2.897360000000001
 10
70.8724
 20
2.897360000000001
 10
70.73779999999999
 20
2.821380000000001
 10
70.72919999999999
 20
2.8062
 10
70.72060000000002
 20
2.791020000000001
 10
70.6772
 20
2.51326
 10
70.6772
 20
2.419920000000001
 10
70.6772
 20
1.838340000000001
 10
70.20840000000001
 20
1.838340000000001
 10
70.20840000000001
 20
3.209860000000001
 10
70.6814
 20
3.209860000000001
 10
70.6814
 20
2.971140000000001
 10
70.6956
 20
2.995000000000001
 10
70.86160000000001
 20
3.172980000000001
 10
70.88119999999999
 20
3.183800000000001
 10
70.89840000000002
 20
3.19576
 10
71.0838
 20
3.25324
 10
71.14580000000001
 20
3.25324
 10
71.21420000000001
 20
3.25324
 10
71.4008
 20
3.199000000000001
 10
71.4192
 20
3.188140000000001
 10
71.4366
 20
3.177300000000001
 10
71.5626
 20
3.01452
 10
71.5712
 20
2.992840000000001
 10
71.5842
 20
3.01564
 10
71.74700000000001
 20
3.178380000000001
 10
71.7664
 20
3.188140000000001
 10
71.785
 20
3.199000000000001
 10
71.97279999999999
 20
3.25324
 10
72.0356
 20
3.25324
 10
72.08980000000003
 20
3.25324
 10
72.23740000000001
 20
3.21744
 10
72.25260000000002
 20
3.209860000000001
 10
72.26779999999999
 20
3.203340000000001
 10
72.39800000000001
 20
3.10134
 10
72.4088
 20
3.088340000000001
 10
72.41759999999999
 20
3.07748
 10
72.47500000000001
 20
2.95162
 10
72.47840000000002
 20
2.93642
 10
72.48160000000001
 20
2.923380000000001
 10
72.5
 20
2.721580000000001
 10
72.5
 20
2.6543
 10
72.5
 20
1.838340000000001
  0
LWPOLYLINE
  5
CC
100
AcDbEntity
  8
0
  6
ByLayer
 62
    7
370
   -1
100
AcDbPolyline
 90
   24
 70
    1
 43
0
 10
73.27260000000001
 20
2.51974
 10
73.27260000000001
 20
2.455719999999999
 10
73.3442
 20
2.27994
 10
73.35940000000001
 20
2.263660000000001
 10
73.3724
 20
2.24956
 10
73.53519999999999
 20
2.17686
 10
73.58940000000001
 20
2.17686
 10
73.64699999999999
 20
2.17686
 10
73.80520000000001
 20
2.24956
 10
73.8194
 20
2.263660000000001
 10
73.83260000000001
 20
2.27994
 10
73.902
 20
2.460080000000001
 10
73.902
 20
2.51974
 10
73.902
 20
2.582700000000001
 10
73.83260000000001
 20
2.7563
 10
73.8194
 20
2.77148
 10
73.80420000000002
 20
2.78666
 10
73.6426
 20
2.862640000000001
 10
73.58940000000001
 20
2.862640000000001
 10
73.532
 20
2.862640000000001
 10
73.3724
 20
2.78666
 10
73.35940000000001
 20
2.77148
 10
73.3442
 20
2.7563
 10
73.27260000000001
 20
2.579420000000001
  0
LWPOLYLINE
  5
CD
100
AcDbEntity
  8
0
  6
ByLayer
 62
    7
370
   -1
100
AcDbPolyline
 90
   41
 70
    1
 43
0
 10
72.8472
 20
1.23502
 10
72.8472
 20
3.205500000000001
 10
73.29000000000002
 20
3.205500000000001
 10
73.29000000000002
 20
2.9798
 10
73.30419999999999
 20
3.00152
 10
73.4778
 20
3.17188
 10
73.4984
 20
3.183800000000001
 10
73.51660000000003
 20
3.19466
 10
73.69479999999999
 20
3.24892
 10
73.75439999999999
 20
3.24892
 10
73.8194
 20
3.24892
 10
73.99520000000001
 20
3.209860000000001
 10
74.01479999999999
 20
3.201160000000001
 10
74.03420000000001
 20
3.19358
 10
74.2002
 20
3.07098
 10
74.21440000000001
 20
3.05362
 10
74.2426
 20
3.02214
 10
74.3836
 20
2.645620000000001
 10
74.3836
 20
2.51974
 10
74.3836
 20
2.38736
 10
74.2426
 20
2.02386
 10
74.21440000000001
 20
1.990220000000001
 10
74.1992
 20
1.972860000000001
 10
74.03640000000001
 20
1.847
 10
74.01920000000001
 20
1.838340000000001
 10
74.00060000000002
 20
1.82964
 10
73.828
 20
1.78624
 10
73.77159999999999
 20
1.78624
 10
73.7
 20
1.78624
 10
73.50260000000002
 20
1.8405
 10
73.48520000000002
 20
1.85134
 10
73.46780000000001
 20
1.862200000000001
 10
73.30840000000001
 20
2.035800000000001
 10
73.2942
 20
2.059660000000001
 10
73.2942
 20
2.055340000000001
 10
73.30200000000001
 20
1.971780000000001
 10
73.303
 20
1.95986
 10
73.303
 20
1.953340000000001
 10
73.30719999999999
 20
1.85134
 10
73.30719999999999
 20
1.81662
 10
73.30719999999999
 20
1.23502
  0
LWPOLYLINE
  5
CE
100
AcDbEntity
  8
0
  6
ByLayer
 62
    7
370
   -1
100
AcDbPolyline
 90
   12
 70
    1
 43
0
 10
74.7548
 20
1.838340000000001
 10
74.75059999999999
 20
2.866980000000001
 10
74.54640000000001
 20
2.866980000000001
 10
74.54640000000001
 20
3.209860000000001
 10
74.75059999999999
 20
3.209860000000001
 10
74.75059999999999
 20
3.617840000000001
 10
75.2278
 20
3.617840000000001
 10
75.2278
 20
3.209860000000001
 10
75.43200000000002
 20
3.209860000000001
 10
75.43200000000002
 20
2.866980000000001
 10
75.2278
 20
2.866980000000001
 10
75.2278
 20
1.838340000000001
  0
LWPOLYLINE
  5
CF
100
AcDbEntity
  8
0
  6
ByLayer
 62
    7
370
   -1
100
AcDbPolyline
 90
    4
 70
    1
 43
0
 10
75.6434
 20
1.838340000000001
 10
75.6434
 20
3.209860000000001
 10
76.12940000000002
 20
3.209860000000001
 10
76.12940000000002
 20
1.838340000000001
  0
LWPOLYLINE
  5
D0
100
AcDbEntity
  8
0
  6
ByLayer
 62
    7
370
   -1
100
AcDbPolyline
 90
   24
 70
    1
 43
0
 10
75.7086
 20
3.56142
 10
75.7086
 20
3.59288
 10
75.75200000000001
 20
3.67862
 10
75.76060000000001
 20
3.68728
 10
75.7694
 20
3.69598
 10
75.86060000000001
 20
3.73936
 10
75.8908
 20
3.73936
 10
75.9222
 20
3.73936
 10
76.008
 20
3.69598
 10
76.01660000000003
 20
3.68728
 10
76.0252
 20
3.6797
 10
76.06880000000001
 20
3.591799999999999
 10
76.06880000000001
 20
3.56142
 10
76.06880000000001
 20
3.528860000000001
 10
76.0252
 20
3.43988
 10
76.01660000000003
 20
3.4312
 10
76.008
 20
3.42252
 10
75.92020000000001
 20
3.37912
 10
75.8908
 20
3.37912
 10
75.85839999999999
 20
3.37912
 10
75.7694
 20
3.42686
 10
75.76060000000001
 20
3.43556
 10
75.75200000000001
 20
3.444220000000001
 10
75.7086
 20
3.532120000000001
  0
LWPOLYLINE
  5
D1
100
AcDbEntity
  8
0
  6
ByLayer
 62
    7
370
   -1
100
AcDbPolyline
 90
   24
 70
    1
 43
0
 10
77.49560000000002
 20
2.51974
 10
77.49560000000002
 20
2.580500000000001
 10
77.43060000000001
 20
2.74762
 10
77.41759999999999
 20
2.7628
 10
77.4044
 20
2.778
 10
77.258
 20
2.849620000000001
 10
77.2092
 20
2.849620000000001
 10
77.15719999999999
 20
2.849620000000001
 10
77.01280000000003
 20
2.778
 10
77.00080000000001
 20
2.7628
 10
76.98779999999999
 20
2.7487
 10
76.92280000000001
 20
2.577260000000001
 10
76.92280000000001
 20
2.51974
 10
76.92280000000001
 20
2.460080000000001
 10
76.98360000000001
 20
2.296220000000001
 10
76.9966
 20
2.28102
 10
77.00939999999999
 20
2.265840000000001
 10
77.15920000000001
 20
2.18988
 10
77.2092
 20
2.18988
 10
77.26240000000001
 20
2.18988
 10
77.40780000000001
 20
2.265840000000001
 10
77.42200000000001
 20
2.28102
 10
77.43380000000001
 20
2.296220000000001
 10
77.49560000000002
 20
2.46442
  0
LWPOLYLINE
  5
D2
100
AcDbEntity
  8
0
  6
ByLayer
 62
    7
370
   -1
100
AcDbPolyline
 90
   48
 70
    1
 43
0
 10
77.97739999999999
 20
2.51974
 10
77.97739999999999
 20
2.44922
 10
77.92640000000002
 20
2.259340000000001
 10
77.9166
 20
2.237640000000001
 10
77.9058
 20
2.21484
 10
77.76920000000001
 20
2.01628
 10
77.75160000000001
 20
1.99892
 10
77.73120000000002
 20
1.98156
 10
77.52500000000001
 20
1.847
 10
77.50439999999999
 20
1.838340000000001
 10
77.48160000000001
 20
1.82964
 10
77.2764
 20
1.78624
 10
77.2092
 20
1.78624
 10
77.13560000000001
 20
1.78624
 10
76.93580000000003
 20
1.82964
 10
76.91420000000001
 20
1.838340000000001
 10
76.8914
 20
1.847
 10
76.685
 20
1.98156
 10
76.6666
 20
1.99892
 10
76.6472
 20
2.01736
 10
76.5136
 20
2.21592
 10
76.50619999999999
 20
2.237640000000001
 10
76.49520000000001
 20
2.259340000000001
 10
76.4452
 20
2.454639999999999
 10
76.4452
 20
2.51974
 10
76.4452
 20
2.59028
 10
76.49520000000001
 20
2.78016
 10
76.50619999999999
 20
2.80186
 10
76.51479999999999
 20
2.824660000000001
 10
76.6484
 20
3.023220000000001
 10
76.6666
 20
3.04058
 10
76.68419999999999
 20
3.057940000000001
 10
76.89020000000001
 20
3.1925
 10
76.91420000000001
 20
3.201160000000001
 10
76.93580000000003
 20
3.209860000000001
 10
77.1408
 20
3.25324
 10
77.2092
 20
3.25324
 10
77.28300000000002
 20
3.25324
 10
77.48160000000001
 20
3.209860000000001
 10
77.50439999999999
 20
3.201160000000001
 10
77.52719999999999
 20
3.1925
 10
77.73339999999999
 20
3.057940000000001
 10
77.75160000000001
 20
3.04058
 10
77.7702
 20
3.0243
 10
77.90800000000002
 20
2.82576
 10
77.9166
 20
2.80186
 10
77.92640000000002
 20
2.78016
 10
77.97739999999999
 20
2.584860000000001
  0
LWPOLYLINE
  5
D3
100
AcDbEntity
  8
0
  6
ByLayer
 62
    7
370
   -1
100
AcDbPolyline
 90
   38
 70
    1
 43
0
 10
78.2542
 20
1.838340000000001
 10
78.2542
 20
3.209860000000001
 10
78.697
 20
3.209860000000001
 10
78.697
 20
2.93208
 10
78.71199999999999
 20
2.9592
 10
78.8964
 20
3.162120000000001
 10
78.91800000000001
 20
3.175140000000001
 10
78.9388
 20
3.188140000000001
 10
79.1502
 20
3.25324
 10
79.22200000000001
 20
3.25324
 10
79.28160000000001
 20
3.25324
 10
79.4434
 20
3.21744
 10
79.46080000000001
 20
3.209860000000001
 10
79.47800000000002
 20
3.203340000000001
 10
79.6148
 20
3.10134
 10
79.62560000000002
 20
3.088340000000001
 10
79.63560000000001
 20
3.0753
 10
79.70060000000001
 20
2.934260000000001
 10
79.7038
 20
2.919060000000001
 10
79.70700000000002
 20
2.90062
 10
79.72559999999999
 20
2.69336
 10
79.72559999999999
 20
2.62392
 10
79.72559999999999
 20
1.838340000000001
 10
79.2436
 20
1.838340000000001
 10
79.2436
 20
2.571840000000001
 10
79.2436
 20
2.631500000000001
 10
79.2002
 20
2.799700000000001
 10
79.19159999999999
 20
2.810560000000001
 10
79.18200000000002
 20
2.823560000000001
 10
79.05799999999999
 20
2.884340000000001
 10
79.01800000000001
 20
2.884340000000001
 10
78.96280000000002
 20
2.884340000000001
 10
78.80860000000001
 20
2.794280000000001
 10
78.7966
 20
2.775840000000001
 10
78.7848
 20
2.75738
 10
78.7272
 20
2.501300000000001
 10
78.7272
 20
2.41558
 10
78.7272
 20
1.838340000000001
  0
LWPOLYLINE
  5
D4
100
AcDbEntity
  8
0
  6
ByLayer
 62
    7
370
   -1
100
AcDbPolyline
 90
    4
 70
    1
 43
0
 10
80.23220000000002
 20
2.82792
 10
81.85980000000001
 20
2.82792
 10
81.85980000000001
 20
2.506720000000001
 10
80.23220000000002
 20
2.506720000000001
  0
LWPOLYLINE
  5
D5
100
AcDbEntity
  8
0
  6
ByLayer
 62
    7
370
   -1
100
AcDbPolyline
 90
   56
 70
    1
 43
0
 10
83.36700000000002
 20
2.75848
 10
83.35380000000001
 20
2.769300000000001
 10
83.23880000000003
 20
2.845280000000001
 10
83.22800000000002
 20
2.849620000000001
 10
83.2184
 20
2.853940000000001
 10
83.12379999999999
 20
2.875640000000001
 10
83.0936
 20
2.875640000000001
 10
83.03620000000001
 20
2.875640000000001
 10
82.87639999999999
 20
2.799700000000001
 10
82.86360000000001
 20
2.7845
 10
82.84940000000002
 20
2.769300000000001
 10
82.7812
 20
2.585940000000001
 10
82.7812
 20
2.524080000000001
 10
82.7812
 20
2.462260000000001
 10
82.8528
 20
2.29188
 10
82.86780000000002
 20
2.2767
 10
82.88200000000001
 20
2.261500000000001
 10
83.05000000000001
 20
2.1812
 10
83.10660000000001
 20
2.1812
 10
83.14020000000001
 20
2.1812
 10
83.2302
 20
2.20724
 10
83.24120000000001
 20
2.211580000000001
 10
83.253
 20
2.217020000000001
 10
83.35839999999999
 20
2.28972
 10
83.36700000000002
 20
2.298380000000001
 10
83.36700000000002
 20
1.881720000000001
 10
83.35160000000002
 20
1.874140000000001
 10
83.20420000000001
 20
1.81228
 10
83.1888
 20
1.80794
 10
83.17380000000001
 20
1.8047
 10
83.05119999999999
 20
1.78624
 10
83.01119999999999
 20
1.78624
 10
82.883
 20
1.78624
 10
82.53140000000002
 20
1.956620000000001
 10
82.49879999999999
 20
1.990220000000001
 10
82.488
 20
2.001080000000001
 10
82.39699999999999
 20
2.12478
 10
82.39020000000001
 20
2.1378
 10
82.3828
 20
2.15192
 10
82.32860000000001
 20
2.30056
 10
82.3252
 20
2.31574
 10
82.32080000000002
 20
2.33202
 10
82.30359999999999
 20
2.47634
 10
82.30359999999999
 20
2.524080000000001
 10
82.30359999999999
 20
2.65538
 10
82.46980000000002
 20
3.01564
 10
82.5034
 20
3.04926
 10
82.53579999999999
 20
3.08398
 10
82.8984
 20
3.25324
 10
83.01980000000002
 20
3.25324
 10
83.0664
 20
3.25324
 10
83.19120000000001
 20
3.235880000000001
 10
83.20639999999999
 20
3.231560000000001
 10
83.22060000000002
 20
3.228300000000001
 10
83.35380000000001
 20
3.174060000000001
 10
83.36700000000002
 20
3.166440000000001
  0
LWPOLYLINE
  5
D6
100
AcDbEntity
  8
0
  6
ByLayer
 62
    7
370
   -1
100
AcDbPolyline
 90
   24
 70
    1
 43
0
 10
84.63440000000001
 20
2.51974
 10
84.63440000000001
 20
2.580500000000001
 10
84.56920000000001
 20
2.74762
 10
84.55619999999999
 20
2.7628
 10
84.54300000000001
 20
2.778
 10
84.39659999999999
 20
2.849620000000001
 10
84.34780000000001
 20
2.849620000000001
 10
84.29579999999999
 20
2.849620000000001
 10
84.1514
 20
2.778
 10
84.13940000000001
 20
2.7628
 10
84.12639999999999
 20
2.7487
 10
84.06140000000001
 20
2.577260000000001
 10
84.06140000000001
 20
2.51974
 10
84.06140000000001
 20
2.460080000000001
 10
84.12220000000001
 20
2.296220000000001
 10
84.13520000000001
 20
2.28102
 10
84.1484
 20
2.265840000000001
 10
84.298
 20
2.18988
 10
84.34780000000001
 20
2.18988
 10
84.4012
 20
2.18988
 10
84.54640000000001
 20
2.265840000000001
 10
84.56060000000001
 20
2.28102
 10
84.57259999999999
 20
2.296220000000001
 10
84.63440000000001
 20
2.46442
  0
LWPOLYLINE
  5
D7
100
AcDbEntity
  8
0
  6
ByLayer
 62
    7
370
   -1
100
AcDbPolyline
 90
   48
 70
    1
 43
0
 10
85.11620000000001
 20
2.51974
 10
85.11620000000001
 20
2.44922
 10
85.06500000000001
 20
2.259340000000001
 10
85.05520000000001
 20
2.237640000000001
 10
85.0444
 20
2.21484
 10
84.90780000000001
 20
2.01628
 10
84.89020000000001
 20
1.99892
 10
84.86980000000001
 20
1.98156
 10
84.6636
 20
1.847
 10
84.64300000000001
 20
1.838340000000001
 10
84.62020000000001
 20
1.82964
 10
84.41520000000001
 20
1.78624
 10
84.34780000000001
 20
1.78624
 10
84.27420000000001
 20
1.78624
 10
84.0744
 20
1.82964
 10
84.0528
 20
1.838340000000001
 10
84.03
 20
1.847
 10
83.82380000000001
 20
1.98156
 10
83.80520000000001
 20
1.99892
 10
83.78579999999999
 20
2.01736
 10
83.65220000000002
 20
2.21592
 10
83.64480000000002
 20
2.237640000000001
 10
83.63380000000001
 20
2.259340000000001
 10
83.5838
 20
2.454639999999999
 10
83.5838
 20
2.51974
 10
83.5838
 20
2.59028
 10
83.63380000000001
 20
2.78016
 10
83.64480000000002
 20
2.80186
 10
83.65339999999999
 20
2.824660000000001
 10
83.78700000000002
 20
3.023220000000001
 10
83.80520000000001
 20
3.04058
 10
83.82280000000002
 20
3.057940000000001
 10
84.0288
 20
3.1925
 10
84.0528
 20
3.201160000000001
 10
84.0744
 20
3.209860000000001
 10
84.2794
 20
3.25324
 10
84.34780000000001
 20
3.25324
 10
84.4216
 20
3.25324
 10
84.62020000000001
 20
3.209860000000001
 10
84.64300000000001
 20
3.201160000000001
 10
84.66580000000002
 20
3.1925
 10
84.87200000000001
 20
3.057940000000001
 10
84.89020000000001
 20
3.04058
 10
84.9088
 20
3.0243
 10
85.0466
 20
2.82576
 10
85.05520000000001
 20
2.80186
 10
85.06500000000001
 20
2.78016
 10
85.11620000000001
 20
2.584860000000001
  0
LWPOLYLINE
  5
D8
100
AcDbEntity
  8
0
  6
ByLayer
 62
    7
370
   -1
100
AcDbPolyline
 90
   38
 70
    1
 43
0
 10
85.39279999999999
 20
1.838340000000001
 10
85.39279999999999
 20
3.209860000000001
 10
85.8356
 20
3.209860000000001
 10
85.8356
 20
2.93208
 10
85.85080000000001
 20
2.9592
 10
86.03519999999999
 20
3.162120000000001
 10
86.05700000000002
 20
3.175140000000001
 10
86.07760000000002
 20
3.188140000000001
 10
86.28920000000001
 20
3.25324
 10
86.36060000000001
 20
3.25324
 10
86.42020000000001
 20
3.25324
 10
86.58200000000002
 20
3.21744
 10
86.59940000000002
 20
3.209860000000001
 10
86.61660000000001
 20
3.203340000000001
 10
86.75360000000001
 20
3.10134
 10
86.76440000000001
 20
3.088340000000001
 10
86.77420000000001
 20
3.0753
 10
86.83920000000001
 20
2.934260000000001
 10
86.8424
 20
2.919060000000001
 10
86.84580000000001
 20
2.90062
 10
86.86420000000001
 20
2.69336
 10
86.86420000000001
 20
2.62392
 10
86.86420000000001
 20
1.838340000000001
 10
86.38240000000002
 20
1.838340000000001
 10
86.38240000000002
 20
2.571840000000001
 10
86.38240000000002
 20
2.631500000000001
 10
86.33879999999999
 20
2.799700000000001
 10
86.33019999999999
 20
2.810560000000001
 10
86.3206
 20
2.823560000000001
 10
86.197
 20
2.884340000000001
 10
86.15660000000001
 20
2.884340000000001
 10
86.1014
 20
2.884340000000001
 10
85.94720000000001
 20
2.794280000000001
 10
85.93520000000001
 20
2.775840000000001
 10
85.9234
 20
2.75738
 10
85.86579999999999
 20
2.501300000000001
 10
85.86579999999999
 20
2.41558
 10
85.86579999999999
 20
1.838340000000001
  0
LWPOLYLINE
  5
D9
100
AcDbEntity
  8
0
  6
ByLayer
 62
    7
370
   -1
100
AcDbPolyline
 90
   19
 70
    1
 43
0
 10
87.61840000000001
 20
1.838340000000001
 10
87.00200000000001
 20
3.209860000000001
 10
87.5184
 20
3.209860000000001
 10
87.75280000000001
 20
2.60222
 10
87.75280000000001
 20
2.60222
 10
87.76060000000001
 20
2.583780000000001
 10
87.76140000000001
 20
2.580500000000001
 10
87.76800000000001
 20
2.564240000000001
 10
87.81479999999999
 20
2.40472
 10
87.81800000000001
 20
2.38952
 10
87.82000000000001
 20
2.40256
 10
87.86360000000001
 20
2.550140000000001
 10
87.87
 20
2.5675
 10
87.87
 20
2.56966
 10
87.88080000000001
 20
2.597860000000001
 10
87.883
 20
2.60222
 10
88.1174
 20
3.209860000000001
 10
88.6208
 20
3.209860000000001
 10
87.99580000000002
 20
1.838340000000001
  0
LWPOLYLINE
  5
DA
100
AcDbEntity
  8
0
  6
ByLayer
 62
    7
370
   -1
100
AcDbPolyline
 90
   13
 70
    1
 43
0
 10
89.7148
 20
2.6977
 10
89.7124
 20
2.71722
 10
89.64079999999998
 20
2.873480000000001
 10
89.62780000000001
 20
2.884340000000001
 10
89.6148
 20
2.897360000000001
 10
89.48480000000001
 20
2.958120000000001
 10
89.44120000000001
 20
2.958120000000001
 10
89.39439999999999
 20
2.958120000000001
 10
89.2664
 20
2.90386
 10
89.2544
 20
2.893000000000001
 10
89.24160000000003
 20
2.88216
 10
89.16560000000001
 20
2.71938
 10
89.1634
 20
2.6977
  0
LWPOLYLINE
  5
DB
100
AcDbEntity
  8
0
  6
ByLayer
 62
    7
370
   -1
100
AcDbPolyline
 90
   42
 70
    1
 43
0
 10
90.19200000000001
 20
2.42862
 10
89.15020000000001
 20
2.42862
 10
89.15020000000001
 20
2.40256
 10
89.21979999999999
 20
2.196380000000001
 10
89.2328
 20
2.1812
 10
89.2458
 20
2.16712
 10
89.40520000000001
 20
2.09438
 10
89.45860000000002
 20
2.09438
 10
89.5052
 20
2.09438
 10
89.63219999999998
 20
2.1313
 10
89.64520000000002
 20
2.1378
 10
89.6584
 20
2.145380000000001
 10
89.75139999999999
 20
2.246300000000001
 10
89.75800000000001
 20
2.259340000000001
 10
90.12260000000001
 20
2.11176
 10
90.11160000000001
 20
2.0868
 10
89.91980000000001
 20
1.88826
 10
89.89259999999999
 20
1.873060000000001
 10
89.86440000000002
 20
1.85894
 10
89.5788
 20
1.78624
 10
89.48480000000001
 20
1.78624
 10
89.34139999999999
 20
1.78624
 10
88.94759999999999
 20
1.953340000000001
 10
88.91159999999999
 20
1.98588
 10
88.87480000000002
 20
2.01844
 10
88.69479999999999
 20
2.3852
 10
88.69479999999999
 20
2.506720000000001
 10
88.69479999999999
 20
2.6402
 10
88.87480000000002
 20
3.00586
 10
88.91159999999999
 20
3.04058
 10
88.94759999999999
 20
3.07638
 10
89.3306
 20
3.25324
 10
89.45860000000002
 20
3.25324
 10
89.59300000000002
 20
3.25324
 10
89.96299999999999
 20
3.07638
 10
89.99660000000003
 20
3.04058
 10
90.01300000000001
 20
3.02214
 10
90.13560000000001
 20
2.805120000000001
 10
90.14439999999999
 20
2.78016
 10
90.15200000000002
 20
2.7563
 10
90.19200000000001
 20
2.52734
 10
90.19200000000001
 20
2.4503
  0
LWPOLYLINE
  5
DC
100
AcDbEntity
  8
0
  6
ByLayer
 62
    7
370
   -1
100
AcDbPolyline
 90
   33
 70
    1
 43
0
 10
90.4742
 20
1.838340000000001
 10
90.4742
 20
3.209860000000001
 10
90.93000000000001
 20
3.209860000000001
 10
90.93000000000001
 20
2.884340000000001
 10
90.9408
 20
2.91472
 10
91.1002
 20
3.134980000000001
 10
91.1208
 20
3.149080000000001
 10
91.14020000000002
 20
3.16428
 10
91.34660000000002
 20
3.24022
 10
91.4162
 20
3.24022
 10
91.43119999999999
 20
3.24022
 10
91.47239999999999
 20
3.23698
 10
91.47660000000002
 20
3.235880000000001
 10
91.48339999999999
 20
3.235880000000001
 10
91.50060000000002
 20
3.232640000000001
 10
91.50280000000001
 20
3.231560000000001
 10
91.51060000000001
 20
3.231560000000001
 10
91.5266
 20
3.231560000000001
 10
91.5334
 20
3.231560000000001
 10
91.48560000000001
 20
2.78884
 10
91.47660000000002
 20
2.79212
 10
91.40520000000001
 20
2.813800000000001
 10
91.39860000000002
 20
2.81488
 10
91.38999999999999
 20
2.81598
 10
91.32059999999998
 20
2.819220000000001
 10
91.32059999999998
 20
2.819220000000001
 10
91.25220000000002
 20
2.819220000000001
 10
91.06220000000002
 20
2.72916
 10
91.0472
 20
2.710720000000001
 10
91.0308
 20
2.69336
 10
90.95160000000001
 20
2.478520000000001
 10
90.95160000000001
 20
2.40688
 10
90.95160000000001
 20
1.838340000000001
  0
LWPOLYLINE
  5
DD
100
AcDbEntity
  8
0
  6
ByLayer
 62
    7
370
   -1
100
AcDbPolyline
 90
   74
 70
    1
 43
0
 10
91.58419999999998
 20
1.951160000000001
 10
91.6842
 20
2.320080000000001
 10
91.70140000000001
 20
2.30492
 10
91.89240000000001
 20
2.18988
 10
91.91420000000002
 20
2.1812
 10
91.93580000000003
 20
2.17252
 10
92.11160000000001
 20
2.12912
 10
92.17019999999999
 20
2.12912
 10
92.20500000000001
 20
2.12912
 10
92.30019999999999
 20
2.15516
 10
92.3092
 20
2.1595
 10
92.31659999999999
 20
2.164940000000001
 10
92.35660000000001
 20
2.223520000000001
 10
92.35660000000001
 20
2.241980000000001
 10
92.35660000000001
 20
2.2767
 10
92.19720000000001
 20
2.373280000000001
 10
92.16580000000002
 20
2.38086
 10
92.155
 20
2.38302
 10
92.07140000000001
 20
2.40472
 10
92.06619999999998
 20
2.40688
 10
92.02920000000003
 20
2.417760000000001
 10
91.76859999999999
 20
2.547980000000001
 10
91.75360000000001
 20
2.563140000000001
 10
91.73620000000003
 20
2.579420000000001
 10
91.65360000000001
 20
2.7563
 10
91.65360000000001
 20
2.81488
 10
91.65360000000001
 20
2.894120000000001
 10
91.77640000000002
 20
3.112200000000001
 10
91.80119999999999
 20
3.131720000000001
 10
91.82500000000002
 20
3.15234
 10
92.11260000000001
 20
3.25324
 10
92.20919999999998
 20
3.25324
 10
92.2764
 20
3.25324
 10
92.45440000000002
 20
3.228300000000001
 10
92.47840000000002
 20
3.222860000000001
 10
92.49779999999998
 20
3.21852
 10
92.72880000000001
 20
3.139340000000001
 10
92.75620000000001
 20
3.12738
 10
92.65200000000002
 20
2.7932
 10
92.63560000000001
 20
2.805120000000001
 10
92.47280000000001
 20
2.888660000000001
 10
92.45660000000001
 20
2.893000000000001
 10
92.44140000000002
 20
2.899520000000001
 10
92.3058
 20
2.92772
 10
92.26139999999998
 20
2.92772
 10
92.22980000000001
 20
2.92772
 10
92.14200000000002
 20
2.90602
 10
92.13560000000001
 20
2.9017
 10
92.12780000000001
 20
2.897360000000001
 10
92.09199999999998
 20
2.845280000000001
 10
92.09199999999998
 20
2.82792
 10
92.09199999999998
 20
2.79752
 10
92.25059999999999
 20
2.71506
 10
92.28300000000002
 20
2.70638
 10
92.2938
 20
2.70314
 10
92.34800000000001
 20
2.684660000000001
 10
92.34800000000001
 20
2.684660000000001
 10
92.38939999999999
 20
2.67384
 10
92.68219999999999
 20
2.536020000000001
 10
92.69980000000001
 20
2.51974
 10
92.71480000000003
 20
2.50238
 10
92.79519999999999
 20
2.316840000000001
 10
92.79519999999999
 20
2.255
 10
92.79519999999999
 20
2.170360000000001
 10
92.66060000000002
 20
1.938140000000001
 10
92.6344
 20
1.916440000000001
 10
92.60640000000001
 20
1.894740000000001
 10
92.30799999999999
 20
1.78624
 10
92.20919999999998
 20
1.78624
 10
92.12440000000001
 20
1.78624
 10
91.89660000000001
 20
1.82314
 10
91.87060000000002
 20
1.82964
 10
91.84480000000002
 20
1.83616
 10
91.60580000000002
 20
1.938140000000001
  0
LWPOLYLINE
  5
DE
100
AcDbEntity
  8
0
  6
ByLayer
 62
    7
370
   -1
100
AcDbPolyline
 90
    4
 70
    1
 43
0
 10
93.04140000000001
 20
1.838340000000001
 10
93.04140000000001
 20
3.209860000000001
 10
93.52760000000001
 20
3.209860000000001
 10
93.52760000000001
 20
1.838340000000001
  0
LWPOLYLINE
  5
DF
100
AcDbEntity
  8
0
  6
ByLayer
 62
    7
370
   -1
100
AcDbPolyline
 90
   24
 70
    1
 43
0
 10
93.10660000000001
 20
3.56142
 10
93.10660000000001
 20
3.59288
 10
93.15000000000001
 20
3.67862
 10
93.15860000000001
 20
3.68728
 10
93.16720000000001
 20
3.69598
 10
93.25839999999999
 20
3.73936
 10
93.28880000000001
 20
3.73936
 10
93.3202
 20
3.73936
 10
93.40619999999998
 20
3.69598
 10
93.41480000000001
 20
3.68728
 10
93.42339999999999
 20
3.6797
 10
93.4666
 20
3.591799999999999
 10
93.4666
 20
3.56142
 10
93.4666
 20
3.528860000000001
 10
93.42339999999999
 20
3.43988
 10
93.41480000000001
 20
3.4312
 10
93.40619999999998
 20
3.42252
 10
93.31799999999998
 20
3.37912
 10
93.28880000000001
 20
3.37912
 10
93.25640000000001
 20
3.37912
 10
93.16720000000001
 20
3.42686
 10
93.15860000000001
 20
3.43556
 10
93.15000000000001
 20
3.444220000000001
 10
93.10660000000001
 20
3.532120000000001
  0
LWPOLYLINE
  5
E0
100
AcDbEntity
  8
0
  6
ByLayer
 62
    7
370
   -1
100
AcDbPolyline
 90
   24
 70
    1
 43
0
 10
94.89359999999999
 20
2.51974
 10
94.89359999999999
 20
2.580500000000001
 10
94.82860000000002
 20
2.74762
 10
94.81559999999999
 20
2.7628
 10
94.80259999999998
 20
2.778
 10
94.65619999999998
 20
2.849620000000001
 10
94.60720000000001
 20
2.849620000000001
 10
94.55500000000004
 20
2.849620000000001
 10
94.41079999999999
 20
2.778
 10
94.39880000000002
 20
2.7628
 10
94.38579999999999
 20
2.7487
 10
94.32079999999999
 20
2.577260000000001
 10
94.32079999999999
 20
2.51974
 10
94.32079999999999
 20
2.460080000000001
 10
94.38140000000001
 20
2.296220000000001
 10
94.39439999999999
 20
2.28102
 10
94.4076
 20
2.265840000000001
 10
94.55719999999999
 20
2.18988
 10
94.60720000000001
 20
2.18988
 10
94.6602
 20
2.18988
 10
94.8058
 20
2.265840000000001
 10
94.81999999999999
 20
2.28102
 10
94.83199999999999
 20
2.296220000000001
 10
94.89359999999999
 20
2.46442
  0
LWPOLYLINE
  5
E1
100
AcDbEntity
  8
0
  6
ByLayer
 62
    7
370
   -1
100
AcDbPolyline
 90
   48
 70
    1
 43
0
 10
95.37559999999999
 20
2.51974
 10
95.37559999999999
 20
2.44922
 10
95.3244
 20
2.259340000000001
 10
95.31479999999999
 20
2.237640000000001
 10
95.3038
 20
2.21484
 10
95.16720000000001
 20
2.01628
 10
95.1498
 20
1.99892
 10
95.1292
 20
1.98156
 10
94.923
 20
1.847
 10
94.90220000000002
 20
1.838340000000001
 10
94.8794
 20
1.82964
 10
94.67439999999999
 20
1.78624
 10
94.60720000000001
 20
1.78624
 10
94.5334
 20
1.78624
 10
94.3338
 20
1.82964
 10
94.31200000000001
 20
1.838340000000001
 10
94.28920000000002
 20
1.847
 10
94.08300000000003
 20
1.98156
 10
94.06479999999999
 20
1.99892
 10
94.04519999999999
 20
2.01736
 10
93.91159999999999
 20
2.21592
 10
93.90420000000003
 20
2.237640000000001
 10
93.89340000000001
 20
2.259340000000001
 10
93.8434
 20
2.454639999999999
 10
93.8434
 20
2.51974
 10
93.8434
 20
2.59028
 10
93.89340000000001
 20
2.78016
 10
93.90420000000003
 20
2.80186
 10
93.9128
 20
2.824660000000001
 10
94.0462
 20
3.023220000000001
 10
94.06479999999999
 20
3.04058
 10
94.08200000000002
 20
3.057940000000001
 10
94.2884
 20
3.1925
 10
94.31200000000001
 20
3.201160000000001
 10
94.3338
 20
3.209860000000001
 10
94.53880000000001
 20
3.25324
 10
94.60720000000001
 20
3.25324
 10
94.68120000000002
 20
3.25324
 10
94.8794
 20
3.209860000000001
 10
94.90220000000002
 20
3.201160000000001
 10
94.92500000000001
 20
3.1925
 10
95.13140000000001
 20
3.057940000000001
 10
95.1498
 20
3.04058
 10
95.16800000000001
 20
3.0243
 10
95.30620000000002
 20
2.82576
 10
95.31479999999999
 20
2.80186
 10
95.3244
 20
2.78016
 10
95.37559999999999
 20
2.584860000000001
  0
LWPOLYLINE
  5
E2
100
AcDbEntity
  8
0
  6
ByLayer
 62
    7
370
   -1
100
AcDbPolyline
 90
   38
 70
    1
 43
0
 10
95.65219999999999
 20
1.838340000000001
 10
95.65219999999999
 20
3.209860000000001
 10
96.09479999999999
 20
3.209860000000001
 10
96.09479999999999
 20
2.93208
 10
96.11000000000001
 20
2.9592
 10
96.2944
 20
3.162120000000001
 10
96.31620000000001
 20
3.175140000000001
 10
96.33699999999999
 20
3.188140000000001
 10
96.54839999999999
 20
3.25324
 10
96.62
 20
3.25324
 10
96.6798
 20
3.25324
 10
96.84139999999999
 20
3.21744
 10
96.8586
 20
3.209860000000001
 10
96.87620000000001
 20
3.203340000000001
 10
97.01280000000003
 20
3.10134
 10
97.02360000000002
 20
3.088340000000001
 10
97.0334
 20
3.0753
 10
97.0986
 20
2.934260000000001
 10
97.10160000000002
 20
2.919060000000001
 10
97.10499999999999
 20
2.90062
 10
97.12360000000001
 20
2.69336
 10
97.12360000000001
 20
2.62392
 10
97.12360000000001
 20
1.838340000000001
 10
96.64160000000001
 20
1.838340000000001
 10
96.64160000000001
 20
2.571840000000001
 10
96.64160000000001
 20
2.631500000000001
 10
96.59840000000003
 20
2.799700000000001
 10
96.5898
 20
2.810560000000001
 10
96.58000000000001
 20
2.823560000000001
 10
96.4562
 20
2.884340000000001
 10
96.4162
 20
2.884340000000001
 10
96.36060000000001
 20
2.884340000000001
 10
96.20660000000001
 20
2.794280000000001
 10
96.19479999999999
 20
2.775840000000001
 10
96.18280000000001
 20
2.75738
 10
96.12520000000001
 20
2.501300000000001
 10
96.12520000000001
 20
2.41558
 10
96.12520000000001
 20
1.838340000000001
  0
ENDSEC
  0
SECTION
  2
OBJECTS
  0
DICTIONARY
  5
C
330
0
100
AcDbDictionary
281
    1
  3
ACAD_GROUP
350
D
  0
DICTIONARY
  5
D
330
C
100
AcDbDictionary
281
    1
  0
PLOTSETTINGS
  5
E3
100
AcDbPlotSettings
  6
1x1
 40
0
 41
0
 42
0
 43
0
  0
ENDSEC
  0
EOF
